SeanSans-NarrowThin.ufo
<glyph name="exclam" format="1">
  <advance width="239"/>
  <unicode hex="0021"/>
  <outline>
    <contour>
      <point x="131" y="229" type="line"/>
      <point x="135" y="722" type="line"/>
      <point x="102" y="722" type="line"/>
      <point x="106" y="229" type="line"/>
    </contour>
    <contour>
      <point x="139" y="13" type="curve"/>
      <point x="139" y="24"/>
      <point x="131" y="30"/>
      <point x="119" y="30" type="curve"/>
      <point x="108" y="30"/>
      <point x="101" y="23"/>
      <point x="101" y="13" type="curve"/>
      <point x="132" y="13"/>
      <point x="108" y="13"/>
      <point x="139" y="13" type="curve"/>
      <point x="139" y="1"/>
      <point x="131" y="-5"/>
      <point x="119" y="-5" type="curve"/>
      <point x="108" y="-5"/>
      <point x="101" y="1"/>
      <point x="101" y="13" type="curve"/>
      <point x="132" y="13"/>
      <point x="108" y="13"/>
    </contour>
  </outline>
</glyph>
<glyph name="quotedbl" format="1">
  <advance width="343"/>
  <unicode hex="0022"/>
  <outline>
    <contour>
      <point x="106" y="611" type="line"/>
      <point x="109" y="800" type="line"/>
      <point x="78" y="800" type="line"/>
      <point x="81" y="611" type="line"/>
    </contour>
    <contour>
      <point x="263" y="611" type="line"/>
      <point x="266" y="800" type="line"/>
      <point x="235" y="800" type="line"/>
      <point x="238" y="611" type="line"/>
    </contour>
  </outline>
</glyph>
<glyph name="numbersign" format="1">
  <advance width="596"/>
  <unicode hex="0023"/>
  <outline>
    <contour>
      <point x="47" y="247" type="curve"/>
      <point x="479" y="247" type="curve"/>
      <point x="484" y="270" type="curve"/>
      <point x="53" y="270" type="curve"/>
    </contour>
    <contour>
      <point x="110" y="491" type="curve"/>
      <point x="542" y="491" type="curve"/>
      <point x="548" y="513" type="curve"/>
      <point x="116" y="513" type="curve"/>
    </contour>
    <contour>
      <point x="338" y="39" type="curve"/>
      <point x="527" y="722" type="curve"/>
      <point x="502" y="722" type="curve"/>
      <point x="313" y="39" type="curve"/>
    </contour>
    <contour>
      <point x="109" y="46" type="curve"/>
      <point x="294" y="722" type="curve"/>
      <point x="269" y="722" type="curve"/>
      <point x="84" y="46" type="curve"/>
    </contour>
  </outline>
</glyph>
<glyph name="dollar" format="1">
  <advance width="486"/>
  <unicode hex="0024"/>
  <outline>
    <contour>
      <point x="239" y="-43" type="curve"/>
      <point x="239" y="-9"/>
      <point x="239" y="25"/>
      <point x="239" y="59" type="curve"/>
      <point x="214" y="59"/>
      <point x="239" y="59"/>
      <point x="214" y="59" type="curve"/>
      <point x="214" y="25"/>
      <point x="214" y="-9"/>
      <point x="214" y="-43" type="curve"/>
      <point x="239" y="-43"/>
      <point x="214" y="-43"/>
    </contour>
    <contour>
      <point x="250" y="671" type="curve"/>
      <point x="250" y="705"/>
      <point x="250" y="739"/>
      <point x="250" y="773" type="curve"/>
      <point x="224" y="773"/>
      <point x="250" y="773"/>
      <point x="224" y="773" type="curve"/>
      <point x="224" y="739"/>
      <point x="224" y="705"/>
      <point x="224" y="671" type="curve"/>
      <point x="250" y="671"/>
      <point x="224" y="671"/>
    </contour>
    <contour>
      <point x="55" y="99" type="curve"/>
      <point x="101" y="72"/>
      <point x="158" y="48"/>
      <point x="225" y="48" type="curve"/>
      <point x="341" y="48"/>
      <point x="427" y="102"/>
      <point x="427" y="198" type="curve"/>
      <point x="427" y="292"/>
      <point x="341" y="338"/>
      <point x="247" y="385" type="curve"/>
      <point x="164" y="427"/>
      <point x="101" y="463"/>
      <point x="101" y="543" type="curve"/>
      <point x="101" y="615"/>
      <point x="158" y="661"/>
      <point x="241" y="661" type="curve"/>
      <point x="304" y="661"/>
      <point x="347" y="643"/>
      <point x="399" y="612" type="curve"/>
      <point x="411" y="631"/>
      <point x="399" y="612"/>
      <point x="411" y="631" type="curve"/>
      <point x="356" y="665"/>
      <point x="309" y="683"/>
      <point x="243" y="683" type="curve"/>
      <point x="143" y="683"/>
      <point x="75" y="630"/>
      <point x="75" y="543" type="curve"/>
      <point x="75" y="453"/>
      <point x="142" y="410"/>
      <point x="232" y="365" type="curve"/>
      <point x="320" y="323"/>
      <point x="401" y="281"/>
      <point x="401" y="197" type="curve"/>
      <point x="401" y="116"/>
      <point x="327" y="70"/>
      <point x="228" y="70" type="curve"/>
      <point x="165" y="70"/>
      <point x="112" y="95"/>
      <point x="68" y="119" type="curve"/>
      <point x="55" y="99"/>
      <point x="68" y="119"/>
    </contour>
  </outline>
</glyph>
<glyph name="percent" format="1">
  <advance width="882"/>
  <unicode hex="0025"/>
  <outline>
    <contour>
      <point x="280" y="-92" type="line"/>
      <point x="652" y="756" type="line"/>
      <point x="623" y="756" type="line"/>
      <point x="252" y="-92" type="line"/>
    </contour>
    <contour>
      <point x="67" y="555" type="curve"/>
      <point x="67" y="660"/>
      <point x="98" y="740"/>
      <point x="193" y="740" type="curve"/>
      <point x="288" y="741"/>
      <point x="319" y="661"/>
      <point x="319" y="556" type="curve"/>
      <point x="319" y="451"/>
      <point x="290" y="369"/>
      <point x="195" y="369" type="curve"/>
      <point x="98" y="369"/>
      <point x="67" y="449"/>
      <point x="67" y="555" type="curve"/>
      <point x="57" y="555"/>
      <point x="52" y="555"/>
      <point x="43" y="555" type="curve"/>
      <point x="43" y="436"/>
      <point x="85" y="347"/>
      <point x="194" y="347" type="curve"/>
      <point x="303" y="347"/>
      <point x="344" y="437"/>
      <point x="344" y="557" type="curve"/>
      <point x="344" y="675"/>
      <point x="302" y="763"/>
      <point x="194" y="763" type="curve"/>
      <point x="85" y="763"/>
      <point x="43" y="674"/>
      <point x="43" y="555" type="curve"/>
      <point x="52" y="555"/>
      <point x="57" y="555"/>
    </contour>
    <contour>
      <point x="563" y="110" type="curve"/>
      <point x="563" y="214"/>
      <point x="594" y="295"/>
      <point x="689" y="295" type="curve"/>
      <point x="784" y="296"/>
      <point x="815" y="215"/>
      <point x="815" y="111" type="curve"/>
      <point x="815" y="6"/>
      <point x="786" y="-77"/>
      <point x="691" y="-77" type="curve"/>
      <point x="595" y="-77"/>
      <point x="563" y="4"/>
      <point x="563" y="110" type="curve"/>
      <point x="554" y="110"/>
      <point x="548" y="110"/>
      <point x="539" y="110" type="curve"/>
      <point x="539" y="-9"/>
      <point x="581" y="-99"/>
      <point x="690" y="-99" type="curve"/>
      <point x="799" y="-99"/>
      <point x="840" y="-8"/>
      <point x="840" y="112" type="curve"/>
      <point x="840" y="229"/>
      <point x="798" y="318"/>
      <point x="690" y="318" type="curve"/>
      <point x="581" y="318"/>
      <point x="539" y="228"/>
      <point x="539" y="110" type="curve"/>
      <point x="548" y="110"/>
      <point x="554" y="110"/>
    </contour>
  </outline>
</glyph>
<glyph name="ampersand" format="1">
  <advance width="586"/>
  <unicode hex="0026"/>
  <outline>
    <contour>
      <point x="574" y="7" type="line"/>
      <point x="475" y="122"/>
      <point x="382" y="234"/>
      <point x="283" y="349" type="curve"/>
      <point x="226" y="422"/>
      <point x="157" y="481"/>
      <point x="157" y="577" type="curve"/>
      <point x="157" y="648"/>
      <point x="193" y="703"/>
      <point x="258" y="703" type="curve"/>
      <point x="327" y="703"/>
      <point x="367" y="652"/>
      <point x="367" y="579" type="curve"/>
      <point x="367" y="487"/>
      <point x="304" y="439"/>
      <point x="227" y="389" type="curve"/>
      <point x="142" y="330"/>
      <point x="72" y="279"/>
      <point x="72" y="177" type="curve"/>
      <point x="72" y="68"/>
      <point x="143" y="-5"/>
      <point x="252" y="-5" type="curve"/>
      <point x="425" y="-5"/>
      <point x="494" y="141"/>
      <point x="543" y="318" type="curve"/>
      <point x="521" y="323"/>
      <point x="543" y="318"/>
      <point x="521" y="323" type="curve"/>
      <point x="475" y="158"/>
      <point x="407" y="18"/>
      <point x="253" y="18" type="curve"/>
      <point x="159" y="18"/>
      <point x="98" y="81"/>
      <point x="98" y="177" type="curve"/>
      <point x="98" y="270"/>
      <point x="163" y="317"/>
      <point x="241" y="369" type="curve"/>
      <point x="324" y="426"/>
      <point x="393" y="479"/>
      <point x="393" y="579" type="curve"/>
      <point x="393" y="667"/>
      <point x="343" y="727"/>
      <point x="259" y="727" type="curve"/>
      <point x="177" y="727"/>
      <point x="132" y="663"/>
      <point x="132" y="577" type="curve"/>
      <point x="132" y="476"/>
      <point x="201" y="412"/>
      <point x="264" y="336" type="curve"/>
      <point x="361" y="222"/>
      <point x="459" y="106"/>
      <point x="556" y="-7" type="curve"/>
    </contour>
  </outline>
</glyph>
<glyph name="parenleft" format="1">
  <advance width="298"/>
  <unicode hex="0028"/>
  <outline>
    <contour>
      <point x="295" y="-236" type="curve"/>
      <point x="144" y="-62"/>
      <point x="89" y="96"/>
      <point x="89" y="326" type="curve"/>
      <point x="89" y="556"/>
      <point x="146" y="713"/>
      <point x="293" y="889" type="curve"/>
      <point x="277" y="903"/>
      <point x="293" y="889"/>
      <point x="277" y="903" type="curve"/>
      <point x="123" y="726"/>
      <point x="63" y="563"/>
      <point x="63" y="326" type="curve"/>
      <point x="63" y="89"/>
      <point x="124" y="-73"/>
      <point x="278" y="-251" type="curve"/>
      <point x="295" y="-236"/>
      <point x="278" y="-251"/>
    </contour>
  </outline>
</glyph>
<glyph name="parenright" format="1">
  <advance width="308"/>
  <unicode hex="0029"/>
  <outline>
    <contour>
      <point x="19" y="-267" type="curve"/>
      <point x="175" y="-81"/>
      <point x="246" y="81"/>
      <point x="246" y="327" type="curve"/>
      <point x="246" y="566"/>
      <point x="182" y="727"/>
      <point x="22" y="903" type="curve"/>
      <point x="5" y="889"/>
      <point x="22" y="903"/>
      <point x="5" y="889" type="curve"/>
      <point x="159" y="714"/>
      <point x="219" y="558"/>
      <point x="219" y="326" type="curve"/>
      <point x="219" y="89"/>
      <point x="149" y="-68"/>
      <point x="1" y="-252" type="curve"/>
      <point x="19" y="-267"/>
      <point x="1" y="-252"/>
    </contour>
  </outline>
</glyph>
<glyph name="asterisk" format="1">
  <advance width="676"/>
  <unicode hex="002A"/>
  <outline>
    <contour>
      <point x="349" y="605" type="line"/>
      <point x="352" y="793" type="line"/>
      <point x="321" y="793" type="line"/>
      <point x="324" y="605" type="line"/>
    </contour>
    <contour>
      <point x="415" y="542" type="line"/>
      <point x="595" y="598" type="line"/>
      <point x="586" y="627" type="line"/>
      <point x="407" y="566" type="line"/>
    </contour>
    <contour>
      <point x="376" y="461" type="line"/>
      <point x="484" y="307" type="line"/>
      <point x="509" y="324" type="line"/>
      <point x="396" y="475" type="line"/>
    </contour>
    <contour>
      <point x="286" y="473" type="line"/>
      <point x="172" y="321" type="line"/>
      <point x="197" y="304" type="line"/>
      <point x="305" y="458" type="line"/>
    </contour>
    <contour>
      <point x="269" y="561" type="line"/>
      <point x="91" y="623" type="line"/>
      <point x="81" y="594" type="line"/>
      <point x="261" y="538" type="line"/>
    </contour>
  </outline>
</glyph>
<glyph name="plus" format="1">
  <advance width="616"/>
  <unicode hex="002B"/>
  <outline>
    <contour>
      <point x="48" y="297" type="curve"/>
      <point x="568" y="297" type="line"/>
      <point x="568" y="322"/>
      <point x="568" y="297"/>
      <point x="568" y="322" type="curve"/>
      <point x="48" y="322" type="line"/>
      <point x="48" y="297"/>
      <point x="48" y="322"/>
    </contour>
    <contour>
      <point x="319" y="18" type="curve"/>
      <point x="319" y="588" type="line"/>
      <point x="294" y="588"/>
      <point x="319" y="588"/>
      <point x="294" y="588" type="curve"/>
      <point x="294" y="18" type="line"/>
      <point x="319" y="18"/>
      <point x="294" y="18"/>
    </contour>
  </outline>
</glyph>
<glyph name="comma" format="1">
  <advance width="124"/>
  <unicode hex="002C"/>
  <outline>
    <contour>
      <point x="33" y="-107" type="line"/>
      <point x="59" y="-83"/>
      <point x="82" y="-54"/>
      <point x="82" y="-4" type="curve"/>
      <point x="82" y="17"/>
      <point x="78" y="35"/>
      <point x="59" y="35" type="curve"/>
      <point x="46" y="35"/>
      <point x="39" y="28"/>
      <point x="39" y="16" type="curve"/>
      <point x="39" y="6"/>
      <point x="43" y="0"/>
      <point x="54" y="-5" type="curve"/>
      <point x="54" y="-28"/>
      <point x="44" y="-65"/>
      <point x="17" y="-89" type="curve"/>
    </contour>
  </outline>
</glyph>
<glyph name="hyphen" format="1">
  <advance width="433"/>
  <unicode hex="002D"/>
  <outline>
    <contour>
      <point x="89" y="260" type="curve"/>
      <point x="174" y="260"/>
      <point x="259" y="260"/>
      <point x="343" y="260" type="curve"/>
      <point x="343" y="285"/>
      <point x="343" y="260"/>
      <point x="343" y="285" type="curve"/>
      <point x="259" y="285"/>
      <point x="174" y="285"/>
      <point x="89" y="285" type="curve"/>
      <point x="89" y="260"/>
      <point x="89" y="285"/>
    </contour>
  </outline>
</glyph>
<glyph name="period" format="1">
  <advance width="185"/>
  <unicode hex="002E"/>
  <outline>
    <contour>
      <point x="112" y="13" type="curve"/>
      <point x="112" y="24"/>
      <point x="104" y="30"/>
      <point x="93" y="30" type="curve"/>
      <point x="81" y="30"/>
      <point x="75" y="23"/>
      <point x="75" y="13" type="curve"/>
      <point x="105" y="13"/>
      <point x="81" y="13"/>
      <point x="112" y="13" type="curve"/>
      <point x="112" y="1"/>
      <point x="104" y="-5"/>
      <point x="93" y="-5" type="curve"/>
      <point x="81" y="-5"/>
      <point x="75" y="1"/>
      <point x="75" y="13" type="curve"/>
      <point x="105" y="13"/>
      <point x="81" y="13"/>
    </contour>
  </outline>
</glyph>
<glyph name="slash" format="1">
  <advance width="457"/>
  <unicode hex="002F"/>
  <outline>
    <contour>
      <point x="56" y="-66" type="curve"/>
      <point x="180" y="236"/>
      <point x="303" y="540"/>
      <point x="427" y="842" type="curve"/>
      <point x="402" y="842"/>
      <point x="427" y="842"/>
      <point x="402" y="842" type="curve"/>
      <point x="278" y="540"/>
      <point x="154" y="236"/>
      <point x="30" y="-66" type="curve"/>
      <point x="56" y="-66"/>
      <point x="30" y="-66"/>
    </contour>
  </outline>
</glyph>
<glyph name="zero" format="1">
  <advance width="635"/>
  <unicode hex="0030"/>
  <outline>
    <contour>
      <point x="101" y="360" type="curve"/>
      <point x="101" y="553"/>
      <point x="150" y="703"/>
      <point x="317" y="703" type="curve"/>
      <point x="486" y="703"/>
      <point x="534" y="554"/>
      <point x="534" y="363" type="curve"/>
      <point x="534" y="171"/>
      <point x="483" y="19"/>
      <point x="320" y="19" type="curve"/>
      <point x="157" y="19"/>
      <point x="101" y="168"/>
      <point x="101" y="360" type="curve"/>
      <point x="77" y="360"/>
      <point x="99" y="360"/>
      <point x="75" y="360" type="curve"/>
      <point x="75" y="152"/>
      <point x="133" y="-5"/>
      <point x="319" y="-5" type="curve"/>
      <point x="505" y="-5"/>
      <point x="560" y="154"/>
      <point x="560" y="363" type="curve"/>
      <point x="560" y="570"/>
      <point x="504" y="727"/>
      <point x="320" y="727" type="curve"/>
      <point x="133" y="727"/>
      <point x="75" y="569"/>
      <point x="75" y="360" type="curve"/>
      <point x="99" y="360"/>
      <point x="77" y="360"/>
    </contour>
  </outline>
</glyph>
<glyph name="one" format="1">
  <advance width="330"/>
  <unicode hex="0031"/>
  <outline>
    <contour>
      <point x="45" y="538" type="curve"/>
      <point x="226" y="711"/>
      <point x="45" y="538"/>
      <point x="226" y="711" type="curve"/>
      <point x="203" y="722"/>
      <point x="226" y="711"/>
      <point x="203" y="722" type="curve"/>
      <point x="28" y="555"/>
      <point x="203" y="722"/>
      <point x="28" y="555" type="curve"/>
      <point x="45" y="538"/>
      <point x="28" y="555"/>
    </contour>
    <contour>
      <point x="228" y="0" type="curve"/>
      <point x="228" y="241"/>
      <point x="228" y="481"/>
      <point x="228" y="722" type="curve"/>
      <point x="203" y="722"/>
      <point x="228" y="722"/>
      <point x="203" y="722" type="curve"/>
      <point x="203" y="481"/>
      <point x="203" y="241"/>
      <point x="203" y="0" type="curve"/>
      <point x="228" y="0"/>
      <point x="203" y="0"/>
    </contour>
  </outline>
</glyph>
<glyph name="two" format="1">
  <advance width="489"/>
  <unicode hex="0032"/>
  <outline>
    <contour>
      <point x="46" y="0" type="curve"/>
      <point x="185" y="0"/>
      <point x="296" y="0"/>
      <point x="427" y="0" type="curve"/>
      <point x="427" y="23"/>
      <point x="427" y="0"/>
      <point x="427" y="23" type="curve"/>
      <point x="292" y="23"/>
      <point x="181" y="23"/>
      <point x="46" y="23" type="curve"/>
      <point x="46" y="0"/>
      <point x="46" y="23"/>
    </contour>
    <contour>
      <point x="84" y="563" type="curve"/>
      <point x="122" y="641"/>
      <point x="162" y="703"/>
      <point x="247" y="703" type="curve"/>
      <point x="344" y="703"/>
      <point x="390" y="633"/>
      <point x="390" y="526" type="curve"/>
      <point x="390" y="402"/>
      <point x="306" y="299"/>
      <point x="244" y="237" type="curve"/>
      <point x="178" y="166"/>
      <point x="112" y="94"/>
      <point x="46" y="23" type="curve"/>
      <point x="57" y="0"/>
      <point x="46" y="23"/>
      <point x="57" y="0" type="curve"/>
      <point x="125" y="73"/>
      <point x="193" y="146"/>
      <point x="260" y="220" type="curve"/>
      <point x="327" y="286"/>
      <point x="415" y="392"/>
      <point x="415" y="527" type="curve"/>
      <point x="415" y="648"/>
      <point x="361" y="727"/>
      <point x="248" y="727" type="curve"/>
      <point x="153" y="727"/>
      <point x="100" y="662"/>
      <point x="62" y="574" type="curve"/>
      <point x="84" y="563"/>
      <point x="62" y="574"/>
    </contour>
  </outline>
</glyph>
<glyph name="three" format="1">
  <advance width="491"/>
  <unicode hex="0033"/>
  <outline>
    <contour>
      <point x="60" y="56" type="curve"/>
      <point x="112" y="19"/>
      <point x="155" y="-5"/>
      <point x="220" y="-5" type="curve"/>
      <point x="347" y="-5"/>
      <point x="419" y="64"/>
      <point x="419" y="195" type="curve"/>
      <point x="419" y="325"/>
      <point x="303" y="391"/>
      <point x="143" y="391" type="curve"/>
      <point x="143" y="380"/>
      <point x="143" y="382"/>
      <point x="143" y="371" type="curve"/>
      <point x="281" y="371"/>
      <point x="394" y="311"/>
      <point x="394" y="194" type="curve"/>
      <point x="394" y="79"/>
      <point x="319" y="20"/>
      <point x="221" y="20" type="curve"/>
      <point x="162" y="20"/>
      <point x="124" y="41"/>
      <point x="73" y="74" type="curve"/>
      <point x="60" y="56"/>
      <point x="73" y="74"/>
    </contour>
    <contour>
      <point x="83" y="627" type="curve"/>
      <point x="111" y="663"/>
      <point x="158" y="702"/>
      <point x="218" y="702" type="curve"/>
      <point x="312" y="702"/>
      <point x="365" y="648"/>
      <point x="365" y="552" type="curve"/>
      <point x="365" y="449"/>
      <point x="265" y="394"/>
      <point x="143" y="394" type="curve"/>
      <point x="143" y="383"/>
      <point x="143" y="386"/>
      <point x="143" y="375" type="curve"/>
      <point x="284" y="375"/>
      <point x="390" y="434"/>
      <point x="390" y="553" type="curve"/>
      <point x="390" y="662"/>
      <point x="329" y="727"/>
      <point x="220" y="727" type="curve"/>
      <point x="151" y="727"/>
      <point x="96" y="682"/>
      <point x="66" y="640" type="curve"/>
      <point x="83" y="627"/>
      <point x="66" y="640"/>
    </contour>
  </outline>
</glyph>
<glyph name="four" format="1">
  <advance width="539"/>
  <unicode hex="0034"/>
  <outline>
    <contour>
      <point x="48" y="274" type="line"/>
      <point x="337" y="717" type="line"/>
      <point x="314" y="722" type="line"/>
      <point x="29" y="288" type="line"/>
    </contour>
    <contour>
      <point x="496" y="288" type="line"/>
      <point x="29" y="288" type="line"/>
      <point x="29" y="264" type="line"/>
      <point x="496" y="264" type="line"/>
    </contour>
    <contour>
      <point x="339" y="0" type="line"/>
      <point x="339" y="722" type="line"/>
      <point x="314" y="722" type="line"/>
      <point x="314" y="0" type="line"/>
    </contour>
  </outline>
</glyph>
<glyph name="five" format="1">
  <advance width="474"/>
  <unicode hex="0035"/>
  <outline>
    <contour>
      <point x="101" y="722" type="curve"/>
      <point x="101" y="619"/>
      <point x="101" y="513"/>
      <point x="101" y="404" type="curve"/>
      <point x="125" y="395"/>
      <point x="101" y="404"/>
      <point x="125" y="395" type="curve"/>
      <point x="125" y="497"/>
      <point x="125" y="598"/>
      <point x="125" y="699" type="curve"/>
      <point x="101" y="722"/>
      <point x="125" y="699"/>
    </contour>
    <contour>
      <point x="125" y="395" type="curve"/>
      <point x="145" y="408"/>
      <point x="190" y="422"/>
      <point x="222" y="422" type="curve"/>
      <point x="330" y="422"/>
      <point x="383" y="336"/>
      <point x="383" y="224" type="curve"/>
      <point x="383" y="110"/>
      <point x="321" y="20"/>
      <point x="213" y="20" type="curve"/>
      <point x="158" y="20"/>
      <point x="121" y="36"/>
      <point x="72" y="64" type="curve"/>
      <point x="58" y="44"/>
      <point x="72" y="64"/>
      <point x="58" y="44" type="curve"/>
      <point x="106" y="13"/>
      <point x="153" y="-5"/>
      <point x="212" y="-5" type="curve"/>
      <point x="337" y="-5"/>
      <point x="409" y="94"/>
      <point x="409" y="224" type="curve"/>
      <point x="409" y="350"/>
      <point x="345" y="446"/>
      <point x="224" y="446" type="curve"/>
      <point x="180" y="446"/>
      <point x="128" y="430"/>
      <point x="101" y="407" type="curve"/>
      <point x="125" y="395"/>
      <point x="101" y="407"/>
    </contour>
    <contour>
      <point x="389" y="722" type="curve"/>
      <point x="289" y="722"/>
      <point x="201" y="722"/>
      <point x="101" y="722" type="curve"/>
      <point x="125" y="699"/>
      <point x="101" y="722"/>
      <point x="125" y="699" type="curve"/>
      <point x="217" y="699"/>
      <point x="298" y="699"/>
      <point x="389" y="699" type="curve"/>
      <point x="389" y="722"/>
      <point x="389" y="699"/>
    </contour>
  </outline>
</glyph>
<glyph name="six" format="1">
  <advance width="526"/>
  <unicode hex="0036"/>
  <outline>
    <contour>
      <point x="94" y="230" type="curve"/>
      <point x="119" y="312"/>
      <point x="180" y="385"/>
      <point x="273" y="385" type="curve"/>
      <point x="378" y="385"/>
      <point x="430" y="313"/>
      <point x="430" y="202" type="curve"/>
      <point x="430" y="102"/>
      <point x="379" y="20"/>
      <point x="278" y="20" type="curve"/>
      <point x="155" y="20"/>
      <point x="98" y="111"/>
      <point x="98" y="242" type="curve"/>
      <point x="98" y="485"/>
      <point x="239" y="636"/>
      <point x="465" y="714" type="curve"/>
      <point x="457" y="735"/>
      <point x="465" y="714"/>
      <point x="457" y="735" type="curve"/>
      <point x="220" y="657"/>
      <point x="72" y="500"/>
      <point x="72" y="241" type="curve"/>
      <point x="72" y="96"/>
      <point x="139" y="-5"/>
      <point x="277" y="-5" type="curve"/>
      <point x="396" y="-5"/>
      <point x="457" y="79"/>
      <point x="457" y="203" type="curve"/>
      <point x="457" y="328"/>
      <point x="394" y="409"/>
      <point x="276" y="409" type="curve"/>
      <point x="169" y="409"/>
      <point x="103" y="337"/>
      <point x="75" y="241" type="curve"/>
      <point x="92" y="230"/>
      <point x="77" y="241"/>
    </contour>
  </outline>
</glyph>
<glyph name="seven" format="1">
  <advance width="469"/>
  <unicode hex="0037"/>
  <outline>
    <contour>
      <point x="37" y="699" type="curve"/>
      <point x="454" y="699" type="curve"/>
      <point x="454" y="722" type="curve"/>
      <point x="37" y="722" type="curve"/>
    </contour>
    <contour>
      <point x="438" y="722" type="curve"/>
      <point x="76" y="0" type="curve"/>
      <point x="105" y="0" type="curve"/>
      <point x="454" y="699" type="curve"/>
    </contour>
  </outline>
</glyph>
<glyph name="eight" format="1">
  <advance width="512"/>
  <unicode hex="0038"/>
  <outline>
    <contour>
      <point x="92" y="564" type="curve"/>
      <point x="92" y="461"/>
      <point x="158" y="421"/>
      <point x="248" y="369" type="curve"/>
      <point x="341" y="315"/>
      <point x="410" y="270"/>
      <point x="410" y="169" type="curve"/>
      <point x="410" y="72"/>
      <point x="353" y="19"/>
      <point x="254" y="19" type="curve"/>
      <point x="155" y="19"/>
      <point x="101" y="72"/>
      <point x="101" y="169" type="curve"/>
      <point x="101" y="272"/>
      <point x="171" y="314"/>
      <point x="265" y="369" type="curve"/>
      <point x="352" y="422"/>
      <point x="419" y="461"/>
      <point x="419" y="562" type="curve"/>
      <point x="419" y="668"/>
      <point x="362" y="727"/>
      <point x="254" y="727" type="curve"/>
      <point x="150" y="727"/>
      <point x="92" y="667"/>
      <point x="92" y="564" type="curve"/>
      <point x="117" y="564"/>
      <point x="92" y="564"/>
      <point x="117" y="564" type="curve"/>
      <point x="117" y="650"/>
      <point x="166" y="703"/>
      <point x="253" y="703" type="curve"/>
      <point x="345" y="703"/>
      <point x="394" y="653"/>
      <point x="394" y="562" type="curve"/>
      <point x="394" y="472"/>
      <point x="331" y="434"/>
      <point x="248" y="387" type="curve"/>
      <point x="148" y="328"/>
      <point x="75" y="284"/>
      <point x="75" y="169" type="curve"/>
      <point x="75" y="57"/>
      <point x="139" y="-5"/>
      <point x="253" y="-5" type="curve"/>
      <point x="367" y="-5"/>
      <point x="436" y="55"/>
      <point x="436" y="169" type="curve"/>
      <point x="436" y="282"/>
      <point x="363" y="329"/>
      <point x="265" y="387" type="curve"/>
      <point x="182" y="437"/>
      <point x="117" y="472"/>
      <point x="117" y="564" type="curve"/>
      <point x="92" y="564"/>
      <point x="117" y="564"/>
    </contour>
  </outline>
</glyph>
<glyph name="nine" format="1">
  <advance width="525"/>
  <unicode hex="0039"/>
  <outline>
    <contour>
      <point x="433" y="490" type="curve"/>
      <point x="400" y="409"/>
      <point x="350" y="337"/>
      <point x="252" y="337" type="curve"/>
      <point x="147" y="337"/>
      <point x="95" y="409"/>
      <point x="95" y="520" type="curve"/>
      <point x="95" y="627"/>
      <point x="146" y="702"/>
      <point x="247" y="702" type="curve"/>
      <point x="370" y="702"/>
      <point x="427" y="609"/>
      <point x="427" y="480" type="curve"/>
      <point x="427" y="237"/>
      <point x="298" y="87"/>
      <point x="64" y="9" type="curve"/>
      <point x="73" y="-15"/>
      <point x="64" y="9"/>
      <point x="73" y="-15" type="curve"/>
      <point x="318" y="64"/>
      <point x="453" y="222"/>
      <point x="453" y="481" type="curve"/>
      <point x="453" y="626"/>
      <point x="388" y="727"/>
      <point x="248" y="727" type="curve"/>
      <point x="129" y="727"/>
      <point x="69" y="643"/>
      <point x="69" y="519" type="curve"/>
      <point x="69" y="394"/>
      <point x="130" y="313"/>
      <point x="250" y="313" type="curve"/>
      <point x="357" y="313"/>
      <point x="414" y="379"/>
      <point x="448" y="482" type="curve"/>
      <point x="433" y="490"/>
      <point x="448" y="482"/>
    </contour>
  </outline>
</glyph>
<glyph name="colon" format="1">
  <advance width="207"/>
  <unicode hex="003A"/>
  <outline>
    <contour>
      <point x="118" y="424" type="curve"/>
      <point x="118" y="435"/>
      <point x="110" y="442"/>
      <point x="99" y="442" type="curve"/>
      <point x="87" y="442"/>
      <point x="81" y="435"/>
      <point x="81" y="424" type="curve"/>
      <point x="111" y="424"/>
      <point x="87" y="424"/>
      <point x="118" y="424" type="curve"/>
      <point x="118" y="413"/>
      <point x="110" y="406"/>
      <point x="99" y="406" type="curve"/>
      <point x="87" y="406"/>
      <point x="81" y="413"/>
      <point x="81" y="424" type="curve"/>
      <point x="111" y="424"/>
      <point x="87" y="424"/>
    </contour>
    <contour>
      <point x="118" y="13" type="curve"/>
      <point x="118" y="25"/>
      <point x="110" y="31"/>
      <point x="99" y="31" type="curve"/>
      <point x="87" y="31"/>
      <point x="81" y="24"/>
      <point x="81" y="13" type="curve"/>
      <point x="111" y="13"/>
      <point x="87" y="13"/>
      <point x="118" y="13" type="curve"/>
      <point x="118" y="2"/>
      <point x="110" y="-5"/>
      <point x="99" y="-5" type="curve"/>
      <point x="87" y="-5"/>
      <point x="81" y="2"/>
      <point x="81" y="13" type="curve"/>
      <point x="111" y="13"/>
      <point x="87" y="13"/>
    </contour>
  </outline>
</glyph>
<glyph name="semicolon" format="1">
  <advance width="158"/>
  <unicode hex="003B"/>
  <outline>
    <contour>
      <point x="51" y="-95" type="line"/>
      <point x="78" y="-71"/>
      <point x="100" y="-41"/>
      <point x="100" y="9" type="curve"/>
      <point x="100" y="30"/>
      <point x="96" y="47"/>
      <point x="78" y="47" type="curve"/>
      <point x="64" y="47"/>
      <point x="57" y="41"/>
      <point x="57" y="29" type="curve"/>
      <point x="57" y="18"/>
      <point x="61" y="12"/>
      <point x="72" y="7" type="curve"/>
      <point x="72" y="-15"/>
      <point x="62" y="-53"/>
      <point x="35" y="-77" type="curve"/>
    </contour>
    <contour>
      <point x="98" y="427" type="curve"/>
      <point x="98" y="439"/>
      <point x="90" y="445"/>
      <point x="79" y="445" type="curve"/>
      <point x="67" y="445"/>
      <point x="61" y="438"/>
      <point x="61" y="427" type="curve"/>
      <point x="92" y="427"/>
      <point x="67" y="427"/>
      <point x="98" y="427" type="curve"/>
      <point x="98" y="416"/>
      <point x="90" y="410"/>
      <point x="79" y="410" type="curve"/>
      <point x="67" y="410"/>
      <point x="61" y="416"/>
      <point x="61" y="427" type="curve"/>
      <point x="92" y="427"/>
      <point x="67" y="427"/>
    </contour>
  </outline>
</glyph>
<glyph name="less" format="1">
  <advance width="639"/>
  <unicode hex="003C"/>
  <outline>
    <contour>
      <point x="572" y="582" type="curve"/>
      <point x="395" y="492"/>
      <point x="218" y="402"/>
      <point x="41" y="312" type="curve"/>
      <point x="41" y="288"/>
      <point x="41" y="312"/>
      <point x="41" y="288" type="curve"/>
      <point x="218" y="378"/>
      <point x="395" y="468"/>
      <point x="572" y="558" type="curve"/>
      <point x="572" y="582"/>
      <point x="572" y="558"/>
    </contour>
    <contour>
      <point x="581" y="48" type="curve"/>
      <point x="401" y="136"/>
      <point x="221" y="224"/>
      <point x="41" y="312" type="curve"/>
      <point x="41" y="288"/>
      <point x="41" y="312"/>
      <point x="41" y="288" type="curve"/>
      <point x="221" y="200"/>
      <point x="401" y="112"/>
      <point x="581" y="24" type="curve"/>
      <point x="581" y="48"/>
      <point x="581" y="24"/>
    </contour>
  </outline>
</glyph>
<glyph name="equal" format="1">
  <advance width="657"/>
  <unicode hex="003D"/>
  <outline>
    <contour>
      <point x="67" y="206" type="curve"/>
      <point x="250" y="206"/>
      <point x="433" y="206"/>
      <point x="616" y="206" type="curve"/>
      <point x="616" y="229"/>
      <point x="616" y="206"/>
      <point x="616" y="229" type="curve"/>
      <point x="433" y="229"/>
      <point x="250" y="229"/>
      <point x="67" y="229" type="curve"/>
      <point x="67" y="206"/>
      <point x="67" y="229"/>
    </contour>
    <contour>
      <point x="67" y="428" type="curve"/>
      <point x="250" y="428"/>
      <point x="433" y="428"/>
      <point x="616" y="428" type="curve"/>
      <point x="616" y="451"/>
      <point x="616" y="428"/>
      <point x="616" y="451" type="curve"/>
      <point x="433" y="451"/>
      <point x="250" y="451"/>
      <point x="67" y="451" type="curve"/>
      <point x="67" y="428"/>
      <point x="67" y="451"/>
    </contour>
  </outline>
</glyph>
<glyph name="greater" format="1">
  <advance width="638"/>
  <unicode hex="003E"/>
  <outline>
    <contour>
      <point x="65" y="24" type="curve"/>
      <point x="242" y="114"/>
      <point x="420" y="204"/>
      <point x="597" y="294" type="curve"/>
      <point x="597" y="318"/>
      <point x="597" y="294"/>
      <point x="597" y="318" type="curve"/>
      <point x="420" y="228"/>
      <point x="242" y="138"/>
      <point x="65" y="48" type="curve"/>
      <point x="65" y="24"/>
      <point x="65" y="48"/>
    </contour>
    <contour>
      <point x="57" y="558" type="curve"/>
      <point x="236" y="470"/>
      <point x="417" y="382"/>
      <point x="597" y="294" type="curve"/>
      <point x="597" y="318"/>
      <point x="597" y="294"/>
      <point x="597" y="318" type="curve"/>
      <point x="417" y="406"/>
      <point x="236" y="494"/>
      <point x="57" y="582" type="curve"/>
      <point x="57" y="558"/>
      <point x="57" y="582"/>
    </contour>
  </outline>
</glyph>
<glyph name="question" format="1">
  <advance width="441"/>
  <unicode hex="003F"/>
  <outline>
    <contour>
      <point x="181" y="334" type="curve"/>
      <point x="181" y="297"/>
      <point x="181" y="258"/>
      <point x="181" y="221" type="curve"/>
      <point x="206" y="221"/>
      <point x="181" y="221"/>
      <point x="206" y="221" type="curve"/>
      <point x="206" y="258"/>
      <point x="206" y="297"/>
      <point x="206" y="334" type="curve"/>
      <point x="181" y="334"/>
      <point x="206" y="334"/>
    </contour>
    <contour>
      <point x="76" y="623" type="line"/>
      <point x="102" y="658"/>
      <point x="142" y="687"/>
      <point x="199" y="687" type="curve"/>
      <point x="296" y="687"/>
      <point x="350" y="619"/>
      <point x="350" y="519" type="curve"/>
      <point x="350" y="410"/>
      <point x="291" y="334"/>
      <point x="184" y="334" type="curve"/>
      <point x="184" y="315"/>
      <point x="184" y="330"/>
      <point x="184" y="311" type="curve"/>
      <point x="305" y="311"/>
      <point x="376" y="396"/>
      <point x="376" y="519" type="curve"/>
      <point x="376" y="632"/>
      <point x="311" y="710"/>
      <point x="201" y="710" type="curve"/>
      <point x="132" y="710"/>
      <point x="89" y="678"/>
      <point x="59" y="637" type="curve"/>
    </contour>
    <contour>
      <point x="210" y="12" type="curve"/>
      <point x="210" y="23"/>
      <point x="204" y="29"/>
      <point x="193" y="29" type="curve"/>
      <point x="182" y="29"/>
      <point x="176" y="22"/>
      <point x="176" y="12" type="curve"/>
      <point x="210" y="12"/>
      <point x="176" y="12"/>
      <point x="210" y="12" type="curve"/>
      <point x="210" y="1"/>
      <point x="204" y="-4"/>
      <point x="193" y="-4" type="curve"/>
      <point x="182" y="-4"/>
      <point x="176" y="2"/>
      <point x="176" y="12" type="curve"/>
      <point x="210" y="12"/>
      <point x="176" y="12"/>
    </contour>
  </outline>
</glyph>
<glyph name="at" format="1">
  <advance width="740"/>
  <unicode hex="0040"/>
  <outline>
    <contour>
      <point x="517" y="-95" type="curve"/>
      <point x="470" y="-124"/>
      <point x="434" y="-132"/>
      <point x="379" y="-132" type="curve"/>
      <point x="186" y="-132"/>
      <point x="94" y="-3"/>
      <point x="94" y="197" type="curve"/>
      <point x="94" y="393"/>
      <point x="188" y="522"/>
      <point x="377" y="522" type="curve"/>
      <point x="555" y="522"/>
      <point x="640" y="396"/>
      <point x="640" y="212" type="curve"/>
      <point x="640" y="126"/>
      <point x="630" y="52"/>
      <point x="571" y="52" type="curve"/>
      <point x="506" y="52"/>
      <point x="496" y="121"/>
      <point x="496" y="202" type="curve"/>
      <point x="496" y="303"/>
      <point x="458" y="375"/>
      <point x="365" y="375" type="curve"/>
      <point x="268" y="375"/>
      <point x="225" y="305"/>
      <point x="225" y="203" type="curve"/>
      <point x="225" y="95"/>
      <point x="263" y="19"/>
      <point x="362" y="19" type="curve"/>
      <point x="452" y="19"/>
      <point x="479" y="94"/>
      <point x="491" y="192" type="curve"/>
      <point x="476" y="195"/>
      <point x="491" y="192"/>
      <point x="476" y="195" type="curve"/>
      <point x="459" y="114"/>
      <point x="437" y="42"/>
      <point x="365" y="42" type="curve"/>
      <point x="278" y="42"/>
      <point x="249" y="110"/>
      <point x="249" y="204" type="curve"/>
      <point x="249" y="292"/>
      <point x="281" y="352"/>
      <point x="362" y="352" type="curve"/>
      <point x="444" y="352"/>
      <point x="473" y="289"/>
      <point x="473" y="201" type="curve"/>
      <point x="473" y="108"/>
      <point x="486" y="31"/>
      <point x="569" y="31" type="curve"/>
      <point x="655" y="31"/>
      <point x="665" y="113"/>
      <point x="665" y="213" type="curve"/>
      <point x="665" y="414"/>
      <point x="574" y="546"/>
      <point x="379" y="546" type="curve"/>
      <point x="172" y="546"/>
      <point x="69" y="410"/>
      <point x="69" y="196" type="curve"/>
      <point x="69" y="-18"/>
      <point x="171" y="-155"/>
      <point x="377" y="-155" type="curve"/>
      <point x="438" y="-155"/>
      <point x="478" y="-146"/>
      <point x="528" y="-116" type="curve"/>
      <point x="517" y="-95"/>
      <point x="528" y="-116"/>
    </contour>
  </outline>
</glyph>
<glyph name="A" format="1">
  <advance width="556"/>
  <unicode hex="0041"/>
  <outline>
    <contour>
      <point x="428" y="277" type="curve"/>
      <point x="326" y="277"/>
      <point x="225" y="277"/>
      <point x="124" y="277" type="curve"/>
      <point x="114" y="253"/>
      <point x="124" y="277"/>
      <point x="114" y="253" type="curve"/>
      <point x="221" y="253"/>
      <point x="328" y="253"/>
      <point x="436" y="253" type="curve"/>
      <point x="428" y="277"/>
      <point x="436" y="253"/>
    </contour>
    <contour>
      <point x="531" y="0" type="curve"/>
      <point x="452" y="241"/>
      <point x="374" y="481"/>
      <point x="295" y="722" type="curve"/>
      <point x="272" y="722"/>
      <point x="295" y="722"/>
      <point x="272" y="722" type="curve"/>
      <point x="349" y="481"/>
      <point x="427" y="241"/>
      <point x="504" y="0" type="curve"/>
      <point x="531" y="0"/>
      <point x="504" y="0"/>
    </contour>
    <contour>
      <point x="34" y="0" type="curve"/>
      <point x="120" y="241"/>
      <point x="206" y="481"/>
      <point x="293" y="722" type="curve"/>
      <point x="270" y="722"/>
      <point x="293" y="722"/>
      <point x="270" y="722" type="curve"/>
      <point x="182" y="481"/>
      <point x="94" y="241"/>
      <point x="6" y="0" type="curve"/>
      <point x="34" y="0"/>
      <point x="6" y="0"/>
    </contour>
    <contour>
      <point x="282" y="825" type="move" name="top"/>
    </contour>
    <contour>
      <point x="530" y="0" type="move" name="bottom"/>
    </contour>
  </outline>
</glyph>
<glyph name="B" format="1">
  <advance width="568"/>
  <unicode hex="0042"/>
  <outline>
    <contour>
      <point x="132" y="699" type="curve"/>
      <point x="191" y="699"/>
      <point x="238" y="699"/>
      <point x="296" y="699" type="curve"/>
      <point x="384" y="699"/>
      <point x="436" y="645"/>
      <point x="436" y="555" type="curve"/>
      <point x="436" y="467"/>
      <point x="374" y="421"/>
      <point x="286" y="421" type="curve"/>
      <point x="230" y="421"/>
      <point x="187" y="421"/>
      <point x="132" y="421" type="curve"/>
      <point x="132" y="409"/>
      <point x="132" y="411"/>
      <point x="132" y="398" type="curve"/>
      <point x="183" y="398"/>
      <point x="225" y="398"/>
      <point x="275" y="398" type="curve"/>
      <point x="384" y="398"/>
      <point x="462" y="450"/>
      <point x="462" y="555" type="curve"/>
      <point x="462" y="659"/>
      <point x="400" y="722"/>
      <point x="296" y="722" type="curve"/>
      <point x="238" y="722"/>
      <point x="191" y="722"/>
      <point x="132" y="722" type="curve"/>
      <point x="132" y="710"/>
      <point x="132" y="711"/>
    </contour>
    <contour>
      <point x="154" y="0" type="curve"/>
      <point x="154" y="241"/>
      <point x="154" y="481"/>
      <point x="154" y="722" type="curve"/>
      <point x="127" y="722"/>
      <point x="154" y="722"/>
      <point x="127" y="722" type="curve"/>
      <point x="127" y="481"/>
      <point x="128" y="241"/>
      <point x="127" y="0" type="curve"/>
      <point x="154" y="0"/>
      <point x="127" y="0"/>
    </contour>
    <contour>
      <point x="132" y="398" type="curve"/>
      <point x="187" y="398"/>
      <point x="230" y="398"/>
      <point x="286" y="398" type="curve"/>
      <point x="406" y="398"/>
      <point x="477" y="328"/>
      <point x="477" y="204" type="curve"/>
      <point x="477" y="90"/>
      <point x="411" y="23"/>
      <point x="296" y="23" type="curve"/>
      <point x="237" y="23"/>
      <point x="191" y="23"/>
      <point x="132" y="23" type="curve"/>
      <point x="132" y="11"/>
      <point x="132" y="12"/>
      <point x="132" y="0" type="curve"/>
      <point x="191" y="0"/>
      <point x="237" y="0"/>
      <point x="296" y="0" type="curve"/>
      <point x="426" y="0"/>
      <point x="503" y="75"/>
      <point x="503" y="204" type="curve"/>
      <point x="503" y="345"/>
      <point x="416" y="421"/>
      <point x="276" y="421" type="curve"/>
      <point x="226" y="421"/>
      <point x="183" y="421"/>
      <point x="132" y="421" type="curve"/>
      <point x="132" y="409"/>
      <point x="132" y="411"/>
    </contour>
  </outline>
</glyph>
<glyph name="C" format="1">
  <advance width="605"/>
  <unicode hex="0043"/>
  <outline>
    <contour>
      <point x="553" y="655" type="curve"/>
      <point x="496" y="695"/>
      <point x="431" y="727"/>
      <point x="355" y="727" type="curve"/>
      <point x="151" y="727"/>
      <point x="72" y="568"/>
      <point x="72" y="344" type="curve"/>
      <point x="72" y="139"/>
      <point x="147" y="-5"/>
      <point x="336" y="-5" type="curve"/>
      <point x="437" y="-5"/>
      <point x="498" y="32"/>
      <point x="570" y="96" type="curve"/>
      <point x="553" y="114"/>
      <point x="569" y="96"/>
      <point x="553" y="114" type="curve"/>
      <point x="488" y="54"/>
      <point x="429" y="21"/>
      <point x="337" y="21" type="curve"/>
      <point x="164" y="21"/>
      <point x="97" y="156"/>
      <point x="97" y="345" type="curve"/>
      <point x="97" y="551"/>
      <point x="169" y="702"/>
      <point x="354" y="702" type="curve"/>
      <point x="425" y="702"/>
      <point x="487" y="675"/>
      <point x="539" y="637" type="curve"/>
      <point x="553" y="655"/>
      <point x="539" y="637"/>
    </contour>
    <contour>
      <point x="352" y="825" type="move" name="top"/>
    </contour>
    <contour>
      <point x="335" y="-1" type="move" name="bottom"/>
    </contour>
  </outline>
</glyph>
<glyph name="D" format="1">
  <advance width="667"/>
  <unicode hex="0044"/>
  <outline>
    <contour>
      <point x="127" y="722" type="curve"/>
      <point x="127" y="481"/>
      <point x="127" y="241"/>
      <point x="127" y="0" type="curve"/>
      <point x="153" y="0"/>
      <point x="127" y="0"/>
      <point x="153" y="0" type="curve"/>
      <point x="153" y="241"/>
      <point x="153" y="481"/>
      <point x="153" y="722" type="curve"/>
      <point x="127" y="722"/>
      <point x="153" y="722"/>
    </contour>
    <contour>
      <point x="142" y="0" type="curve"/>
      <point x="198" y="0"/>
      <point x="243" y="0"/>
      <point x="300" y="0" type="curve"/>
      <point x="503" y="0"/>
      <point x="593" y="140"/>
      <point x="593" y="354" type="curve"/>
      <point x="593" y="577"/>
      <point x="499" y="722"/>
      <point x="289" y="722" type="curve"/>
      <point x="236" y="722"/>
      <point x="194" y="722"/>
      <point x="142" y="722" type="curve"/>
      <point x="142" y="709"/>
      <point x="142" y="712"/>
      <point x="142" y="699" type="curve"/>
      <point x="194" y="699"/>
      <point x="235" y="699"/>
      <point x="288" y="699" type="curve"/>
      <point x="483" y="699"/>
      <point x="568" y="562"/>
      <point x="568" y="354" type="curve"/>
      <point x="568" y="155"/>
      <point x="489" y="23"/>
      <point x="302" y="23" type="curve"/>
      <point x="245" y="23"/>
      <point x="199" y="23"/>
      <point x="142" y="23" type="curve"/>
      <point x="142" y="10"/>
      <point x="142" y="13"/>
    </contour>
    <contour>
      <point x="272" y="824" type="move" name="top"/>
    </contour>
  </outline>
</glyph>
<glyph name="F" format="1">
  <advance width="510"/>
  <unicode hex="0046"/>
  <outline>
    <contour>
      <point x="144" y="363" type="curve"/>
      <point x="238" y="363"/>
      <point x="331" y="363"/>
      <point x="425" y="363" type="curve"/>
      <point x="425" y="385"/>
      <point x="425" y="363"/>
      <point x="425" y="385" type="curve"/>
      <point x="331" y="385"/>
      <point x="238" y="385"/>
      <point x="144" y="385" type="curve"/>
      <point x="144" y="363"/>
      <point x="144" y="385"/>
    </contour>
    <contour>
      <point x="153" y="0" type="curve"/>
      <point x="153" y="722" type="line"/>
      <point x="128" y="722"/>
      <point x="153" y="722"/>
      <point x="128" y="722" type="curve"/>
      <point x="128" y="481"/>
      <point x="128" y="241"/>
      <point x="128" y="0" type="curve"/>
      <point x="153" y="0"/>
      <point x="128" y="0"/>
    </contour>
    <contour>
      <point x="131" y="699" type="curve"/>
      <point x="250" y="699"/>
      <point x="369" y="699"/>
      <point x="489" y="699" type="curve"/>
      <point x="489" y="722"/>
      <point x="489" y="699"/>
      <point x="489" y="722" type="curve"/>
      <point x="369" y="722"/>
      <point x="250" y="722"/>
      <point x="131" y="722" type="curve"/>
      <point x="131" y="699"/>
      <point x="131" y="722"/>
    </contour>
  </outline>
</glyph>
<glyph name="G" format="1">
  <advance width="694"/>
  <unicode hex="0047"/>
  <outline>
    <contour>
      <point x="610" y="320" type="curve"/>
      <point x="546" y="320"/>
      <point x="482" y="320"/>
      <point x="418" y="320" type="curve"/>
      <point x="418" y="297"/>
      <point x="418" y="320"/>
      <point x="418" y="297" type="curve"/>
      <point x="482" y="297"/>
      <point x="546" y="297"/>
      <point x="610" y="297" type="curve"/>
      <point x="610" y="320"/>
      <point x="610" y="297"/>
    </contour>
    <contour>
      <point x="619" y="77" type="curve"/>
      <point x="619" y="158"/>
      <point x="619" y="238"/>
      <point x="619" y="320" type="curve"/>
      <point x="595" y="320"/>
      <point x="619" y="320"/>
      <point x="595" y="320" type="curve"/>
      <point x="595" y="238"/>
      <point x="595" y="158"/>
      <point x="595" y="77" type="curve"/>
      <point x="619" y="77"/>
      <point x="595" y="77"/>
    </contour>
    <contour>
      <point x="604" y="642" type="curve"/>
      <point x="528" y="698"/>
      <point x="456" y="727"/>
      <point x="361" y="727" type="curve"/>
      <point x="160" y="727"/>
      <point x="72" y="581"/>
      <point x="72" y="365" type="curve"/>
      <point x="72" y="143"/>
      <point x="164" y="-5"/>
      <point x="371" y="-5" type="curve"/>
      <point x="472" y="-5"/>
      <point x="535" y="23"/>
      <point x="619" y="77" type="curve"/>
      <point x="604" y="97"/>
      <point x="619" y="77"/>
      <point x="604" y="97" type="curve"/>
      <point x="537" y="51"/>
      <point x="465" y="20"/>
      <point x="371" y="20" type="curve"/>
      <point x="178" y="20"/>
      <point x="98" y="160"/>
      <point x="98" y="367" type="curve"/>
      <point x="98" y="564"/>
      <point x="177" y="702"/>
      <point x="361" y="702" type="curve"/>
      <point x="451" y="702"/>
      <point x="519" y="675"/>
      <point x="591" y="623" type="curve"/>
      <point x="604" y="642"/>
      <point x="591" y="623"/>
    </contour>
    <contour>
      <point x="360" y="825" type="move" name="top"/>
    </contour>
    <contour>
      <point x="374" y="-57" type="move" name="bottom"/>
    </contour>
  </outline>
</glyph>
<glyph name="J" format="1">
  <advance width="403"/>
  <unicode hex="004A"/>
  <outline>
    <contour>
      <point x="16" y="39" type="curve"/>
      <point x="44" y="16"/>
      <point x="79" y="-4"/>
      <point x="125" y="-4" type="curve"/>
      <point x="243" y="-4"/>
      <point x="285" y="81"/>
      <point x="285" y="216" type="curve"/>
      <point x="285" y="401"/>
      <point x="285" y="537"/>
      <point x="285" y="722" type="curve"/>
      <point x="270" y="722"/>
      <point x="274" y="722"/>
      <point x="259" y="722" type="curve"/>
      <point x="259" y="537"/>
      <point x="259" y="401"/>
      <point x="259" y="216" type="curve"/>
      <point x="259" y="102"/>
      <point x="228" y="19"/>
      <point x="125" y="19" type="curve"/>
      <point x="84" y="19"/>
      <point x="57" y="38"/>
      <point x="29" y="57" type="curve"/>
      <point x="22" y="47"/>
      <point x="23" y="49"/>
    </contour>
  </outline>
</glyph>
<glyph name="K" format="1">
  <advance width="496"/>
  <unicode hex="004B"/>
  <outline>
    <contour>
      <point x="437" y="722" type="curve"/>
      <point x="138" y="380" type="line"/>
      <point x="175" y="380"/>
      <point x="136" y="380"/>
      <point x="173" y="380" type="curve"/>
      <point x="473" y="722" type="line"/>
      <point x="434" y="722"/>
      <point x="475" y="722"/>
    </contour>
    <contour>
      <point x="153" y="0" type="curve"/>
      <point x="153" y="722" type="line"/>
      <point x="127" y="722"/>
      <point x="153" y="722"/>
      <point x="127" y="722" type="curve"/>
      <point x="127" y="481"/>
      <point x="127" y="241"/>
      <point x="127" y="0" type="curve"/>
      <point x="153" y="0"/>
      <point x="127" y="0"/>
    </contour>
    <contour>
      <point x="493" y="0" type="curve"/>
      <point x="173" y="380" type="line"/>
      <point x="136" y="380"/>
      <point x="175" y="380"/>
      <point x="138" y="380" type="curve"/>
      <point x="456" y="0" type="line"/>
      <point x="495" y="0"/>
      <point x="455" y="0"/>
    </contour>
    <contour>
      <point x="336" y="-58" type="move" name="bottom"/>
    </contour>
  </outline>
</glyph>
<glyph name="L" format="1">
  <advance width="518"/>
  <unicode hex="004C"/>
  <outline>
    <contour>
      <point x="153" y="0" type="curve"/>
      <point x="153" y="241"/>
      <point x="153" y="481"/>
      <point x="153" y="722" type="curve"/>
      <point x="127" y="722"/>
      <point x="153" y="722"/>
      <point x="127" y="722" type="curve"/>
      <point x="127" y="481"/>
      <point x="127" y="241"/>
      <point x="127" y="0" type="curve"/>
      <point x="153" y="0"/>
      <point x="127" y="0"/>
    </contour>
    <contour>
      <point x="139" y="0" type="curve"/>
      <point x="262" y="0"/>
      <point x="385" y="0"/>
      <point x="508" y="0" type="curve"/>
      <point x="508" y="23"/>
      <point x="508" y="0"/>
      <point x="508" y="23" type="curve"/>
      <point x="385" y="23"/>
      <point x="262" y="23"/>
      <point x="139" y="23" type="curve"/>
      <point x="139" y="0"/>
      <point x="139" y="23"/>
    </contour>
    <contour>
      <point x="141" y="825" type="move" name="top"/>
    </contour>
    <contour>
      <point x="286" y="-57" type="move" name="bottom"/>
    </contour>
  </outline>
</glyph>
<glyph name="M" format="1">
  <advance width="806"/>
  <unicode hex="004D"/>
  <outline>
    <contour>
      <point x="717" y="0" type="curve"/>
      <point x="699" y="241"/>
      <point x="681" y="481"/>
      <point x="663" y="722" type="curve"/>
      <point x="640" y="722"/>
      <point x="663" y="722"/>
      <point x="640" y="722" type="curve"/>
      <point x="657" y="481"/>
      <point x="675" y="241"/>
      <point x="692" y="0" type="curve"/>
      <point x="717" y="0"/>
      <point x="692" y="0"/>
    </contour>
    <contour>
      <point x="116" y="0" type="curve"/>
      <point x="133" y="241"/>
      <point x="149" y="481"/>
      <point x="165" y="722" type="curve"/>
      <point x="142" y="722"/>
      <point x="165" y="722"/>
      <point x="142" y="722" type="curve"/>
      <point x="125" y="481"/>
      <point x="108" y="241"/>
      <point x="91" y="0" type="curve"/>
      <point x="116" y="0"/>
      <point x="91" y="0"/>
    </contour>
    <contour>
      <point x="414" y="0" type="curve"/>
      <point x="332" y="241"/>
      <point x="250" y="481"/>
      <point x="168" y="722" type="curve"/>
      <point x="144" y="722"/>
      <point x="168" y="722"/>
      <point x="144" y="722" type="curve"/>
      <point x="226" y="481"/>
      <point x="307" y="241"/>
      <point x="388" y="0" type="curve"/>
      <point x="413" y="0"/>
      <point x="389" y="0"/>
    </contour>
    <contour>
      <point x="422" y="0" type="curve"/>
      <point x="501" y="241"/>
      <point x="581" y="481"/>
      <point x="661" y="722" type="curve"/>
      <point x="638" y="722"/>
      <point x="661" y="722"/>
      <point x="638" y="722" type="curve"/>
      <point x="556" y="481"/>
      <point x="476" y="241"/>
      <point x="395" y="0" type="curve"/>
      <point x="421" y="0"/>
      <point x="395" y="0"/>
    </contour>
  </outline>
</glyph>
<glyph name="N" format="1">
  <advance width="753"/>
  <unicode hex="004E"/>
  <outline>
    <contour>
      <point x="625" y="0" type="curve"/>
      <point x="470" y="241"/>
      <point x="314" y="481"/>
      <point x="158" y="722" type="curve"/>
      <point x="128" y="722"/>
      <point x="158" y="722"/>
      <point x="127" y="722" type="curve"/>
      <point x="283" y="481"/>
      <point x="439" y="241"/>
      <point x="595" y="0" type="curve"/>
      <point x="625" y="0"/>
      <point x="595" y="0"/>
    </contour>
    <contour>
      <point x="600" y="722" type="curve"/>
      <point x="600" y="481"/>
      <point x="600" y="241"/>
      <point x="600" y="0" type="curve"/>
      <point x="626" y="0"/>
      <point x="600" y="0"/>
      <point x="626" y="0" type="curve"/>
      <point x="626" y="241"/>
      <point x="626" y="481"/>
      <point x="626" y="722" type="curve"/>
      <point x="600" y="722"/>
      <point x="626" y="722"/>
    </contour>
    <contour>
      <point x="154" y="0" type="curve"/>
      <point x="154" y="241"/>
      <point x="154" y="481"/>
      <point x="154" y="722" type="curve"/>
      <point x="128" y="722"/>
      <point x="154" y="722"/>
      <point x="128" y="722" type="curve"/>
      <point x="128" y="481"/>
      <point x="128" y="241"/>
      <point x="128" y="0" type="curve"/>
      <point x="154" y="0"/>
      <point x="128" y="0"/>
    </contour>
    <contour>
      <point x="382" y="825" type="move" name="top"/>
    </contour>
    <contour>
      <point x="382" y="-57" type="move" name="bottom"/>
    </contour>
  </outline>
</glyph>
<glyph name="P" format="1">
  <advance width="528"/>
  <unicode hex="0050"/>
  <outline>
    <contour>
      <point x="138" y="325" type="curve"/>
      <point x="181" y="299"/>
      <point x="224" y="280"/>
      <point x="276" y="280" type="curve"/>
      <point x="399" y="282"/>
      <point x="469" y="363"/>
      <point x="469" y="494" type="curve"/>
      <point x="469" y="630"/>
      <point x="389" y="722"/>
      <point x="256" y="722" type="curve"/>
      <point x="218" y="722"/>
      <point x="181" y="722"/>
      <point x="144" y="722" type="curve"/>
      <point x="144" y="699"/>
      <point x="144" y="722"/>
      <point x="144" y="699" type="curve"/>
      <point x="180" y="699"/>
      <point x="216" y="699"/>
      <point x="252" y="699" type="curve"/>
      <point x="374" y="699"/>
      <point x="444" y="616"/>
      <point x="444" y="493" type="curve"/>
      <point x="444" y="381"/>
      <point x="384" y="303"/>
      <point x="278" y="303" type="curve"/>
      <point x="225" y="303"/>
      <point x="191" y="320"/>
      <point x="147" y="346" type="curve"/>
      <point x="138" y="326"/>
      <point x="147" y="346"/>
    </contour>
    <contour>
      <point x="153" y="0" type="curve"/>
      <point x="153" y="241"/>
      <point x="153" y="481"/>
      <point x="153" y="722" type="curve"/>
      <point x="127" y="722"/>
      <point x="153" y="722"/>
      <point x="127" y="722" type="curve"/>
      <point x="127" y="481"/>
      <point x="127" y="241"/>
      <point x="127" y="0" type="curve"/>
      <point x="153" y="0"/>
      <point x="127" y="0"/>
    </contour>
  </outline>
</glyph>
<glyph name="Q" format="1">
  <advance width="762"/>
  <unicode hex="0051"/>
  <outline>
    <contour>
      <point x="334" y="4" type="curve"/>
      <point x="417" y="-163"/>
      <point x="516" y="-240"/>
      <point x="691" y="-240" type="curve"/>
      <point x="691" y="-216"/>
      <point x="691" y="-240"/>
      <point x="691" y="-216" type="curve"/>
      <point x="527" y="-216"/>
      <point x="435" y="-142"/>
      <point x="356" y="16" type="curve"/>
      <point x="334" y="4"/>
      <point x="356" y="16"/>
    </contour>
    <contour>
      <point x="97" y="360" type="curve"/>
      <point x="97" y="551"/>
      <point x="162" y="703"/>
      <point x="337" y="703" type="curve"/>
      <point x="511" y="703"/>
      <point x="578" y="553"/>
      <point x="578" y="363" type="curve"/>
      <point x="578" y="172"/>
      <point x="514" y="20"/>
      <point x="340" y="20" type="curve"/>
      <point x="163" y="20"/>
      <point x="97" y="169"/>
      <point x="97" y="360" type="curve"/>
      <point x="72" y="360"/>
      <point x="97" y="360"/>
      <point x="72" y="360" type="curve"/>
      <point x="72" y="153"/>
      <point x="149" y="-5"/>
      <point x="339" y="-5" type="curve"/>
      <point x="529" y="-5"/>
      <point x="603" y="156"/>
      <point x="603" y="364" type="curve"/>
      <point x="603" y="570"/>
      <point x="527" y="727"/>
      <point x="338" y="727" type="curve"/>
      <point x="148" y="727"/>
      <point x="72" y="567"/>
      <point x="72" y="360" type="curve"/>
      <point x="97" y="360"/>
      <point x="72" y="360"/>
    </contour>
  </outline>
</glyph>
<glyph name="T" format="1">
  <advance width="561"/>
  <unicode hex="0054"/>
  <outline>
    <contour>
      <point x="293" y="0" type="curve"/>
      <point x="293" y="237"/>
      <point x="293" y="473"/>
      <point x="293" y="710" type="curve"/>
      <point x="268" y="710"/>
      <point x="293" y="710"/>
      <point x="268" y="710" type="curve"/>
      <point x="268" y="473"/>
      <point x="268" y="237"/>
      <point x="268" y="0" type="curve"/>
      <point x="293" y="0"/>
      <point x="268" y="0"/>
    </contour>
    <contour>
      <point x="10" y="697" type="curve"/>
      <point x="191" y="697"/>
      <point x="371" y="697"/>
      <point x="551" y="697" type="curve"/>
      <point x="551" y="722"/>
      <point x="551" y="697"/>
      <point x="551" y="722" type="curve"/>
      <point x="371" y="722"/>
      <point x="191" y="722"/>
      <point x="10" y="722" type="curve"/>
      <point x="10" y="697"/>
      <point x="10" y="722"/>
    </contour>
    <contour>
      <point x="280" y="825" type="move" name="top"/>
    </contour>
    <contour>
      <point x="284" y="-58" type="move" name="bottom"/>
    </contour>
  </outline>
</glyph>
<glyph name="V" format="1">
  <advance width="555"/>
  <unicode hex="0056"/>
  <outline>
    <contour>
      <point x="509" y="722" type="curve"/>
      <point x="428" y="481"/>
      <point x="347" y="241"/>
      <point x="267" y="0" type="curve"/>
      <point x="295" y="0"/>
      <point x="267" y="0"/>
      <point x="295" y="0" type="curve"/>
      <point x="376" y="241"/>
      <point x="456" y="481"/>
      <point x="537" y="722" type="curve"/>
      <point x="509" y="722"/>
      <point x="537" y="722"/>
    </contour>
    <contour>
      <point x="15" y="722" type="curve"/>
      <point x="97" y="481"/>
      <point x="179" y="241"/>
      <point x="261" y="0" type="curve"/>
      <point x="290" y="0"/>
      <point x="262" y="0"/>
      <point x="290" y="0" type="curve"/>
      <point x="208" y="241"/>
      <point x="126" y="481"/>
      <point x="44" y="722" type="curve"/>
      <point x="15" y="722"/>
      <point x="44" y="722"/>
    </contour>
  </outline>
</glyph>
<glyph name="W" format="1">
  <advance width="751"/>
  <unicode hex="0057"/>
  <outline>
    <contour>
      <point x="217" y="0" type="curve"/>
      <point x="275" y="241"/>
      <point x="333" y="481"/>
      <point x="392" y="722" type="curve"/>
      <point x="367" y="722"/>
      <point x="393" y="722"/>
      <point x="368" y="722" type="curve"/>
      <point x="311" y="481"/>
      <point x="253" y="241"/>
      <point x="196" y="0" type="curve"/>
      <point x="215" y="0"/>
      <point x="198" y="0"/>
    </contour>
    <contour>
      <point x="375" y="722" type="curve"/>
      <point x="428" y="481"/>
      <point x="480" y="241"/>
      <point x="533" y="0" type="curve"/>
      <point x="552" y="0"/>
      <point x="535" y="0"/>
      <point x="554" y="0" type="curve"/>
      <point x="503" y="241"/>
      <point x="450" y="481"/>
      <point x="398" y="722" type="curve"/>
      <point x="374" y="722"/>
      <point x="399" y="722"/>
    </contour>
    <contour>
      <point x="33" y="722" type="curve"/>
      <point x="86" y="481"/>
      <point x="139" y="241"/>
      <point x="193" y="0" type="curve"/>
      <point x="212" y="0"/>
      <point x="195" y="0"/>
      <point x="214" y="0" type="curve"/>
      <point x="163" y="241"/>
      <point x="111" y="481"/>
      <point x="59" y="722" type="curve"/>
      <point x="33" y="722"/>
      <point x="59" y="722"/>
    </contour>
    <contour>
      <point x="697" y="722" type="curve"/>
      <point x="643" y="481"/>
      <point x="589" y="241"/>
      <point x="536" y="0" type="curve"/>
      <point x="555" y="0"/>
      <point x="538" y="0"/>
      <point x="557" y="0" type="curve"/>
      <point x="613" y="241"/>
      <point x="668" y="481"/>
      <point x="724" y="722" type="curve"/>
      <point x="697" y="722"/>
      <point x="724" y="722"/>
    </contour>
  </outline>
</glyph>
<glyph name="X" format="1">
  <advance width="505"/>
  <unicode hex="0058"/>
  <outline>
    <contour>
      <point x="442" y="722" type="curve"/>
      <point x="296" y="481"/>
      <point x="151" y="241"/>
      <point x="6" y="0" type="curve"/>
      <point x="39" y="0"/>
      <point x="6" y="0"/>
      <point x="39" y="0" type="curve"/>
      <point x="184" y="241"/>
      <point x="327" y="481"/>
      <point x="472" y="722" type="curve"/>
      <point x="442" y="722"/>
      <point x="472" y="722"/>
    </contour>
    <contour>
      <point x="34" y="722" type="curve"/>
      <point x="177" y="481"/>
      <point x="320" y="241"/>
      <point x="463" y="0" type="curve"/>
      <point x="496" y="0"/>
      <point x="463" y="0"/>
      <point x="496" y="0" type="curve"/>
      <point x="352" y="241"/>
      <point x="208" y="481"/>
      <point x="65" y="722" type="curve"/>
      <point x="34" y="722"/>
      <point x="65" y="722"/>
    </contour>
  </outline>
</glyph>
<glyph name="Y" format="1">
  <advance width="487"/>
  <unicode hex="0059"/>
  <outline>
    <contour>
      <point x="26" y="722" type="curve"/>
      <point x="94" y="594"/>
      <point x="163" y="465"/>
      <point x="231" y="337" type="curve"/>
      <point x="259" y="337"/>
      <point x="231" y="338"/>
      <point x="258" y="338" type="curve"/>
      <point x="190" y="466"/>
      <point x="122" y="594"/>
      <point x="55" y="722" type="curve"/>
      <point x="26" y="722"/>
      <point x="55" y="722"/>
    </contour>
    <contour>
      <point x="446" y="722" type="curve"/>
      <point x="375" y="594"/>
      <point x="303" y="466"/>
      <point x="231" y="338" type="curve"/>
      <point x="259" y="338"/>
      <point x="231" y="337"/>
      <point x="258" y="337" type="curve"/>
      <point x="331" y="465"/>
      <point x="403" y="594"/>
      <point x="475" y="722" type="curve"/>
      <point x="446" y="722"/>
      <point x="475" y="722"/>
    </contour>
    <contour>
      <point x="258" y="0" type="curve"/>
      <point x="258" y="115"/>
      <point x="258" y="231"/>
      <point x="258" y="346" type="curve"/>
      <point x="231" y="346"/>
      <point x="258" y="346"/>
      <point x="231" y="346" type="curve"/>
      <point x="231" y="231"/>
      <point x="231" y="115"/>
      <point x="231" y="0" type="curve"/>
      <point x="258" y="0"/>
      <point x="231" y="0"/>
    </contour>
    <contour>
      <point x="247" y="825" type="move" name="top"/>
    </contour>
  </outline>
</glyph>
<glyph name="bracketleft" format="1">
  <advance width="263"/>
  <unicode hex="005B"/>
  <outline>
    <contour>
      <point x="236" y="771" type="curve"/>
      <point x="192" y="771"/>
      <point x="147" y="771"/>
      <point x="102" y="771" type="curve"/>
      <point x="100" y="771"/>
      <point x="98" y="771"/>
      <point x="96" y="771" type="curve"/>
      <point x="96" y="769"/>
      <point x="96" y="767"/>
      <point x="96" y="764" type="curve"/>
      <point x="96" y="470"/>
      <point x="96" y="175"/>
      <point x="96" y="-119" type="curve"/>
      <point x="96" y="-121"/>
      <point x="96" y="-123"/>
      <point x="96" y="-124" type="curve"/>
      <point x="97" y="-124"/>
      <point x="100" y="-124"/>
      <point x="101" y="-124" type="curve"/>
      <point x="146" y="-124"/>
      <point x="191" y="-124"/>
      <point x="236" y="-124" type="curve"/>
      <point x="236" y="-99"/>
      <point x="236" y="-124"/>
      <point x="236" y="-99" type="curve"/>
      <point x="191" y="-99"/>
      <point x="146" y="-99"/>
      <point x="101" y="-99" type="curve"/>
      <point x="121" y="-99"/>
      <point x="101" y="-99"/>
      <point x="121" y="-99" type="curve"/>
      <point x="121" y="-119"/>
      <point x="121" y="-99"/>
      <point x="121" y="-119" type="curve"/>
      <point x="121" y="175"/>
      <point x="121" y="470"/>
      <point x="121" y="764" type="curve"/>
      <point x="121" y="746"/>
      <point x="121" y="764"/>
      <point x="121" y="746" type="curve"/>
      <point x="102" y="746"/>
      <point x="121" y="746"/>
      <point x="102" y="746" type="curve"/>
      <point x="147" y="746"/>
      <point x="192" y="746"/>
      <point x="236" y="746" type="curve"/>
      <point x="236" y="771"/>
      <point x="236" y="746"/>
    </contour>
  </outline>
</glyph>
<glyph name="backslash" format="1">
  <advance width="434"/>
  <unicode hex="005C"/>
  <outline>
    <contour>
      <point x="402" y="-68" type="curve"/>
      <point x="288" y="236"/>
      <point x="174" y="540"/>
      <point x="60" y="844" type="curve"/>
      <point x="33" y="844"/>
      <point x="60" y="844"/>
      <point x="33" y="844" type="curve"/>
      <point x="147" y="540"/>
      <point x="261" y="236"/>
      <point x="375" y="-68" type="curve"/>
      <point x="402" y="-68"/>
      <point x="375" y="-68"/>
    </contour>
  </outline>
</glyph>
<glyph name="bracketright" format="1">
  <advance width="263"/>
  <unicode hex="005D"/>
  <outline>
    <contour>
      <point x="27" y="746" type="curve"/>
      <point x="72" y="746"/>
      <point x="116" y="746"/>
      <point x="161" y="746" type="curve"/>
      <point x="158" y="749"/>
      <point x="154" y="751"/>
      <point x="152" y="755" type="curve"/>
      <point x="148" y="758"/>
      <point x="145" y="761"/>
      <point x="142" y="764" type="curve"/>
      <point x="142" y="470"/>
      <point x="142" y="175"/>
      <point x="142" y="-119" type="curve"/>
      <point x="145" y="-116"/>
      <point x="149" y="-112"/>
      <point x="153" y="-108" type="curve"/>
      <point x="155" y="-105"/>
      <point x="159" y="-103"/>
      <point x="162" y="-99" type="curve"/>
      <point x="117" y="-99"/>
      <point x="72" y="-99"/>
      <point x="27" y="-99" type="curve"/>
      <point x="27" y="-124"/>
      <point x="27" y="-99"/>
      <point x="27" y="-124" type="curve"/>
      <point x="72" y="-124"/>
      <point x="117" y="-124"/>
      <point x="162" y="-124" type="curve"/>
      <point x="168" y="-124"/>
      <point x="162" y="-124"/>
      <point x="168" y="-124" type="curve"/>
      <point x="168" y="-119"/>
      <point x="168" y="-124"/>
      <point x="168" y="-119" type="curve"/>
      <point x="168" y="175"/>
      <point x="168" y="470"/>
      <point x="168" y="764" type="curve"/>
      <point x="168" y="771"/>
      <point x="168" y="764"/>
      <point x="168" y="771" type="curve"/>
      <point x="161" y="771"/>
      <point x="168" y="771"/>
      <point x="161" y="771" type="curve"/>
      <point x="116" y="771"/>
      <point x="72" y="771"/>
      <point x="27" y="771" type="curve"/>
      <point x="27" y="746"/>
      <point x="27" y="771"/>
    </contour>
  </outline>
</glyph>
<glyph name="asciicircum" format="1">
  <advance width="455"/>
  <unicode hex="005E"/>
  <outline>
    <contour>
      <point x="87" y="466" type="curve"/>
      <point x="138" y="581"/>
      <point x="189" y="695"/>
      <point x="239" y="809" type="curve"/>
      <point x="214" y="809"/>
      <point x="239" y="809"/>
      <point x="214" y="809" type="curve"/>
      <point x="163" y="695"/>
      <point x="112" y="581"/>
      <point x="62" y="466" type="curve"/>
      <point x="87" y="466"/>
      <point x="62" y="466"/>
    </contour>
    <contour>
      <point x="394" y="466" type="curve"/>
      <point x="344" y="577"/>
      <point x="289" y="699"/>
      <point x="240" y="809" type="curve"/>
      <point x="215" y="809"/>
      <point x="239" y="809"/>
      <point x="214" y="809" type="curve"/>
      <point x="264" y="699"/>
      <point x="318" y="577"/>
      <point x="368" y="466" type="curve"/>
      <point x="393" y="466"/>
      <point x="369" y="466"/>
    </contour>
  </outline>
</glyph>
<glyph name="underscore" format="1">
  <advance width="595"/>
  <unicode hex="005F"/>
  <outline>
    <contour>
      <point x="0" y="-210" type="curve"/>
      <point x="198" y="-210"/>
      <point x="396" y="-210"/>
      <point x="594" y="-210" type="curve"/>
      <point x="594" y="-187"/>
      <point x="594" y="-210"/>
      <point x="594" y="-187" type="curve"/>
      <point x="396" y="-187"/>
      <point x="198" y="-187"/>
      <point x="0" y="-187" type="curve"/>
      <point x="0" y="-210"/>
      <point x="0" y="-187"/>
    </contour>
  </outline>
</glyph>
<glyph name="grave" format="1">
  <advance width="274"/>
  <unicode hex="0060"/>
  <outline>
    <contour>
      <point x="267" y="590" type="line"/>
      <point x="168" y="756" type="line"/>
      <point x="134" y="756" type="line"/>
      <point x="240" y="590" type="line"/>
    </contour>
    <contour>
      <point x="251" y="590" type="move" name="_top"/>
    </contour>
  </outline>
</glyph>
<glyph name="b" format="1">
  <advance width="569"/>
  <unicode hex="0062"/>
  <outline>
    <contour>
      <point x="128" y="405" type="curve"/>
      <point x="155" y="453"/>
      <point x="221" y="515"/>
      <point x="303" y="515" type="curve"/>
      <point x="423" y="515"/>
      <point x="477" y="404"/>
      <point x="477" y="267" type="curve"/>
      <point x="477" y="136"/>
      <point x="417" y="17"/>
      <point x="303" y="18" type="curve"/>
      <point x="230" y="18"/>
      <point x="172" y="63"/>
      <point x="130" y="130" type="curve"/>
      <point x="113" y="116"/>
      <point x="132" y="126"/>
      <point x="115" y="112" type="curve"/>
      <point x="160" y="42"/>
      <point x="220" y="-5"/>
      <point x="303" y="-5" type="curve"/>
      <point x="441" y="-5"/>
      <point x="502" y="115"/>
      <point x="502" y="268" type="curve"/>
      <point x="502" y="417"/>
      <point x="443" y="538"/>
      <point x="304" y="538" type="curve"/>
      <point x="213" y="538"/>
      <point x="145" y="480"/>
      <point x="116" y="427" type="curve"/>
      <point x="128" y="410"/>
      <point x="116" y="422"/>
    </contour>
    <contour>
      <point x="134" y="0" type="curve"/>
      <point x="134" y="267"/>
      <point x="134" y="533"/>
      <point x="134" y="800" type="curve"/>
      <point x="109" y="800"/>
      <point x="133" y="800"/>
      <point x="108" y="800" type="curve"/>
      <point x="108" y="533"/>
      <point x="108" y="267"/>
      <point x="108" y="0" type="curve"/>
      <point x="133" y="0"/>
      <point x="109" y="0"/>
    </contour>
  </outline>
</glyph>
<glyph name="d" format="1">
  <advance width="572"/>
  <unicode hex="0064"/>
  <outline>
    <contour>
      <point x="457" y="441" type="curve"/>
      <point x="421" y="499"/>
      <point x="358" y="538"/>
      <point x="281" y="538" type="curve"/>
      <point x="136" y="538"/>
      <point x="66" y="418"/>
      <point x="66" y="264" type="curve"/>
      <point x="66" y="111"/>
      <point x="139" y="-5"/>
      <point x="283" y="-5" type="curve"/>
      <point x="366" y="-5"/>
      <point x="420" y="46"/>
      <point x="457" y="126" type="curve"/>
      <point x="442" y="142"/>
      <point x="457" y="126"/>
      <point x="442" y="142" type="curve"/>
      <point x="406" y="67"/>
      <point x="355" y="18"/>
      <point x="282" y="18" type="curve"/>
      <point x="155" y="18"/>
      <point x="91" y="126"/>
      <point x="91" y="265" type="curve"/>
      <point x="91" y="405"/>
      <point x="154" y="515"/>
      <point x="282" y="515" type="curve"/>
      <point x="348" y="515"/>
      <point x="409" y="480"/>
      <point x="442" y="424" type="curve"/>
      <point x="457" y="441"/>
      <point x="442" y="424"/>
    </contour>
    <contour>
      <point x="463" y="0" type="curve"/>
      <point x="463" y="267"/>
      <point x="463" y="533"/>
      <point x="463" y="800" type="curve"/>
      <point x="436" y="800"/>
      <point x="463" y="800"/>
      <point x="436" y="800" type="curve"/>
      <point x="436" y="533"/>
      <point x="436" y="267"/>
      <point x="436" y="0" type="curve"/>
      <point x="463" y="0"/>
      <point x="436" y="0"/>
    </contour>
  </outline>
</glyph>
<glyph name="f" format="1">
  <advance width="391"/>
  <unicode hex="0066"/>
  <outline>
    <contour>
      <point x="22" y="510" type="curve"/>
      <point x="365" y="510" type="line"/>
      <point x="365" y="533"/>
      <point x="365" y="510"/>
      <point x="365" y="533" type="curve"/>
      <point x="22" y="533" type="line"/>
      <point x="22" y="510"/>
      <point x="22" y="533"/>
    </contour>
    <contour>
      <point x="196" y="0" type="curve"/>
      <point x="196" y="640" type="line"/>
      <point x="196" y="722"/>
      <point x="230" y="783"/>
      <point x="303" y="783" type="curve"/>
      <point x="334" y="783"/>
      <point x="362" y="772"/>
      <point x="388" y="758" type="curve"/>
      <point x="398" y="776"/>
      <point x="388" y="758"/>
      <point x="398" y="776" type="curve"/>
      <point x="369" y="792"/>
      <point x="336" y="805"/>
      <point x="303" y="805" type="curve"/>
      <point x="215" y="805"/>
      <point x="170" y="734"/>
      <point x="171" y="640" type="curve"/>
      <point x="171" y="0" type="line"/>
      <point x="196" y="0"/>
      <point x="171" y="0"/>
    </contour>
  </outline>
</glyph>
<glyph name="g" format="1">
  <advance width="443"/>
  <unicode hex="0067"/>
  <outline>
    <contour>
      <point x="304" y="499" type="curve"/>
      <point x="434" y="579" type="line"/>
      <point x="424" y="592"/>
      <point x="430" y="585"/>
      <point x="420" y="599" type="curve"/>
      <point x="291" y="517" type="line"/>
      <point x="304" y="499"/>
      <point x="291" y="517"/>
    </contour>
    <contour>
      <point x="79" y="358" type="curve"/>
      <point x="79" y="448"/>
      <point x="131" y="516"/>
      <point x="219" y="516" type="curve"/>
      <point x="308" y="516"/>
      <point x="356" y="451"/>
      <point x="356" y="361" type="curve"/>
      <point x="356" y="275"/>
      <point x="306" y="210"/>
      <point x="218" y="210" type="curve"/>
      <point x="132" y="210"/>
      <point x="79" y="271"/>
      <point x="79" y="358" type="curve"/>
      <point x="53" y="357"/>
      <point x="79" y="358"/>
      <point x="53" y="357" type="curve"/>
      <point x="53" y="256"/>
      <point x="116" y="189"/>
      <point x="216" y="189" type="curve"/>
      <point x="318" y="189"/>
      <point x="382" y="258"/>
      <point x="382" y="362" type="curve"/>
      <point x="382" y="465"/>
      <point x="321" y="538"/>
      <point x="219" y="538" type="curve"/>
      <point x="115" y="538"/>
      <point x="53" y="463"/>
      <point x="53" y="357" type="curve"/>
      <point x="79" y="358"/>
      <point x="53" y="357"/>
    </contour>
    <contour>
      <point x="123" y="228" type="curve"/>
      <point x="81" y="198"/>
      <point x="57" y="162"/>
      <point x="57" y="109" type="curve"/>
      <point x="57" y="29"/>
      <point x="127" y="-4"/>
      <point x="213" y="-13" type="curve"/>
      <point x="316" y="-23"/>
      <point x="406" y="-51"/>
      <point x="406" y="-144" type="curve"/>
      <point x="406" y="-237"/>
      <point x="321" y="-282"/>
      <point x="215" y="-282" type="curve"/>
      <point x="115" y="-282"/>
      <point x="40" y="-228"/>
      <point x="40" y="-134" type="curve"/>
      <point x="40" y="-66"/>
      <point x="74" y="-20"/>
      <point x="134" y="10" type="curve"/>
      <point x="123" y="25"/>
      <point x="134" y="10"/>
      <point x="123" y="25" type="curve"/>
      <point x="55" y="-9"/>
      <point x="15" y="-59"/>
      <point x="15" y="-135" type="curve"/>
      <point x="15" y="-244"/>
      <point x="99" y="-304"/>
      <point x="214" y="-304" type="curve"/>
      <point x="334" y="-304"/>
      <point x="431" y="-254"/>
      <point x="429" y="-142" type="curve"/>
      <point x="429" y="-37"/>
      <point x="331" y="-3"/>
      <point x="218" y="9" type="curve"/>
      <point x="143" y="14"/>
      <point x="82" y="42"/>
      <point x="82" y="112" type="curve"/>
      <point x="82" y="157"/>
      <point x="100" y="188"/>
      <point x="137" y="214" type="curve"/>
      <point x="123" y="228"/>
      <point x="137" y="214"/>
    </contour>
    <contour>
      <point x="219" y="670" type="move" name="top"/>
    </contour>
  </outline>
</glyph>
<glyph name="h" format="1">
  <advance width="559"/>
  <unicode hex="0068"/>
  <outline>
    <contour>
      <point x="128" y="353" type="curve"/>
      <point x="151" y="434"/>
      <point x="218" y="515"/>
      <point x="304" y="515" type="curve"/>
      <point x="400" y="515"/>
      <point x="433" y="443"/>
      <point x="433" y="341" type="curve"/>
      <point x="433" y="228"/>
      <point x="433" y="114"/>
      <point x="433" y="0" type="curve"/>
      <point x="459" y="0"/>
      <point x="433" y="0"/>
      <point x="459" y="0" type="curve"/>
      <point x="459" y="115"/>
      <point x="459" y="229"/>
      <point x="459" y="344" type="curve"/>
      <point x="459" y="460"/>
      <point x="416" y="538"/>
      <point x="308" y="538" type="curve"/>
      <point x="212" y="538"/>
      <point x="136" y="460"/>
      <point x="115" y="368" type="curve"/>
      <point x="130" y="355"/>
      <point x="113" y="366"/>
    </contour>
    <contour>
      <point x="134" y="0" type="curve"/>
      <point x="134" y="267"/>
      <point x="134" y="533"/>
      <point x="134" y="800" type="curve"/>
      <point x="108" y="800"/>
      <point x="134" y="800"/>
      <point x="108" y="800" type="curve"/>
      <point x="108" y="533"/>
      <point x="108" y="267"/>
      <point x="108" y="0" type="curve"/>
      <point x="134" y="0"/>
      <point x="108" y="0"/>
    </contour>
  </outline>
</glyph>
<glyph name="j" format="1">
  <advance width="221"/>
  <unicode hex="006A"/>
  <outline>
    <contour>
      <point x="-41" y="-301" type="curve"/>
      <point x="-34" y="-302"/>
      <point x="-24" y="-304"/>
      <point x="-14" y="-304" type="curve"/>
      <point x="73" y="-304"/>
      <point x="127" y="-234"/>
      <point x="127" y="-142" type="curve"/>
      <point x="127" y="83"/>
      <point x="127" y="308"/>
      <point x="127" y="533" type="curve"/>
      <point x="101" y="533"/>
      <point x="127" y="533"/>
      <point x="101" y="533" type="curve"/>
      <point x="101" y="308"/>
      <point x="101" y="83"/>
      <point x="101" y="-142" type="curve"/>
      <point x="101" y="-215"/>
      <point x="57" y="-278"/>
      <point x="-13" y="-278" type="curve"/>
      <point x="-21" y="-278"/>
      <point x="-31" y="-277"/>
      <point x="-36" y="-276" type="curve"/>
      <point x="-40" y="-298"/>
      <point x="-37" y="-279"/>
    </contour>
    <contour>
      <point x="136" y="687" type="curve"/>
      <point x="136" y="699"/>
      <point x="128" y="707"/>
      <point x="115" y="707" type="curve"/>
      <point x="103" y="707"/>
      <point x="96" y="699"/>
      <point x="96" y="687" type="curve"/>
      <point x="129" y="687"/>
      <point x="103" y="687"/>
      <point x="136" y="687" type="curve"/>
      <point x="136" y="675"/>
      <point x="128" y="668"/>
      <point x="115" y="668" type="curve"/>
      <point x="103" y="668"/>
      <point x="96" y="675"/>
      <point x="96" y="687" type="curve"/>
      <point x="129" y="687"/>
      <point x="103" y="687"/>
    </contour>
  </outline>
</glyph>
<glyph name="k" format="1">
  <advance width="444"/>
  <unicode hex="006B"/>
  <outline>
    <contour>
      <point x="134" y="0" type="curve"/>
      <point x="134" y="800" type="line"/>
      <point x="108" y="800"/>
      <point x="134" y="800"/>
      <point x="108" y="800" type="curve"/>
      <point x="108" y="533"/>
      <point x="108" y="267"/>
      <point x="108" y="0" type="curve"/>
      <point x="134" y="0"/>
      <point x="108" y="0"/>
    </contour>
    <contour>
      <point x="362" y="533" type="curve"/>
      <point x="120" y="275" type="line"/>
      <point x="159" y="275"/>
      <point x="118" y="275"/>
      <point x="157" y="275" type="curve"/>
      <point x="399" y="533" type="line"/>
      <point x="360" y="533"/>
      <point x="402" y="533"/>
    </contour>
    <contour>
      <point x="421" y="0" type="curve"/>
      <point x="157" y="275" type="line"/>
      <point x="118" y="275"/>
      <point x="159" y="275"/>
      <point x="120" y="275" type="curve"/>
      <point x="384" y="0" type="line"/>
      <point x="425" y="0"/>
      <point x="381" y="0"/>
    </contour>
    <contour>
      <point x="306" y="-57" type="move" name="bottom"/>
    </contour>
  </outline>
</glyph>
<glyph name="m" format="1">
  <advance width="815"/>
  <unicode hex="006D"/>
  <outline>
    <contour>
      <point x="418" y="353" type="curve"/>
      <point x="447" y="439"/>
      <point x="495" y="516"/>
      <point x="576" y="516" type="curve"/>
      <point x="672" y="516"/>
      <point x="688" y="448"/>
      <point x="688" y="341" type="curve"/>
      <point x="688" y="228"/>
      <point x="688" y="114"/>
      <point x="688" y="0" type="curve"/>
      <point x="713" y="0"/>
      <point x="688" y="0"/>
      <point x="713" y="0" type="curve"/>
      <point x="713" y="115"/>
      <point x="713" y="229"/>
      <point x="713" y="344" type="curve"/>
      <point x="713" y="463"/>
      <point x="689" y="538"/>
      <point x="580" y="538" type="curve"/>
      <point x="484" y="538"/>
      <point x="430" y="462"/>
      <point x="405" y="365" type="curve"/>
      <point x="418" y="353"/>
      <point x="405" y="365"/>
    </contour>
    <contour>
      <point x="128" y="353" type="curve"/>
      <point x="155" y="438"/>
      <point x="203" y="517"/>
      <point x="285" y="517" type="curve"/>
      <point x="381" y="517"/>
      <point x="398" y="448"/>
      <point x="398" y="341" type="curve"/>
      <point x="398" y="228"/>
      <point x="398" y="114"/>
      <point x="398" y="0" type="curve"/>
      <point x="424" y="0"/>
      <point x="398" y="0"/>
      <point x="424" y="0" type="curve"/>
      <point x="424" y="115"/>
      <point x="424" y="229"/>
      <point x="424" y="344" type="curve"/>
      <point x="424" y="463"/>
      <point x="400" y="539"/>
      <point x="291" y="539" type="curve"/>
      <point x="192" y="539"/>
      <point x="141" y="463"/>
      <point x="116" y="365" type="curve"/>
      <point x="128" y="353"/>
      <point x="116" y="365"/>
    </contour>
    <contour>
      <point x="134" y="0" type="curve"/>
      <point x="134" y="178"/>
      <point x="134" y="355"/>
      <point x="134" y="533" type="curve"/>
      <point x="108" y="533"/>
      <point x="134" y="533"/>
      <point x="108" y="533" type="curve"/>
      <point x="108" y="355"/>
      <point x="108" y="178"/>
      <point x="108" y="0" type="curve"/>
      <point x="134" y="0"/>
      <point x="108" y="0"/>
    </contour>
  </outline>
</glyph>
<glyph name="n" format="1">
  <advance width="559"/>
  <unicode hex="006E"/>
  <outline>
    <contour>
      <point x="128" y="343" type="curve"/>
      <point x="147" y="441"/>
      <point x="221" y="515"/>
      <point x="303" y="515" type="curve"/>
      <point x="396" y="515"/>
      <point x="433" y="443"/>
      <point x="433" y="341" type="curve"/>
      <point x="433" y="228"/>
      <point x="433" y="114"/>
      <point x="433" y="0" type="curve"/>
      <point x="458" y="0"/>
      <point x="433" y="0"/>
      <point x="458" y="0" type="curve"/>
      <point x="458" y="115"/>
      <point x="458" y="229"/>
      <point x="458" y="344" type="curve"/>
      <point x="458" y="459"/>
      <point x="416" y="538"/>
      <point x="308" y="538" type="curve"/>
      <point x="213" y="538"/>
      <point x="132" y="467"/>
      <point x="115" y="359" type="curve"/>
      <point x="128" y="346"/>
      <point x="114" y="356"/>
    </contour>
    <contour>
      <point x="134" y="0" type="curve"/>
      <point x="134" y="178"/>
      <point x="134" y="355"/>
      <point x="134" y="533" type="curve"/>
      <point x="108" y="533"/>
      <point x="134" y="533"/>
      <point x="108" y="533" type="curve"/>
      <point x="108" y="355"/>
      <point x="108" y="178"/>
      <point x="108" y="0" type="curve"/>
      <point x="134" y="0"/>
      <point x="108" y="0"/>
    </contour>
    <contour>
      <point x="294" y="670" type="move" name="top"/>
    </contour>
    <contour>
      <point x="307" y="-58" type="move" name="bottom"/>
    </contour>
  </outline>
</glyph>
<glyph name="p" format="1">
  <advance width="572"/>
  <unicode hex="0070"/>
  <outline>
    <contour>
      <point x="127" y="409" type="curve"/>
      <point x="155" y="458"/>
      <point x="224" y="516"/>
      <point x="305" y="516" type="curve"/>
      <point x="429" y="516"/>
      <point x="481" y="409"/>
      <point x="481" y="276" type="curve"/>
      <point x="484" y="134"/>
      <point x="430" y="17"/>
      <point x="305" y="18" type="curve"/>
      <point x="226" y="18"/>
      <point x="175" y="62"/>
      <point x="129" y="122" type="curve"/>
      <point x="113" y="110"/>
      <point x="129" y="122"/>
      <point x="113" y="110" type="curve"/>
      <point x="161" y="40"/>
      <point x="219" y="-5"/>
      <point x="305" y="-5" type="curve"/>
      <point x="452" y="-5"/>
      <point x="506" y="122"/>
      <point x="506" y="278" type="curve"/>
      <point x="506" y="423"/>
      <point x="446" y="538"/>
      <point x="306" y="538" type="curve"/>
      <point x="216" y="538"/>
      <point x="147" y="483"/>
      <point x="115" y="430" type="curve"/>
      <point x="130" y="411"/>
      <point x="112" y="428"/>
    </contour>
    <contour>
      <point x="134" y="-300" type="curve"/>
      <point x="134" y="-22"/>
      <point x="134" y="255"/>
      <point x="134" y="533" type="curve"/>
      <point x="108" y="533"/>
      <point x="134" y="533"/>
      <point x="108" y="533" type="curve"/>
      <point x="108" y="255"/>
      <point x="108" y="-22"/>
      <point x="108" y="-300" type="curve"/>
      <point x="134" y="-300"/>
      <point x="108" y="-300"/>
    </contour>
  </outline>
</glyph>
<glyph name="q" format="1">
  <advance width="574"/>
  <unicode hex="0071"/>
  <outline>
    <contour>
      <point x="459" y="436" type="curve"/>
      <point x="416" y="503"/>
      <point x="341" y="538"/>
      <point x="267" y="538" type="curve"/>
      <point x="124" y="538"/>
      <point x="67" y="416"/>
      <point x="67" y="264" type="curve"/>
      <point x="67" y="113"/>
      <point x="129" y="-6"/>
      <point x="271" y="-6" type="curve"/>
      <point x="352" y="-6"/>
      <point x="422" y="51"/>
      <point x="459" y="121" type="curve"/>
      <point x="444" y="135"/>
      <point x="460" y="126"/>
      <point x="446" y="140" type="curve"/>
      <point x="410" y="72"/>
      <point x="345" y="17"/>
      <point x="271" y="17" type="curve"/>
      <point x="146" y="17"/>
      <point x="93" y="127"/>
      <point x="93" y="265" type="curve"/>
      <point x="93" y="403"/>
      <point x="144" y="515"/>
      <point x="268" y="515" type="curve"/>
      <point x="337" y="515"/>
      <point x="406" y="479"/>
      <point x="448" y="417" type="curve"/>
      <point x="460" y="431"/>
      <point x="447" y="422"/>
    </contour>
    <contour>
      <point x="465" y="-300" type="curve"/>
      <point x="465" y="-22"/>
      <point x="465" y="255"/>
      <point x="465" y="533" type="curve"/>
      <point x="439" y="533"/>
      <point x="465" y="533"/>
      <point x="439" y="533" type="curve"/>
      <point x="439" y="255"/>
      <point x="439" y="-22"/>
      <point x="439" y="-300" type="curve"/>
      <point x="465" y="-300"/>
      <point x="439" y="-300"/>
    </contour>
  </outline>
</glyph>
<glyph name="r" format="1">
  <advance width="352"/>
  <unicode hex="0072"/>
  <outline>
    <contour>
      <point x="134" y="0" type="curve"/>
      <point x="134" y="178"/>
      <point x="134" y="355"/>
      <point x="134" y="533" type="curve"/>
      <point x="109" y="533"/>
      <point x="133" y="533"/>
      <point x="108" y="533" type="curve"/>
      <point x="108" y="355"/>
      <point x="108" y="178"/>
      <point x="108" y="0" type="curve"/>
      <point x="133" y="0"/>
      <point x="109" y="0"/>
    </contour>
    <contour>
      <point x="127" y="365" type="curve"/>
      <point x="158" y="462"/>
      <point x="246" y="515"/>
      <point x="339" y="515" type="curve"/>
      <point x="339" y="541"/>
      <point x="339" y="512"/>
      <point x="339" y="538" type="curve"/>
      <point x="239" y="538"/>
      <point x="147" y="485"/>
      <point x="116" y="388" type="curve"/>
      <point x="130" y="373"/>
      <point x="118" y="378"/>
    </contour>
    <contour>
      <point x="124" y="670" type="move" name="top"/>
    </contour>
    <contour>
      <point x="132" y="-57" type="move" name="bottom"/>
    </contour>
  </outline>
</glyph>
<glyph name="s" format="1">
  <advance width="419"/>
  <unicode hex="0073"/>
  <outline>
    <contour>
      <point x="50" y="50" type="curve"/>
      <point x="103" y="18"/>
      <point x="156" y="-5"/>
      <point x="216" y="-5" type="curve"/>
      <point x="308" y="-5"/>
      <point x="362" y="46"/>
      <point x="362" y="134" type="curve"/>
      <point x="361" y="226"/>
      <point x="298" y="257"/>
      <point x="211" y="289" type="curve" smooth="yes"/>
      <point x="143" y="314"/>
      <point x="99" y="347"/>
      <point x="99" y="419" type="curve"/>
      <point x="99" y="479"/>
      <point x="137" y="515"/>
      <point x="201" y="515" type="curve"/>
      <point x="247" y="515"/>
      <point x="289" y="497"/>
      <point x="323" y="472" type="curve"/>
      <point x="329" y="483"/>
      <point x="328" y="480"/>
      <point x="334" y="491" type="curve"/>
      <point x="298" y="519"/>
      <point x="252" y="538"/>
      <point x="202" y="538" type="curve"/>
      <point x="124" y="538"/>
      <point x="75" y="493"/>
      <point x="75" y="419" type="curve"/>
      <point x="75" y="336"/>
      <point x="124" y="296"/>
      <point x="204" y="267" type="curve" smooth="yes"/>
      <point x="278" y="239"/>
      <point x="338" y="214"/>
      <point x="337" y="134" type="curve"/>
      <point x="337" y="61"/>
      <point x="292" y="18"/>
      <point x="220" y="18" type="curve"/>
      <point x="162" y="18"/>
      <point x="113" y="40"/>
      <point x="62" y="70" type="curve"/>
      <point x="50" y="50"/>
      <point x="62" y="70"/>
    </contour>
    <contour>
      <point x="207" y="670" type="move" name="top"/>
    </contour>
    <contour>
      <point x="223" y="-58" type="move" name="bottom"/>
    </contour>
  </outline>
</glyph>
<glyph name="t" format="1">
  <advance width="359"/>
  <unicode hex="0074"/>
  <outline>
    <contour>
      <point x="12" y="510" type="curve"/>
      <point x="353" y="510" type="line"/>
      <point x="353" y="533"/>
      <point x="353" y="510"/>
      <point x="353" y="533" type="curve"/>
      <point x="12" y="533" type="line"/>
      <point x="12" y="510"/>
      <point x="12" y="533"/>
    </contour>
    <contour>
      <point x="331" y="47" type="curve"/>
      <point x="303" y="31"/>
      <point x="281" y="19"/>
      <point x="247" y="19" type="curve"/>
      <point x="182" y="19"/>
      <point x="159" y="68"/>
      <point x="159" y="145" type="curve"/>
      <point x="159" y="679" type="line"/>
      <point x="152" y="674"/>
      <point x="141" y="661"/>
      <point x="134" y="657" type="curve"/>
      <point x="134" y="143" type="line"/>
      <point x="134" y="52"/>
      <point x="164" y="-5"/>
      <point x="245" y="-5" type="curve"/>
      <point x="284" y="-5"/>
      <point x="310" y="6"/>
      <point x="343" y="25" type="curve"/>
      <point x="331" y="47"/>
      <point x="343" y="25"/>
    </contour>
    <contour>
      <point x="247" y="-58" type="move" name="bottom"/>
    </contour>
  </outline>
</glyph>
<glyph name="v" format="1">
  <advance width="463"/>
  <unicode hex="0076"/>
  <outline>
    <contour>
      <point x="34" y="533" type="curve"/>
      <point x="94" y="355"/>
      <point x="155" y="178"/>
      <point x="215" y="0" type="curve"/>
      <point x="241" y="0"/>
      <point x="215" y="0"/>
      <point x="241" y="0" type="curve"/>
      <point x="181" y="178"/>
      <point x="121" y="355"/>
      <point x="62" y="533" type="curve"/>
      <point x="34" y="533"/>
      <point x="62" y="533"/>
    </contour>
    <contour>
      <point x="409" y="533" type="curve"/>
      <point x="219" y="0" type="line"/>
      <point x="246" y="0"/>
      <point x="219" y="0"/>
      <point x="246" y="0" type="curve"/>
      <point x="309" y="178"/>
      <point x="372" y="355"/>
      <point x="436" y="533" type="curve"/>
      <point x="409" y="533"/>
      <point x="436" y="533"/>
    </contour>
  </outline>
</glyph>
<glyph name="w" format="1">
  <advance width="758"/>
  <unicode hex="0077"/>
  <outline>
    <contour>
      <point x="221" y="0" type="curve"/>
      <point x="280" y="178"/>
      <point x="339" y="355"/>
      <point x="398" y="533" type="curve"/>
      <point x="370" y="533"/>
      <point x="398" y="533"/>
      <point x="370" y="533" type="curve"/>
      <point x="312" y="355"/>
      <point x="254" y="178"/>
      <point x="196" y="0" type="curve"/>
      <point x="221" y="0"/>
      <point x="196" y="0"/>
    </contour>
    <contour>
      <point x="699" y="533" type="curve"/>
      <point x="645" y="355"/>
      <point x="590" y="178"/>
      <point x="536" y="0" type="curve"/>
      <point x="561" y="0"/>
      <point x="536" y="0"/>
      <point x="561" y="0" type="curve"/>
      <point x="617" y="178"/>
      <point x="672" y="355"/>
      <point x="727" y="533" type="curve"/>
      <point x="699" y="533"/>
      <point x="727" y="533"/>
    </contour>
    <contour>
      <point x="376" y="533" type="curve"/>
      <point x="429" y="355"/>
      <point x="482" y="178"/>
      <point x="535" y="0" type="curve"/>
      <point x="560" y="0"/>
      <point x="535" y="0"/>
      <point x="560" y="0" type="curve"/>
      <point x="507" y="178"/>
      <point x="455" y="355"/>
      <point x="402" y="533" type="curve"/>
      <point x="376" y="533"/>
      <point x="402" y="533"/>
    </contour>
    <contour>
      <point x="36" y="533" type="curve"/>
      <point x="89" y="355"/>
      <point x="142" y="178"/>
      <point x="195" y="0" type="curve"/>
      <point x="220" y="0"/>
      <point x="195" y="0"/>
      <point x="220" y="0" type="curve"/>
      <point x="167" y="178"/>
      <point x="116" y="355"/>
      <point x="63" y="533" type="curve"/>
      <point x="36" y="533"/>
      <point x="63" y="533"/>
    </contour>
  </outline>
</glyph>
<glyph name="x" format="1">
  <advance width="449"/>
  <unicode hex="0078"/>
  <outline>
    <contour>
      <point x="430" y="0" type="curve"/>
      <point x="309" y="176"/>
      <point x="186" y="357"/>
      <point x="65" y="533" type="curve"/>
      <point x="35" y="533"/>
      <point x="65" y="533"/>
      <point x="35" y="533" type="curve"/>
      <point x="155" y="357"/>
      <point x="278" y="176"/>
      <point x="397" y="0" type="curve"/>
      <point x="430" y="0"/>
      <point x="397" y="0"/>
    </contour>
    <contour>
      <point x="386" y="533" type="curve"/>
      <point x="264" y="357"/>
      <point x="138" y="176"/>
      <point x="17" y="0" type="curve"/>
      <point x="50" y="0"/>
      <point x="17" y="0"/>
      <point x="50" y="0" type="curve"/>
      <point x="170" y="176"/>
      <point x="295" y="357"/>
      <point x="416" y="533" type="curve"/>
      <point x="385" y="533"/>
      <point x="416" y="533"/>
    </contour>
  </outline>
</glyph>
<glyph name="y" format="1">
  <advance width="494"/>
  <unicode hex="0079"/>
  <outline>
    <contour>
      <point x="261" y="7" type="curve"/>
      <point x="232" y="55"/>
      <point x="85" y="486"/>
      <point x="57" y="533" type="curve"/>
      <point x="28" y="533"/>
      <point x="57" y="533"/>
      <point x="28" y="533" type="curve"/>
      <point x="57" y="485"/>
      <point x="207" y="47"/>
      <point x="236" y="0" type="curve"/>
      <point x="261" y="0"/>
      <point x="236" y="7"/>
    </contour>
    <contour>
      <point x="137" y="-300" type="curve"/>
      <point x="186" y="-225"/>
      <point x="428" y="458"/>
      <point x="477" y="533" type="curve"/>
      <point x="449" y="533"/>
      <point x="477" y="533"/>
      <point x="449" y="533" type="curve"/>
      <point x="400" y="458"/>
      <point x="157" y="-225"/>
      <point x="108" y="-300" type="curve"/>
      <point x="137" y="-300"/>
      <point x="108" y="-300"/>
    </contour>
    <contour>
      <point x="263" y="671" type="move" name="top"/>
    </contour>
  </outline>
</glyph>
<glyph name="z" format="1">
  <advance width="443"/>
  <unicode hex="007A"/>
  <outline>
    <contour>
      <point x="53" y="510" type="curve"/>
      <point x="162" y="510"/>
      <point x="266" y="510"/>
      <point x="375" y="510" type="curve"/>
      <point x="373" y="513"/>
      <point x="370" y="515"/>
      <point x="367" y="517" type="curve"/>
      <point x="365" y="519"/>
      <point x="365" y="521"/>
      <point x="363" y="523" type="curve"/>
      <point x="359" y="519"/>
      <point x="356" y="516"/>
      <point x="354" y="512" type="curve"/>
      <point x="39" y="23" type="line"/>
      <point x="39" y="10"/>
      <point x="39" y="23"/>
      <point x="39" y="10" type="curve"/>
      <point x="39" y="0"/>
      <point x="39" y="10"/>
      <point x="39" y="0" type="curve"/>
      <point x="46" y="0"/>
      <point x="39" y="0"/>
      <point x="46" y="0" type="curve"/>
      <point x="410" y="0"/>
      <point x="287" y="0"/>
      <point x="409" y="0" type="curve"/>
      <point x="409" y="23"/>
      <point x="409" y="0"/>
      <point x="409" y="23" type="curve"/>
      <point x="287" y="23"/>
      <point x="167" y="23"/>
      <point x="46" y="23" type="curve"/>
      <point x="48" y="21"/>
      <point x="51" y="19"/>
      <point x="53" y="17" type="curve"/>
      <point x="55" y="15"/>
      <point x="57" y="12"/>
      <point x="59" y="10" type="curve"/>
      <point x="62" y="14"/>
      <point x="64" y="17"/>
      <point x="66" y="21" type="curve"/>
      <point x="382" y="510" type="line"/>
      <point x="382" y="523"/>
      <point x="382" y="510"/>
      <point x="382" y="523" type="curve"/>
      <point x="382" y="533"/>
      <point x="382" y="523"/>
      <point x="382" y="533" type="curve"/>
      <point x="375" y="533"/>
      <point x="382" y="533"/>
      <point x="375" y="533" type="curve"/>
      <point x="266" y="533"/>
      <point x="162" y="533"/>
      <point x="53" y="533" type="curve"/>
      <point x="53" y="510"/>
      <point x="53" y="533"/>
    </contour>
    <contour>
      <point x="221" y="670" type="move" name="top"/>
    </contour>
  </outline>
</glyph>
<glyph name="braceleft" format="1">
  <advance width="239"/>
  <unicode hex="007B"/>
  <outline>
    <contour>
      <point x="214" y="-101" type="curve"/>
      <point x="147" y="-101"/>
      <point x="124" y="-46"/>
      <point x="124" y="26" type="curve"/>
      <point x="124" y="85"/>
      <point x="124" y="144"/>
      <point x="124" y="203" type="curve"/>
      <point x="124" y="287"/>
      <point x="90" y="351"/>
      <point x="12" y="351" type="curve"/>
      <point x="12" y="327"/>
      <point x="12" y="351"/>
      <point x="12" y="327" type="curve"/>
      <point x="76" y="327"/>
      <point x="101" y="275"/>
      <point x="101" y="205" type="curve"/>
      <point x="101" y="146"/>
      <point x="101" y="86"/>
      <point x="101" y="27" type="curve"/>
      <point x="101" y="-59"/>
      <point x="134" y="-124"/>
      <point x="214" y="-124" type="curve"/>
      <point x="214" y="-101"/>
      <point x="214" y="-124"/>
    </contour>
    <contour>
      <point x="214" y="800" type="curve"/>
      <point x="134" y="800"/>
      <point x="101" y="737"/>
      <point x="101" y="650" type="curve"/>
      <point x="101" y="590"/>
      <point x="101" y="530"/>
      <point x="101" y="470" type="curve"/>
      <point x="101" y="400"/>
      <point x="76" y="351"/>
      <point x="12" y="351" type="curve"/>
      <point x="12" y="327"/>
      <point x="12" y="351"/>
      <point x="12" y="327" type="curve"/>
      <point x="90" y="327"/>
      <point x="124" y="388"/>
      <point x="124" y="473" type="curve"/>
      <point x="124" y="532"/>
      <point x="124" y="591"/>
      <point x="124" y="650" type="curve"/>
      <point x="124" y="722"/>
      <point x="147" y="777"/>
      <point x="214" y="777" type="curve"/>
      <point x="214" y="800"/>
      <point x="214" y="777"/>
    </contour>
  </outline>
</glyph>
<glyph name="braceright" format="1">
  <advance width="240"/>
  <unicode hex="007D"/>
  <outline>
    <contour>
      <point x="26" y="-124" type="curve"/>
      <point x="106" y="-124"/>
      <point x="139" y="-59"/>
      <point x="139" y="27" type="curve"/>
      <point x="139" y="86"/>
      <point x="139" y="146"/>
      <point x="139" y="205" type="curve"/>
      <point x="139" y="275"/>
      <point x="164" y="327"/>
      <point x="228" y="327" type="curve"/>
      <point x="228" y="350"/>
      <point x="228" y="327"/>
      <point x="228" y="350" type="curve"/>
      <point x="150" y="350"/>
      <point x="116" y="287"/>
      <point x="116" y="203" type="curve"/>
      <point x="116" y="144"/>
      <point x="116" y="85"/>
      <point x="116" y="26" type="curve"/>
      <point x="116" y="-46"/>
      <point x="93" y="-101"/>
      <point x="26" y="-101" type="curve"/>
      <point x="26" y="-124"/>
      <point x="26" y="-101"/>
    </contour>
    <contour>
      <point x="26" y="777" type="curve"/>
      <point x="93" y="777"/>
      <point x="116" y="722"/>
      <point x="116" y="650" type="curve"/>
      <point x="116" y="591"/>
      <point x="116" y="532"/>
      <point x="116" y="473" type="curve"/>
      <point x="116" y="388"/>
      <point x="150" y="327"/>
      <point x="228" y="327" type="curve"/>
      <point x="228" y="350"/>
      <point x="228" y="327"/>
      <point x="228" y="350" type="curve"/>
      <point x="164" y="350"/>
      <point x="139" y="400"/>
      <point x="139" y="470" type="curve"/>
      <point x="139" y="530"/>
      <point x="139" y="590"/>
      <point x="139" y="650" type="curve"/>
      <point x="139" y="736"/>
      <point x="106" y="800"/>
      <point x="26" y="800" type="curve"/>
      <point x="26" y="777"/>
      <point x="26" y="800"/>
    </contour>
  </outline>
</glyph>
<glyph name="asciitilde" format="1">
  <advance width="628"/>
  <unicode hex="007E"/>
  <outline>
    <contour>
      <point x="511" y="344" type="curve"/>
      <point x="497" y="297"/>
      <point x="480" y="242"/>
      <point x="423" y="242" type="curve"/>
      <point x="380" y="242"/>
      <point x="353" y="260"/>
      <point x="322" y="290" type="curve"/>
      <point x="289" y="323"/>
      <point x="260" y="345"/>
      <point x="214" y="345" type="curve"/>
      <point x="138" y="345"/>
      <point x="112" y="296"/>
      <point x="95" y="225" type="curve"/>
      <point x="115" y="219"/>
      <point x="96" y="225"/>
      <point x="116" y="219" type="curve"/>
      <point x="129" y="274"/>
      <point x="150" y="323"/>
      <point x="212" y="323" type="curve"/>
      <point x="250" y="323"/>
      <point x="273" y="305"/>
      <point x="300" y="279" type="curve"/>
      <point x="338" y="243"/>
      <point x="369" y="220"/>
      <point x="421" y="220" type="curve"/>
      <point x="493" y="220"/>
      <point x="514" y="274"/>
      <point x="533" y="339" type="curve"/>
      <point x="512" y="344"/>
      <point x="532" y="339"/>
    </contour>
  </outline>
</glyph>
<glyph name="exclamdown" format="1">
  <advance width="239"/>
  <unicode hex="00A1"/>
  <outline>
    <contour>
      <point x="108" y="301" type="line"/>
      <point x="104" y="-192" type="line"/>
      <point x="137" y="-192" type="line"/>
      <point x="133" y="301" type="line"/>
    </contour>
    <contour>
      <point x="101" y="518" type="curve"/>
      <point x="101" y="506"/>
      <point x="108" y="500"/>
      <point x="120" y="500" type="curve"/>
      <point x="131" y="500"/>
      <point x="138" y="507"/>
      <point x="138" y="518" type="curve"/>
      <point x="107" y="518"/>
      <point x="131" y="518"/>
      <point x="101" y="518" type="curve"/>
      <point x="101" y="529"/>
      <point x="108" y="535"/>
      <point x="120" y="535" type="curve"/>
      <point x="131" y="535"/>
      <point x="138" y="529"/>
      <point x="138" y="518" type="curve"/>
      <point x="107" y="518"/>
      <point x="131" y="518"/>
    </contour>
  </outline>
</glyph>
<glyph name="sterling" format="1">
  <advance width="466"/>
  <unicode hex="00A3"/>
  <outline>
    <contour>
      <point x="393" y="23" type="curve"/>
      <point x="274" y="23"/>
      <point x="159" y="23"/>
      <point x="41" y="23" type="curve"/>
      <point x="41" y="0"/>
      <point x="41" y="23"/>
      <point x="41" y="0" type="curve"/>
      <point x="159" y="0"/>
      <point x="276" y="0"/>
      <point x="393" y="0" type="curve"/>
      <point x="393" y="23"/>
      <point x="393" y="0"/>
    </contour>
    <contour>
      <point x="352" y="388" type="curve"/>
      <point x="258" y="388"/>
      <point x="165" y="388"/>
      <point x="72" y="388" type="curve"/>
      <point x="72" y="366"/>
      <point x="72" y="388"/>
      <point x="72" y="366" type="curve"/>
      <point x="165" y="366"/>
      <point x="258" y="366"/>
      <point x="352" y="366" type="curve"/>
      <point x="352" y="388"/>
      <point x="352" y="366"/>
    </contour>
    <contour>
      <point x="404" y="676" type="curve"/>
      <point x="365" y="708"/>
      <point x="334" y="725"/>
      <point x="285" y="725" type="curve"/>
      <point x="134" y="725"/>
      <point x="118" y="562"/>
      <point x="152" y="375" type="curve"/>
      <point x="185" y="191"/>
      <point x="187" y="23"/>
      <point x="41" y="23" type="curve"/>
      <point x="41" y="0"/>
      <point x="41" y="23"/>
      <point x="41" y="0" type="curve"/>
      <point x="210" y="0"/>
      <point x="211" y="179"/>
      <point x="177" y="379" type="curve"/>
      <point x="148" y="549"/>
      <point x="158" y="702"/>
      <point x="283" y="702" type="curve"/>
      <point x="328" y="702"/>
      <point x="357" y="686"/>
      <point x="389" y="660" type="curve"/>
      <point x="404" y="676"/>
      <point x="389" y="660"/>
    </contour>
  </outline>
</glyph>
<glyph name="currency" format="1">
  <advance width="606"/>
  <unicode hex="00A4"/>
  <outline>
    <contour>
      <point x="187" y="310" type="curve"/>
      <point x="187" y="395"/>
      <point x="224" y="457"/>
      <point x="304" y="457" type="curve"/>
      <point x="385" y="457"/>
      <point x="418" y="395"/>
      <point x="418" y="310" type="curve"/>
      <point x="418" y="223"/>
      <point x="387" y="157"/>
      <point x="307" y="157" type="curve"/>
      <point x="223" y="157"/>
      <point x="187" y="221"/>
      <point x="187" y="310" type="curve"/>
      <point x="162" y="310"/>
      <point x="187" y="310"/>
      <point x="162" y="310" type="curve"/>
      <point x="162" y="207"/>
      <point x="209" y="135"/>
      <point x="306" y="135" type="curve"/>
      <point x="401" y="135"/>
      <point x="444" y="210"/>
      <point x="444" y="311" type="curve"/>
      <point x="444" y="409"/>
      <point x="398" y="480"/>
      <point x="307" y="480" type="curve"/>
      <point x="210" y="480"/>
      <point x="162" y="410"/>
      <point x="162" y="310" type="curve"/>
      <point x="187" y="310"/>
      <point x="162" y="310"/>
    </contour>
    <contour>
      <point x="397" y="423" type="line"/>
      <point x="532" y="554" type="line"/>
      <point x="510" y="576" type="line"/>
      <point x="379" y="441" type="line"/>
    </contour>
    <contour>
      <point x="380" y="178" type="line"/>
      <point x="511" y="43" type="line"/>
      <point x="533" y="65" type="line"/>
      <point x="398" y="196" type="line"/>
    </contour>
    <contour>
      <point x="207" y="197" type="line"/>
      <point x="72" y="66" type="line"/>
      <point x="94" y="44" type="line"/>
      <point x="225" y="179" type="line"/>
    </contour>
    <contour>
      <point x="228" y="442" type="line"/>
      <point x="96" y="577" type="line"/>
      <point x="75" y="555" type="line"/>
      <point x="210" y="424" type="line"/>
    </contour>
  </outline>
</glyph>
<glyph name="yen" format="1">
  <advance width="548"/>
  <unicode hex="00A5"/>
  <outline>
    <contour>
      <point x="472" y="372" type="curve"/>
      <point x="410" y="372"/>
      <point x="349" y="372"/>
      <point x="288" y="372" type="curve"/>
      <point x="288" y="347"/>
      <point x="288" y="372"/>
      <point x="288" y="347" type="curve"/>
      <point x="349" y="347"/>
      <point x="410" y="347"/>
      <point x="472" y="347" type="curve"/>
      <point x="472" y="372"/>
      <point x="472" y="347"/>
    </contour>
    <contour>
      <point x="263" y="372" type="curve"/>
      <point x="202" y="372"/>
      <point x="142" y="372"/>
      <point x="82" y="372" type="curve"/>
      <point x="82" y="347"/>
      <point x="82" y="372"/>
      <point x="82" y="347" type="curve"/>
      <point x="142" y="347"/>
      <point x="202" y="347"/>
      <point x="263" y="347" type="curve"/>
      <point x="263" y="372"/>
      <point x="263" y="347"/>
    </contour>
    <contour>
      <point x="472" y="252" type="curve"/>
      <point x="342" y="252"/>
      <point x="212" y="252"/>
      <point x="82" y="252" type="curve"/>
      <point x="82" y="228"/>
      <point x="82" y="252"/>
      <point x="82" y="228" type="curve"/>
      <point x="212" y="228"/>
      <point x="342" y="228"/>
      <point x="472" y="228" type="curve"/>
      <point x="472" y="252"/>
      <point x="472" y="228"/>
    </contour>
    <contour>
      <point x="53" y="722" type="curve"/>
      <point x="121" y="594"/>
      <point x="190" y="465"/>
      <point x="258" y="337" type="curve"/>
      <point x="286" y="337"/>
      <point x="258" y="338"/>
      <point x="285" y="338" type="curve"/>
      <point x="217" y="466"/>
      <point x="149" y="594"/>
      <point x="82" y="722" type="curve"/>
      <point x="53" y="722"/>
      <point x="82" y="722"/>
    </contour>
    <contour>
      <point x="473" y="722" type="curve"/>
      <point x="402" y="594"/>
      <point x="330" y="466"/>
      <point x="258" y="338" type="curve"/>
      <point x="285" y="338"/>
      <point x="258" y="337"/>
      <point x="285" y="337" type="curve"/>
      <point x="358" y="465"/>
      <point x="430" y="594"/>
      <point x="502" y="722" type="curve"/>
      <point x="473" y="722"/>
      <point x="502" y="722"/>
    </contour>
    <contour>
      <point x="285" y="0" type="curve"/>
      <point x="285" y="115"/>
      <point x="285" y="231"/>
      <point x="285" y="346" type="curve"/>
      <point x="258" y="346"/>
      <point x="285" y="346"/>
      <point x="258" y="346" type="curve"/>
      <point x="258" y="231"/>
      <point x="258" y="115"/>
      <point x="258" y="0" type="curve"/>
      <point x="285" y="0"/>
      <point x="258" y="0"/>
    </contour>
  </outline>
</glyph>
<glyph name="section" format="1">
  <advance width="441"/>
  <unicode hex="00A7"/>
  <outline>
    <contour>
      <point x="351" y="709" type="curve"/>
      <point x="307" y="736"/>
      <point x="274" y="752"/>
      <point x="222" y="752" type="curve"/>
      <point x="143" y="752"/>
      <point x="97" y="703"/>
      <point x="97" y="627" type="curve"/>
      <point x="97" y="555"/>
      <point x="139" y="513"/>
      <point x="206" y="484" type="curve"/>
      <point x="282" y="454"/>
      <point x="353" y="437"/>
      <point x="353" y="361" type="curve"/>
      <point x="353" y="291"/>
      <point x="317" y="245"/>
      <point x="246" y="229" type="curve"/>
      <point x="261" y="211"/>
      <point x="246" y="229"/>
      <point x="261" y="211" type="curve"/>
      <point x="338" y="233"/>
      <point x="378" y="282"/>
      <point x="378" y="361" type="curve"/>
      <point x="377" y="449"/>
      <point x="304" y="474"/>
      <point x="219" y="505" type="curve"/>
      <point x="160" y="529"/>
      <point x="122" y="565"/>
      <point x="122" y="627" type="curve"/>
      <point x="122" y="688"/>
      <point x="156" y="729"/>
      <point x="220" y="729" type="curve"/>
      <point x="268" y="729"/>
      <point x="299" y="715"/>
      <point x="338" y="692" type="curve"/>
      <point x="351" y="709"/>
      <point x="338" y="692"/>
    </contour>
    <contour>
      <point x="179" y="513" type="curve"/>
      <point x="108" y="487"/>
      <point x="68" y="442"/>
      <point x="68" y="367" type="curve"/>
      <point x="68" y="283"/>
      <point x="132" y="250"/>
      <point x="214" y="220" type="curve"/>
      <point x="277" y="194"/>
      <point x="328" y="166"/>
      <point x="328" y="100" type="curve"/>
      <point x="328" y="35"/>
      <point x="290" y="-7"/>
      <point x="224" y="-7" type="curve"/>
      <point x="168" y="-7"/>
      <point x="134" y="12"/>
      <point x="91" y="45" type="curve"/>
      <point x="76" y="28"/>
      <point x="91" y="45"/>
      <point x="76" y="28" type="curve"/>
      <point x="123" y="-10"/>
      <point x="163" y="-30"/>
      <point x="223" y="-30" type="curve"/>
      <point x="303" y="-30"/>
      <point x="353" y="19"/>
      <point x="353" y="100" type="curve"/>
      <point x="352" y="175"/>
      <point x="302" y="213"/>
      <point x="230" y="240" type="curve"/>
      <point x="157" y="269"/>
      <point x="93" y="294"/>
      <point x="93" y="367" type="curve"/>
      <point x="93" y="433"/>
      <point x="127" y="473"/>
      <point x="191" y="497" type="curve"/>
      <point x="179" y="513"/>
      <point x="191" y="497"/>
    </contour>
  </outline>
</glyph>
<glyph name="dieresis" format="1">
  <advance width="401"/>
  <unicode hex="00A8"/>
  <outline>
    <contour>
      <point x="146" y="669" type="curve"/>
      <point x="146" y="680"/>
      <point x="139" y="687"/>
      <point x="127" y="687" type="curve"/>
      <point x="116" y="687"/>
      <point x="109" y="679"/>
      <point x="109" y="669" type="curve"/>
      <point x="140" y="669"/>
      <point x="115" y="669"/>
      <point x="146" y="669" type="curve"/>
      <point x="146" y="657"/>
      <point x="139" y="651"/>
      <point x="127" y="651" type="curve"/>
      <point x="116" y="651"/>
      <point x="109" y="657"/>
      <point x="109" y="669" type="curve"/>
      <point x="140" y="669"/>
      <point x="115" y="669"/>
    </contour>
    <contour>
      <point x="252" y="669" type="curve"/>
      <point x="252" y="680"/>
      <point x="244" y="687"/>
      <point x="233" y="687" type="curve"/>
      <point x="221" y="687"/>
      <point x="215" y="679"/>
      <point x="215" y="669" type="curve"/>
      <point x="246" y="669"/>
      <point x="221" y="669"/>
      <point x="252" y="669" type="curve"/>
      <point x="252" y="657"/>
      <point x="244" y="651"/>
      <point x="233" y="651" type="curve"/>
      <point x="221" y="651"/>
      <point x="215" y="657"/>
      <point x="215" y="669" type="curve"/>
      <point x="246" y="669"/>
      <point x="221" y="669"/>
    </contour>
    <contour>
      <point x="181" y="653" type="move" name="_top"/>
    </contour>
  </outline>
</glyph>
<glyph name="copyright" format="1">
  <advance width="699"/>
  <unicode hex="00A9"/>
  <outline>
    <contour>
      <point x="99" y="319" type="curve"/>
      <point x="99" y="493"/>
      <point x="188" y="624"/>
      <point x="353" y="624" type="curve"/>
      <point x="515" y="624"/>
      <point x="601" y="491"/>
      <point x="601" y="318" type="curve"/>
      <point x="601" y="149"/>
      <point x="517" y="18"/>
      <point x="358" y="18" type="curve"/>
      <point x="194" y="18"/>
      <point x="99" y="145"/>
      <point x="99" y="319" type="curve"/>
      <point x="73" y="319"/>
      <point x="99" y="319"/>
      <point x="73" y="319" type="curve"/>
      <point x="73" y="133"/>
      <point x="178" y="-5"/>
      <point x="357" y="-5" type="curve"/>
      <point x="531" y="-5"/>
      <point x="626" y="135"/>
      <point x="626" y="319" type="curve"/>
      <point x="626" y="505"/>
      <point x="529" y="646"/>
      <point x="353" y="646" type="curve"/>
      <point x="175" y="646"/>
      <point x="73" y="506"/>
      <point x="73" y="319" type="curve"/>
      <point x="99" y="319"/>
      <point x="73" y="319"/>
    </contour>
    <contour>
      <point x="458" y="464" type="curve"/>
      <point x="426" y="487"/>
      <point x="398" y="496"/>
      <point x="358" y="496" type="curve"/>
      <point x="261" y="496"/>
      <point x="213" y="422"/>
      <point x="213" y="319" type="curve"/>
      <point x="213" y="219"/>
      <point x="254" y="146"/>
      <point x="347" y="146" type="curve"/>
      <point x="397" y="146"/>
      <point x="432" y="159"/>
      <point x="469" y="193" type="curve"/>
      <point x="453" y="208"/>
      <point x="469" y="193"/>
      <point x="453" y="208" type="curve"/>
      <point x="422" y="181"/>
      <point x="392" y="168"/>
      <point x="348" y="168" type="curve"/>
      <point x="269" y="168"/>
      <point x="238" y="234"/>
      <point x="238" y="320" type="curve"/>
      <point x="238" y="409"/>
      <point x="273" y="474"/>
      <point x="357" y="474" type="curve"/>
      <point x="391" y="474"/>
      <point x="415" y="466"/>
      <point x="446" y="446" type="curve"/>
      <point x="458" y="464"/>
      <point x="446" y="446"/>
    </contour>
  </outline>
</glyph>
<glyph name="ordfeminine" format="1">
  <advance width="383"/>
  <unicode hex="00AA"/>
  <outline>
    <contour>
      <point x="290" y="429" type="curve"/>
      <point x="290" y="522"/>
      <point x="290" y="588"/>
      <point x="290" y="681" type="curve"/>
      <point x="290" y="738"/>
      <point x="248" y="766"/>
      <point x="188" y="766" type="curve"/>
      <point x="144" y="766"/>
      <point x="111" y="746"/>
      <point x="84" y="717" type="curve"/>
      <point x="88" y="710"/>
      <point x="92" y="706"/>
      <point x="97" y="698" type="curve"/>
      <point x="118" y="720"/>
      <point x="145" y="743"/>
      <point x="185" y="743" type="curve"/>
      <point x="232" y="743"/>
      <point x="265" y="720"/>
      <point x="265" y="674" type="curve"/>
      <point x="265" y="583"/>
      <point x="265" y="520"/>
      <point x="265" y="429" type="curve"/>
      <point x="275" y="429"/>
      <point x="280" y="429"/>
    </contour>
    <contour>
      <point x="276" y="632" type="curve"/>
      <point x="236" y="625"/>
      <point x="208" y="623"/>
      <point x="167" y="617" type="curve"/>
      <point x="111" y="607"/>
      <point x="71" y="576"/>
      <point x="71" y="518" type="curve"/>
      <point x="71" y="461"/>
      <point x="108" y="426"/>
      <point x="168" y="426" type="curve"/>
      <point x="225" y="426"/>
      <point x="257" y="464"/>
      <point x="284" y="512" type="curve"/>
      <point x="279" y="516"/>
      <point x="276" y="519"/>
      <point x="271" y="524" type="curve"/>
      <point x="248" y="483"/>
      <point x="221" y="449"/>
      <point x="173" y="449" type="curve"/>
      <point x="125" y="449"/>
      <point x="95" y="475"/>
      <point x="95" y="520" type="curve"/>
      <point x="95" y="564"/>
      <point x="124" y="589"/>
      <point x="166" y="597" type="curve"/>
      <point x="207" y="603"/>
      <point x="237" y="606"/>
      <point x="277" y="612" type="curve"/>
      <point x="277" y="620"/>
      <point x="276" y="624"/>
    </contour>
  </outline>
</glyph>
<glyph name="guillemotleft" format="1">
  <advance width="547"/>
  <unicode hex="00AB"/>
  <outline>
    <contour>
      <point x="265" y="400" type="curve"/>
      <point x="264" y="400"/>
      <point x="52" y="289"/>
      <point x="51" y="289" type="curve"/>
      <point x="51" y="264"/>
      <point x="51" y="289"/>
      <point x="51" y="264" type="curve"/>
      <point x="52" y="264"/>
      <point x="264" y="375"/>
      <point x="265" y="375" type="curve"/>
      <point x="265" y="400"/>
      <point x="265" y="375"/>
    </contour>
    <contour>
      <point x="266" y="177" type="curve"/>
      <point x="265" y="178"/>
      <point x="52" y="288"/>
      <point x="51" y="289" type="curve"/>
      <point x="51" y="264"/>
      <point x="51" y="289"/>
      <point x="51" y="264" type="curve"/>
      <point x="52" y="263"/>
      <point x="265" y="153"/>
      <point x="266" y="153" type="curve"/>
      <point x="266" y="177"/>
      <point x="266" y="153"/>
    </contour>
    <contour>
      <point x="463" y="400" type="curve"/>
      <point x="250" y="289" type="line"/>
      <point x="250" y="264"/>
      <point x="250" y="289"/>
      <point x="250" y="264" type="curve"/>
      <point x="463" y="375" type="line"/>
      <point x="463" y="400"/>
      <point x="463" y="375"/>
    </contour>
    <contour>
      <point x="464" y="177" type="curve"/>
      <point x="463" y="178"/>
      <point x="250" y="288"/>
      <point x="250" y="289" type="curve"/>
      <point x="250" y="264"/>
      <point x="250" y="289"/>
      <point x="250" y="264" type="curve"/>
      <point x="250" y="263"/>
      <point x="463" y="153"/>
      <point x="464" y="153" type="curve"/>
      <point x="464" y="177"/>
      <point x="464" y="153"/>
    </contour>
  </outline>
</glyph>
<glyph name="registered" format="1">
  <advance width="700"/>
  <unicode hex="00AE"/>
  <outline>
    <contour>
      <point x="99" y="319" type="curve"/>
      <point x="99" y="493"/>
      <point x="188" y="624"/>
      <point x="353" y="624" type="curve"/>
      <point x="515" y="624"/>
      <point x="602" y="492"/>
      <point x="602" y="318" type="curve"/>
      <point x="602" y="149"/>
      <point x="518" y="18"/>
      <point x="359" y="18" type="curve"/>
      <point x="194" y="18"/>
      <point x="99" y="145"/>
      <point x="99" y="319" type="curve"/>
      <point x="74" y="319"/>
      <point x="98" y="319"/>
      <point x="74" y="319" type="curve"/>
      <point x="74" y="133"/>
      <point x="178" y="-5"/>
      <point x="357" y="-5" type="curve"/>
      <point x="532" y="-5"/>
      <point x="626" y="135"/>
      <point x="626" y="319" type="curve"/>
      <point x="626" y="505"/>
      <point x="529" y="646"/>
      <point x="353" y="646" type="curve"/>
      <point x="175" y="646"/>
      <point x="74" y="507"/>
      <point x="74" y="319" type="curve"/>
      <point x="98" y="319"/>
      <point x="74" y="319"/>
    </contour>
    <contour>
      <point x="358" y="309" type="curve"/>
      <point x="374" y="270"/>
      <point x="421" y="188"/>
      <point x="436" y="149" type="curve"/>
      <point x="451" y="149"/>
      <point x="445" y="149"/>
      <point x="463" y="149" type="curve"/>
      <point x="447" y="187"/>
      <point x="401" y="270"/>
      <point x="385" y="310" type="curve"/>
      <point x="357" y="309"/>
      <point x="386" y="310"/>
    </contour>
    <contour>
      <point x="300" y="149" type="curve"/>
      <point x="300" y="261"/>
      <point x="300" y="379"/>
      <point x="300" y="491" type="curve"/>
      <point x="283" y="491"/>
      <point x="291" y="491"/>
      <point x="274" y="491" type="curve"/>
      <point x="274" y="379"/>
      <point x="274" y="260"/>
      <point x="274" y="149" type="curve"/>
      <point x="292" y="149"/>
      <point x="282" y="149"/>
    </contour>
    <contour>
      <point x="289" y="295" type="curve"/>
      <point x="306" y="295"/>
      <point x="325" y="295"/>
      <point x="343" y="295" type="curve"/>
      <point x="407" y="295"/>
      <point x="446" y="326"/>
      <point x="446" y="392" type="curve"/>
      <point x="446" y="453"/>
      <point x="410" y="491"/>
      <point x="351" y="491" type="curve"/>
      <point x="334" y="491"/>
      <point x="316" y="491"/>
      <point x="299" y="491" type="curve"/>
      <point x="274" y="469"/>
      <point x="300" y="491"/>
      <point x="274" y="469" type="curve"/>
      <point x="298" y="469"/>
      <point x="322" y="469"/>
      <point x="347" y="469" type="curve"/>
      <point x="393" y="469"/>
      <point x="421" y="439"/>
      <point x="421" y="390" type="curve"/>
      <point x="421" y="340"/>
      <point x="394" y="317"/>
      <point x="347" y="317" type="curve"/>
      <point x="327" y="317"/>
      <point x="307" y="317"/>
      <point x="289" y="317" type="curve"/>
      <point x="289" y="295"/>
      <point x="289" y="317"/>
    </contour>
  </outline>
</glyph>
<glyph name="degree" format="1">
  <advance width="439"/>
  <unicode hex="00B0"/>
  <outline>
    <contour>
      <point x="365" y="433" type="curve"/>
      <point x="365" y="549"/>
      <point x="326" y="639"/>
      <point x="220" y="639" type="curve"/>
      <point x="114" y="639"/>
      <point x="76" y="550"/>
      <point x="76" y="435" type="curve"/>
      <point x="99" y="435"/>
      <point x="76" y="435"/>
      <point x="99" y="435" type="curve"/>
      <point x="99" y="535"/>
      <point x="125" y="617"/>
      <point x="217" y="617" type="curve"/>
      <point x="310" y="617"/>
      <point x="341" y="535"/>
      <point x="341" y="433" type="curve"/>
      <point x="341" y="326"/>
      <point x="315" y="241"/>
      <point x="220" y="241" type="curve"/>
      <point x="124" y="241"/>
      <point x="99" y="328"/>
      <point x="99" y="435" type="curve"/>
      <point x="76" y="435"/>
      <point x="99" y="435"/>
      <point x="76" y="435" type="curve"/>
      <point x="76" y="314"/>
      <point x="110" y="219"/>
      <point x="219" y="219" type="curve"/>
      <point x="328" y="219"/>
      <point x="365" y="312"/>
    </contour>
  </outline>
</glyph>
<glyph name="twosuperior" format="1">
  <advance width="424"/>
  <unicode hex="00B2"/>
  <outline>
    <contour>
      <point x="68" y="285" type="curve"/>
      <point x="163" y="285"/>
      <point x="255" y="285"/>
      <point x="346" y="285" type="curve"/>
      <point x="346" y="296"/>
      <point x="346" y="297"/>
      <point x="346" y="307" type="curve"/>
      <point x="255" y="307"/>
      <point x="158" y="307"/>
      <point x="68" y="307" type="curve"/>
      <point x="68" y="285"/>
      <point x="68" y="307"/>
    </contour>
    <contour>
      <point x="114" y="602" type="curve"/>
      <point x="137" y="646"/>
      <point x="163" y="677"/>
      <point x="215" y="677" type="curve"/>
      <point x="273" y="677"/>
      <point x="305" y="639"/>
      <point x="305" y="580" type="curve"/>
      <point x="305" y="526"/>
      <point x="275" y="498"/>
      <point x="238" y="460" type="curve"/>
      <point x="181" y="409"/>
      <point x="124" y="358"/>
      <point x="68" y="307" type="curve"/>
      <point x="78" y="285"/>
      <point x="68" y="307"/>
      <point x="78" y="285" type="curve"/>
      <point x="137" y="338"/>
      <point x="196" y="390"/>
      <point x="254" y="442" type="curve"/>
      <point x="296" y="486"/>
      <point x="329" y="519"/>
      <point x="329" y="581" type="curve"/>
      <point x="329" y="653"/>
      <point x="286" y="699"/>
      <point x="216" y="699" type="curve"/>
      <point x="156" y="699"/>
      <point x="119" y="669"/>
      <point x="94" y="612" type="curve"/>
      <point x="114" y="602"/>
      <point x="94" y="612"/>
    </contour>
    <contour>
      <point x="228" y="699" type="move" name="_top"/>
    </contour>
    <contour>
      <point x="199" y="284" type="move" name="_bottom"/>
    </contour>
  </outline>
</glyph>
<glyph name="threesuperior" format="1">
  <advance width="380"/>
  <unicode hex="00B3"/>
  <outline>
    <contour>
      <point x="95" y="633" type="curve"/>
      <point x="116" y="657"/>
      <point x="143" y="678"/>
      <point x="178" y="678" type="curve"/>
      <point x="234" y="678"/>
      <point x="271" y="648"/>
      <point x="271" y="592" type="curve"/>
      <point x="271" y="531"/>
      <point x="209" y="509"/>
      <point x="140" y="504" type="curve"/>
      <point x="140" y="484"/>
      <point x="140" y="504"/>
      <point x="140" y="484" type="curve"/>
      <point x="226" y="487"/>
      <point x="296" y="516"/>
      <point x="296" y="594" type="curve"/>
      <point x="296" y="663"/>
      <point x="251" y="699"/>
      <point x="181" y="699" type="curve"/>
      <point x="139" y="699"/>
      <point x="102" y="677"/>
      <point x="78" y="646" type="curve"/>
      <point x="95" y="633"/>
      <point x="78" y="646"/>
    </contour>
    <contour>
      <point x="73" y="313" type="curve"/>
      <point x="103" y="292"/>
      <point x="134" y="280"/>
      <point x="171" y="280" type="curve"/>
      <point x="253" y="277"/>
      <point x="311" y="315"/>
      <point x="309" y="392" type="curve"/>
      <point x="309" y="475"/>
      <point x="231" y="494"/>
      <point x="140" y="497" type="curve"/>
      <point x="140" y="480"/>
      <point x="140" y="497"/>
      <point x="140" y="480" type="curve"/>
      <point x="220" y="475"/>
      <point x="285" y="456"/>
      <point x="285" y="391" type="curve"/>
      <point x="284" y="330"/>
      <point x="240" y="300"/>
      <point x="174" y="302" type="curve"/>
      <point x="141" y="302"/>
      <point x="112" y="312"/>
      <point x="85" y="330" type="curve"/>
      <point x="73" y="313"/>
      <point x="85" y="330"/>
    </contour>
    <contour>
      <point x="200" y="699" type="move" name="_top"/>
    </contour>
    <contour>
      <point x="184" y="280" type="move" name="_bottom"/>
    </contour>
  </outline>
</glyph>
<glyph name="acute" format="1">
  <advance width="212"/>
  <unicode hex="00B4"/>
  <outline>
    <contour>
      <point x="48" y="590" type="line"/>
      <point x="154" y="756" type="line"/>
      <point x="120" y="756" type="line"/>
      <point x="21" y="590" type="line"/>
    </contour>
    <contour>
      <point x="35" y="590" type="move" name="_top"/>
    </contour>
  </outline>
</glyph>
<glyph name="paragraph" format="1">
  <advance width="636"/>
  <unicode hex="00B6"/>
  <outline>
    <contour>
      <point x="376" y="699" type="curve"/>
      <point x="526" y="699"/>
      <point x="376" y="699"/>
      <point x="526" y="699" type="curve"/>
      <point x="526" y="722"/>
      <point x="526" y="699"/>
      <point x="526" y="722" type="curve"/>
      <point x="476" y="722"/>
      <point x="426" y="722"/>
      <point x="376" y="722" type="curve"/>
      <point x="376" y="699"/>
      <point x="376" y="722"/>
    </contour>
    <contour>
      <point x="371" y="346" type="curve"/>
      <point x="327" y="320"/>
      <point x="292" y="303"/>
      <point x="240" y="303" type="curve"/>
      <point x="133" y="303"/>
      <point x="73" y="381"/>
      <point x="73" y="493" type="curve"/>
      <point x="73" y="616"/>
      <point x="144" y="699"/>
      <point x="265" y="699" type="curve"/>
      <point x="301" y="699"/>
      <point x="337" y="699"/>
      <point x="373" y="699" type="curve"/>
      <point x="373" y="722"/>
      <point x="373" y="699"/>
      <point x="373" y="722" type="curve"/>
      <point x="336" y="722"/>
      <point x="299" y="722"/>
      <point x="262" y="722" type="curve"/>
      <point x="128" y="722"/>
      <point x="48" y="630"/>
      <point x="48" y="494" type="curve"/>
      <point x="48" y="363"/>
      <point x="118" y="282"/>
      <point x="241" y="280" type="curve"/>
      <point x="293" y="280"/>
      <point x="337" y="299"/>
      <point x="379" y="325" type="curve"/>
      <point x="371" y="346"/>
      <point x="379" y="326"/>
    </contour>
    <contour>
      <point x="390" y="0" type="curve"/>
      <point x="390" y="241"/>
      <point x="390" y="481"/>
      <point x="390" y="722" type="curve"/>
      <point x="364" y="722"/>
      <point x="390" y="722"/>
      <point x="364" y="722" type="curve"/>
      <point x="364" y="481"/>
      <point x="364" y="241"/>
      <point x="364" y="0" type="curve"/>
      <point x="390" y="0"/>
      <point x="364" y="0"/>
    </contour>
    <contour>
      <point x="535" y="0" type="curve"/>
      <point x="535" y="241"/>
      <point x="535" y="481"/>
      <point x="535" y="722" type="curve"/>
      <point x="510" y="722"/>
      <point x="535" y="722"/>
      <point x="510" y="722" type="curve"/>
      <point x="510" y="481"/>
      <point x="510" y="241"/>
      <point x="510" y="0" type="curve"/>
      <point x="535" y="0"/>
      <point x="510" y="0"/>
    </contour>
  </outline>
</glyph>
<glyph name="cedilla" format="1">
  <advance width="291"/>
  <unicode hex="00B8"/>
  <outline>
    <contour>
      <point x="167" y="19" type="curve"/>
      <point x="154" y="-8"/>
      <point x="141" y="-36"/>
      <point x="128" y="-62" type="curve"/>
      <point x="146" y="-81"/>
      <point x="128" y="-62"/>
      <point x="146" y="-81" type="curve"/>
      <point x="158" y="-53"/>
      <point x="173" y="-24"/>
      <point x="186" y="3" type="curve"/>
      <point x="167" y="19"/>
      <point x="186" y="3"/>
    </contour>
    <contour>
      <point x="146" y="-81" type="curve"/>
      <point x="158" y="-71"/>
      <point x="168" y="-68"/>
      <point x="184" y="-68" type="curve"/>
      <point x="215" y="-68"/>
      <point x="228" y="-91"/>
      <point x="228" y="-124" type="curve"/>
      <point x="228" y="-159"/>
      <point x="207" y="-179"/>
      <point x="172" y="-179" type="curve"/>
      <point x="149" y="-179"/>
      <point x="131" y="-176"/>
      <point x="112" y="-162" type="curve"/>
      <point x="102" y="-180"/>
      <point x="112" y="-162"/>
      <point x="102" y="-180" type="curve"/>
      <point x="124" y="-195"/>
      <point x="144" y="-201"/>
      <point x="171" y="-201" type="curve"/>
      <point x="221" y="-201"/>
      <point x="253" y="-173"/>
      <point x="253" y="-124" type="curve"/>
      <point x="253" y="-78"/>
      <point x="229" y="-45"/>
      <point x="186" y="-45" type="curve"/>
      <point x="163" y="-45"/>
      <point x="148" y="-51"/>
      <point x="128" y="-62" type="curve"/>
      <point x="146" y="-81"/>
      <point x="128" y="-62"/>
    </contour>
    <contour>
      <point x="185" y="3" type="move" name="_bottom"/>
    </contour>
  </outline>
</glyph>
<glyph name="onesuperior" format="1">
  <advance width="273"/>
  <unicode hex="00B9"/>
  <outline>
    <contour>
      <point x="50" y="563" type="line"/>
      <point x="174" y="682" type="line"/>
      <point x="150" y="691" type="line"/>
      <point x="34" y="580" type="line"/>
    </contour>
    <contour>
      <point x="175" y="285" type="curve"/>
      <point x="175" y="691" type="line"/>
      <point x="150" y="691" type="line"/>
      <point x="150" y="285" type="line"/>
      <point x="168" y="285"/>
      <point x="163" y="285"/>
    </contour>
    <contour>
      <point x="163" y="688" type="move" name="_top"/>
    </contour>
    <contour>
      <point x="164" y="288" type="move" name="_bottom"/>
    </contour>
  </outline>
</glyph>
<glyph name="ordmasculine" format="1">
  <advance width="381"/>
  <unicode hex="00BA"/>
  <outline>
    <contour>
      <point x="88" y="604" type="curve"/>
      <point x="88" y="686"/>
      <point x="118" y="745"/>
      <point x="192" y="745" type="curve"/>
      <point x="264" y="745"/>
      <point x="292" y="684"/>
      <point x="292" y="602" type="curve"/>
      <point x="292" y="513"/>
      <point x="265" y="445"/>
      <point x="196" y="445" type="curve"/>
      <point x="116" y="445"/>
      <point x="88" y="514"/>
      <point x="88" y="604" type="curve"/>
      <point x="68" y="604"/>
      <point x="84" y="604"/>
      <point x="64" y="604" type="curve"/>
      <point x="64" y="500"/>
      <point x="100" y="423"/>
      <point x="195" y="423" type="curve"/>
      <point x="282" y="423"/>
      <point x="317" y="499"/>
      <point x="317" y="602" type="curve"/>
      <point x="317" y="698"/>
      <point x="282" y="766"/>
      <point x="193" y="766" type="curve"/>
      <point x="101" y="766"/>
      <point x="64" y="698"/>
      <point x="64" y="604" type="curve"/>
      <point x="84" y="604"/>
      <point x="68" y="604"/>
    </contour>
  </outline>
</glyph>
<glyph name="onequarter" format="1">
  <advance width="837"/>
  <unicode hex="00BC"/>
  <outline>
    <contour>
      <point x="246" y="-92" type="line"/>
      <point x="618" y="756" type="line"/>
      <point x="590" y="756" type="line"/>
      <point x="218" y="-92" type="line"/>
    </contour>
    <contour>
      <point x="51" y="634" type="line"/>
      <point x="175" y="752" type="line"/>
      <point x="151" y="762" type="line"/>
      <point x="35" y="650" type="line"/>
    </contour>
    <contour>
      <point x="176" y="355" type="curve"/>
      <point x="176" y="762" type="line"/>
      <point x="151" y="762" type="line"/>
      <point x="151" y="355" type="line"/>
      <point x="169" y="355"/>
      <point x="164" y="355"/>
    </contour>
    <contour>
      <point x="800" y="43" type="line"/>
      <point x="468" y="43" type="line"/>
      <point x="468" y="22" type="line"/>
      <point x="800" y="22" type="line"/>
    </contour>
    <contour>
      <point x="482" y="23" type="line"/>
      <point x="699" y="328" type="line"/>
      <point x="676" y="337" type="line"/>
      <point x="468" y="43" type="line"/>
    </contour>
    <contour>
      <point x="700" y="-95" type="line"/>
      <point x="700" y="337" type="line"/>
      <point x="676" y="337" type="line"/>
      <point x="676" y="-95" type="line"/>
    </contour>
  </outline>
</glyph>
<glyph name="onehalf" format="1">
  <advance width="870"/>
  <unicode hex="00BD"/>
  <outline>
    <contour>
      <point x="255" y="-92" type="line"/>
      <point x="627" y="756" type="line"/>
      <point x="599" y="756" type="line"/>
      <point x="227" y="-92" type="line"/>
    </contour>
    <contour>
      <point x="51" y="634" type="line"/>
      <point x="175" y="752" type="line"/>
      <point x="151" y="762" type="line"/>
      <point x="35" y="650" type="line"/>
    </contour>
    <contour>
      <point x="176" y="355" type="curve"/>
      <point x="176" y="762" type="line"/>
      <point x="151" y="762" type="line"/>
      <point x="151" y="355" type="line"/>
      <point x="169" y="355"/>
      <point x="164" y="355"/>
    </contour>
    <contour>
      <point x="546" y="-93" type="curve"/>
      <point x="641" y="-93"/>
      <point x="733" y="-93"/>
      <point x="824" y="-93" type="curve"/>
      <point x="824" y="-81"/>
      <point x="824" y="-80"/>
      <point x="824" y="-71" type="curve"/>
      <point x="733" y="-71"/>
      <point x="636" y="-71"/>
      <point x="546" y="-71" type="curve"/>
      <point x="546" y="-93"/>
      <point x="546" y="-71"/>
    </contour>
    <contour>
      <point x="592" y="225" type="curve"/>
      <point x="615" y="269"/>
      <point x="641" y="300"/>
      <point x="693" y="300" type="curve"/>
      <point x="751" y="300"/>
      <point x="783" y="261"/>
      <point x="783" y="202" type="curve"/>
      <point x="783" y="149"/>
      <point x="753" y="120"/>
      <point x="716" y="82" type="curve"/>
      <point x="659" y="32"/>
      <point x="602" y="-20"/>
      <point x="546" y="-71" type="curve"/>
      <point x="556" y="-93"/>
      <point x="546" y="-71"/>
      <point x="556" y="-93" type="curve"/>
      <point x="615" y="-40"/>
      <point x="674" y="12"/>
      <point x="732" y="65" type="curve"/>
      <point x="774" y="109"/>
      <point x="807" y="142"/>
      <point x="807" y="203" type="curve"/>
      <point x="807" y="275"/>
      <point x="764" y="322"/>
      <point x="694" y="322" type="curve"/>
      <point x="634" y="322"/>
      <point x="597" y="291"/>
      <point x="572" y="235" type="curve"/>
      <point x="592" y="225"/>
      <point x="572" y="235"/>
    </contour>
  </outline>
</glyph>
<glyph name="threequarters" format="1">
  <advance width="862"/>
  <unicode hex="00BE"/>
  <outline>
    <contour>
      <point x="272" y="-92" type="line"/>
      <point x="644" y="756" type="line"/>
      <point x="615" y="756" type="line"/>
      <point x="244" y="-92" type="line"/>
    </contour>
    <contour>
      <point x="77" y="693" type="curve"/>
      <point x="99" y="717"/>
      <point x="125" y="737"/>
      <point x="160" y="737" type="curve"/>
      <point x="217" y="737"/>
      <point x="253" y="708"/>
      <point x="253" y="652" type="curve"/>
      <point x="253" y="590"/>
      <point x="191" y="569"/>
      <point x="122" y="563" type="curve"/>
      <point x="122" y="544"/>
      <point x="122" y="563"/>
      <point x="122" y="544" type="curve"/>
      <point x="208" y="546"/>
      <point x="278" y="575"/>
      <point x="278" y="654" type="curve"/>
      <point x="278" y="722"/>
      <point x="233" y="759"/>
      <point x="163" y="759" type="curve"/>
      <point x="121" y="759"/>
      <point x="84" y="737"/>
      <point x="60" y="706" type="curve"/>
      <point x="77" y="693"/>
      <point x="60" y="706"/>
    </contour>
    <contour>
      <point x="55" y="373" type="curve"/>
      <point x="85" y="351"/>
      <point x="117" y="340"/>
      <point x="154" y="340" type="curve"/>
      <point x="235" y="336"/>
      <point x="293" y="374"/>
      <point x="291" y="452" type="curve"/>
      <point x="291" y="535"/>
      <point x="213" y="554"/>
      <point x="122" y="556" type="curve"/>
      <point x="122" y="540"/>
      <point x="122" y="556"/>
      <point x="122" y="540" type="curve"/>
      <point x="202" y="535"/>
      <point x="267" y="516"/>
      <point x="267" y="451" type="curve"/>
      <point x="266" y="389"/>
      <point x="222" y="359"/>
      <point x="156" y="361" type="curve"/>
      <point x="124" y="361"/>
      <point x="95" y="372"/>
      <point x="67" y="389" type="curve"/>
      <point x="55" y="373"/>
      <point x="67" y="389"/>
    </contour>
    <contour>
      <point x="825" y="43" type="line"/>
      <point x="493" y="43" type="line"/>
      <point x="493" y="22" type="line"/>
      <point x="825" y="22" type="line"/>
    </contour>
    <contour>
      <point x="508" y="23" type="line"/>
      <point x="725" y="328" type="line"/>
      <point x="701" y="337" type="line"/>
      <point x="493" y="43" type="line"/>
    </contour>
    <contour>
      <point x="725" y="-95" type="line"/>
      <point x="725" y="337" type="line"/>
      <point x="701" y="337" type="line"/>
      <point x="701" y="-95" type="line"/>
    </contour>
  </outline>
</glyph>
<glyph name="questiondown" format="1">
  <advance width="440"/>
  <unicode hex="00BF"/>
  <outline>
    <contour>
      <point x="260" y="374" type="curve"/>
      <point x="260" y="411"/>
      <point x="260" y="450"/>
      <point x="260" y="487" type="curve"/>
      <point x="234" y="487"/>
      <point x="260" y="487"/>
      <point x="234" y="487" type="curve"/>
      <point x="234" y="450"/>
      <point x="234" y="411"/>
      <point x="234" y="374" type="curve"/>
      <point x="260" y="374"/>
      <point x="234" y="374"/>
    </contour>
    <contour>
      <point x="364" y="85" type="line"/>
      <point x="338" y="50"/>
      <point x="298" y="22"/>
      <point x="242" y="22" type="curve"/>
      <point x="144" y="22"/>
      <point x="90" y="90"/>
      <point x="90" y="189" type="curve"/>
      <point x="90" y="298"/>
      <point x="150" y="374"/>
      <point x="256" y="374" type="curve"/>
      <point x="256" y="393"/>
      <point x="256" y="378"/>
      <point x="256" y="398" type="curve"/>
      <point x="136" y="398"/>
      <point x="65" y="312"/>
      <point x="65" y="189" type="curve"/>
      <point x="65" y="77"/>
      <point x="130" y="-2"/>
      <point x="240" y="-2" type="curve"/>
      <point x="308" y="-2"/>
      <point x="351" y="30"/>
      <point x="382" y="71" type="curve"/>
    </contour>
    <contour>
      <point x="230" y="696" type="curve"/>
      <point x="230" y="685"/>
      <point x="237" y="679"/>
      <point x="248" y="679" type="curve"/>
      <point x="259" y="679"/>
      <point x="265" y="686"/>
      <point x="265" y="696" type="curve"/>
      <point x="230" y="696"/>
      <point x="265" y="696"/>
      <point x="230" y="696" type="curve"/>
      <point x="230" y="707"/>
      <point x="237" y="713"/>
      <point x="248" y="713" type="curve"/>
      <point x="259" y="713"/>
      <point x="265" y="707"/>
      <point x="265" y="696" type="curve"/>
      <point x="230" y="696"/>
      <point x="265" y="696"/>
    </contour>
  </outline>
</glyph>
<glyph name="Atilde" format="1">
  <advance width="556"/>
  <unicode hex="00C3"/>
  <outline>
    <contour>
      <point x="428" y="277" type="curve"/>
      <point x="326" y="277"/>
      <point x="225" y="277"/>
      <point x="124" y="277" type="curve"/>
      <point x="114" y="253"/>
      <point x="124" y="277"/>
      <point x="114" y="253" type="curve"/>
      <point x="221" y="253"/>
      <point x="328" y="253"/>
      <point x="436" y="253" type="curve"/>
      <point x="428" y="277"/>
      <point x="436" y="253"/>
    </contour>
    <contour>
      <point x="531" y="0" type="curve"/>
      <point x="452" y="241"/>
      <point x="374" y="481"/>
      <point x="295" y="722" type="curve"/>
      <point x="272" y="722"/>
      <point x="295" y="722"/>
      <point x="272" y="722" type="curve"/>
      <point x="349" y="481"/>
      <point x="427" y="241"/>
      <point x="504" y="0" type="curve"/>
      <point x="531" y="0"/>
      <point x="504" y="0"/>
    </contour>
    <contour>
      <point x="34" y="0" type="curve"/>
      <point x="120" y="241"/>
      <point x="206" y="481"/>
      <point x="293" y="722" type="curve"/>
      <point x="270" y="722"/>
      <point x="293" y="722"/>
      <point x="270" y="722" type="curve"/>
      <point x="182" y="481"/>
      <point x="94" y="241"/>
      <point x="6" y="0" type="curve"/>
      <point x="34" y="0"/>
      <point x="6" y="0"/>
    </contour>
    <contour>
      <point x="427" y="949" type="curve"/>
      <point x="416" y="897"/>
      <point x="405" y="846"/>
      <point x="365" y="846" type="curve"/>
      <point x="330" y="846"/>
      <point x="311" y="867"/>
      <point x="290" y="895" type="curve"/>
      <point x="265" y="926"/>
      <point x="246" y="950"/>
      <point x="206" y="950" type="curve"/>
      <point x="145" y="950"/>
      <point x="127" y="897"/>
      <point x="116" y="831" type="curve"/>
      <point x="136" y="824"/>
      <point x="116" y="831"/>
      <point x="136" y="824" type="curve"/>
      <point x="147" y="880"/>
      <point x="159" y="927"/>
      <point x="206" y="927" type="curve"/>
      <point x="239" y="927"/>
      <point x="253" y="906"/>
      <point x="272" y="880" type="curve"/>
      <point x="298" y="847"/>
      <point x="321" y="824"/>
      <point x="364" y="824" type="curve"/>
      <point x="424" y="824"/>
      <point x="435" y="881"/>
      <point x="449" y="944" type="curve"/>
      <point x="427" y="949"/>
      <point x="449" y="944"/>
    </contour>
  </outline>
</glyph>
<glyph name="Adieresis" format="1">
  <advance width="556"/>
  <unicode hex="00C4"/>
  <outline>
    <contour>
      <point x="428" y="277" type="curve"/>
      <point x="326" y="277"/>
      <point x="225" y="277"/>
      <point x="124" y="277" type="curve"/>
      <point x="114" y="253"/>
      <point x="124" y="277"/>
      <point x="114" y="253" type="curve"/>
      <point x="221" y="253"/>
      <point x="328" y="253"/>
      <point x="436" y="253" type="curve"/>
      <point x="428" y="277"/>
      <point x="436" y="253"/>
    </contour>
    <contour>
      <point x="531" y="0" type="curve"/>
      <point x="452" y="241"/>
      <point x="374" y="481"/>
      <point x="295" y="722" type="curve"/>
      <point x="272" y="722"/>
      <point x="295" y="722"/>
      <point x="272" y="722" type="curve"/>
      <point x="349" y="481"/>
      <point x="427" y="241"/>
      <point x="504" y="0" type="curve"/>
      <point x="531" y="0"/>
      <point x="504" y="0"/>
    </contour>
    <contour>
      <point x="34" y="0" type="curve"/>
      <point x="120" y="241"/>
      <point x="206" y="481"/>
      <point x="293" y="722" type="curve"/>
      <point x="270" y="722"/>
      <point x="293" y="722"/>
      <point x="270" y="722" type="curve"/>
      <point x="182" y="481"/>
      <point x="94" y="241"/>
      <point x="6" y="0" type="curve"/>
      <point x="34" y="0"/>
      <point x="6" y="0"/>
    </contour>
    <contour>
      <point x="248" y="840" type="curve"/>
      <point x="248" y="852"/>
      <point x="240" y="858"/>
      <point x="228" y="858" type="curve"/>
      <point x="217" y="858"/>
      <point x="211" y="851"/>
      <point x="211" y="840" type="curve"/>
      <point x="241" y="840"/>
      <point x="217" y="840"/>
      <point x="248" y="840" type="curve"/>
      <point x="248" y="829"/>
      <point x="240" y="822"/>
      <point x="228" y="822" type="curve"/>
      <point x="217" y="822"/>
      <point x="211" y="829"/>
      <point x="211" y="840" type="curve"/>
      <point x="241" y="840"/>
      <point x="217" y="840"/>
    </contour>
    <contour>
      <point x="353" y="840" type="curve"/>
      <point x="353" y="852"/>
      <point x="346" y="858"/>
      <point x="334" y="858" type="curve"/>
      <point x="323" y="858"/>
      <point x="316" y="851"/>
      <point x="316" y="840" type="curve"/>
      <point x="347" y="840"/>
      <point x="323" y="840"/>
      <point x="353" y="840" type="curve"/>
      <point x="353" y="829"/>
      <point x="346" y="822"/>
      <point x="334" y="822" type="curve"/>
      <point x="323" y="822"/>
      <point x="316" y="829"/>
      <point x="316" y="840" type="curve"/>
      <point x="347" y="840"/>
      <point x="323" y="840"/>
    </contour>
  </outline>
</glyph>
<glyph name="Aring" format="1">
  <advance width="556"/>
  <unicode hex="00C5"/>
  <outline>
    <contour>
      <point x="428" y="277" type="curve"/>
      <point x="326" y="277"/>
      <point x="225" y="277"/>
      <point x="124" y="277" type="curve"/>
      <point x="114" y="253"/>
      <point x="124" y="277"/>
      <point x="114" y="253" type="curve"/>
      <point x="221" y="253"/>
      <point x="328" y="253"/>
      <point x="436" y="253" type="curve"/>
      <point x="428" y="277"/>
      <point x="436" y="253"/>
    </contour>
    <contour>
      <point x="531" y="0" type="curve"/>
      <point x="452" y="241"/>
      <point x="374" y="481"/>
      <point x="295" y="722" type="curve"/>
      <point x="272" y="722"/>
      <point x="295" y="722"/>
      <point x="272" y="722" type="curve"/>
      <point x="349" y="481"/>
      <point x="427" y="241"/>
      <point x="504" y="0" type="curve"/>
      <point x="531" y="0"/>
      <point x="504" y="0"/>
    </contour>
    <contour>
      <point x="34" y="0" type="curve"/>
      <point x="120" y="241"/>
      <point x="206" y="481"/>
      <point x="293" y="722" type="curve"/>
      <point x="270" y="722"/>
      <point x="293" y="722"/>
      <point x="270" y="722" type="curve"/>
      <point x="182" y="481"/>
      <point x="94" y="241"/>
      <point x="6" y="0" type="curve"/>
      <point x="34" y="0"/>
      <point x="6" y="0"/>
    </contour>
    <contour>
      <point x="181" y="940" type="curve"/>
      <point x="181" y="871"/>
      <point x="216" y="824"/>
      <point x="282" y="824" type="curve"/>
      <point x="349" y="824"/>
      <point x="386" y="870"/>
      <point x="386" y="940" type="curve"/>
      <point x="386" y="1010"/>
      <point x="348" y="1057"/>
      <point x="280" y="1057" type="curve"/>
      <point x="215" y="1057"/>
      <point x="181" y="1010"/>
      <point x="181" y="940" type="curve"/>
      <point x="205" y="940"/>
      <point x="181" y="940"/>
      <point x="205" y="940" type="curve"/>
      <point x="205" y="995"/>
      <point x="228" y="1035"/>
      <point x="280" y="1035" type="curve"/>
      <point x="334" y="1035"/>
      <point x="361" y="997"/>
      <point x="361" y="940" type="curve"/>
      <point x="361" y="884"/>
      <point x="335" y="845"/>
      <point x="282" y="845" type="curve"/>
      <point x="229" y="845"/>
      <point x="205" y="884"/>
      <point x="205" y="940" type="curve"/>
      <point x="181" y="940"/>
      <point x="205" y="940"/>
    </contour>
  </outline>
</glyph>
<glyph name="AE" format="1">
  <advance width="775"/>
  <unicode hex="00C6"/>
  <outline>
    <contour>
      <point x="372" y="267" type="curve"/>
      <point x="270" y="267"/>
      <point x="243" y="267"/>
      <point x="142" y="267" type="curve"/>
      <point x="131" y="243"/>
      <point x="142" y="267"/>
      <point x="131" y="243" type="curve"/>
      <point x="239" y="243"/>
      <point x="272" y="243"/>
      <point x="380" y="243" type="curve"/>
      <point x="372" y="267"/>
      <point x="380" y="243"/>
    </contour>
    <contour>
      <point x="27" y="0" type="curve"/>
      <point x="386" y="722" type="line"/>
      <point x="363" y="722"/>
      <point x="385" y="722"/>
      <point x="362" y="722" type="curve"/>
      <point x="-2" y="0" type="line"/>
      <point x="26" y="0"/>
      <point x="-1" y="0"/>
    </contour>
    <contour>
      <point x="379" y="363" type="curve"/>
      <point x="475" y="363"/>
      <point x="570" y="363"/>
      <point x="666" y="363" type="curve"/>
      <point x="666" y="385"/>
      <point x="666" y="363"/>
      <point x="666" y="385" type="curve"/>
      <point x="570" y="385"/>
      <point x="475" y="385"/>
      <point x="379" y="385" type="curve"/>
      <point x="379" y="363"/>
      <point x="379" y="385"/>
    </contour>
    <contour>
      <point x="367" y="699" type="curve"/>
      <point x="485" y="699"/>
      <point x="603" y="699"/>
      <point x="721" y="699" type="curve"/>
      <point x="721" y="722"/>
      <point x="721" y="699"/>
      <point x="721" y="722" type="curve"/>
      <point x="603" y="722"/>
      <point x="485" y="722"/>
      <point x="367" y="722" type="curve"/>
      <point x="367" y="699"/>
      <point x="367" y="722"/>
    </contour>
    <contour>
      <point x="387" y="0" type="curve"/>
      <point x="387" y="722" type="line"/>
      <point x="362" y="722"/>
      <point x="387" y="722"/>
      <point x="362" y="722" type="curve"/>
      <point x="362" y="481"/>
      <point x="362" y="241"/>
      <point x="362" y="0" type="curve"/>
      <point x="387" y="0"/>
      <point x="362" y="0"/>
    </contour>
    <contour>
      <point x="367" y="0" type="curve"/>
      <point x="495" y="0"/>
      <point x="622" y="0"/>
      <point x="750" y="0" type="curve"/>
      <point x="750" y="23"/>
      <point x="750" y="0"/>
      <point x="750" y="23" type="curve"/>
      <point x="622" y="23"/>
      <point x="495" y="23"/>
      <point x="367" y="23" type="curve"/>
      <point x="367" y="0"/>
      <point x="367" y="23"/>
    </contour>
  </outline>
</glyph>
<glyph name="Ccedilla" format="1">
  <advance width="605"/>
  <unicode hex="00C7"/>
  <outline>
    <contour>
      <point x="553" y="655" type="curve"/>
      <point x="496" y="695"/>
      <point x="431" y="727"/>
      <point x="355" y="727" type="curve"/>
      <point x="151" y="727"/>
      <point x="72" y="568"/>
      <point x="72" y="344" type="curve"/>
      <point x="72" y="139"/>
      <point x="147" y="-5"/>
      <point x="336" y="-5" type="curve"/>
      <point x="437" y="-5"/>
      <point x="498" y="32"/>
      <point x="570" y="96" type="curve"/>
      <point x="553" y="114"/>
      <point x="569" y="96"/>
      <point x="553" y="114" type="curve"/>
      <point x="488" y="54"/>
      <point x="429" y="21"/>
      <point x="337" y="21" type="curve"/>
      <point x="164" y="21"/>
      <point x="97" y="156"/>
      <point x="97" y="345" type="curve"/>
      <point x="97" y="551"/>
      <point x="169" y="702"/>
      <point x="354" y="702" type="curve"/>
      <point x="425" y="702"/>
      <point x="487" y="675"/>
      <point x="539" y="637" type="curve"/>
      <point x="553" y="655"/>
      <point x="539" y="637"/>
    </contour>
    <contour>
      <point x="318" y="12" type="curve"/>
      <point x="305" y="-15"/>
      <point x="292" y="-42"/>
      <point x="279" y="-69" type="curve"/>
      <point x="297" y="-87"/>
      <point x="279" y="-69"/>
      <point x="297" y="-87" type="curve"/>
      <point x="309" y="-59"/>
      <point x="324" y="-31"/>
      <point x="337" y="-3" type="curve"/>
      <point x="318" y="12"/>
      <point x="337" y="-3"/>
    </contour>
    <contour>
      <point x="297" y="-87" type="curve"/>
      <point x="309" y="-78"/>
      <point x="319" y="-74"/>
      <point x="335" y="-74" type="curve"/>
      <point x="366" y="-74"/>
      <point x="379" y="-98"/>
      <point x="379" y="-131" type="curve"/>
      <point x="379" y="-166"/>
      <point x="358" y="-186"/>
      <point x="323" y="-186" type="curve"/>
      <point x="300" y="-186"/>
      <point x="282" y="-182"/>
      <point x="263" y="-169" type="curve"/>
      <point x="253" y="-186"/>
      <point x="263" y="-169"/>
      <point x="253" y="-186" type="curve"/>
      <point x="275" y="-201"/>
      <point x="295" y="-208"/>
      <point x="322" y="-208" type="curve"/>
      <point x="372" y="-208"/>
      <point x="404" y="-180"/>
      <point x="404" y="-131" type="curve"/>
      <point x="404" y="-84"/>
      <point x="380" y="-52"/>
      <point x="337" y="-52" type="curve"/>
      <point x="314" y="-52"/>
      <point x="299" y="-58"/>
      <point x="279" y="-69" type="curve"/>
      <point x="297" y="-87"/>
      <point x="279" y="-69"/>
    </contour>
  </outline>
</glyph>
<glyph name="Ecircumflex" format="1">
  <advance width="540"/>
  <unicode hex="00CA"/>
  <outline>
    <contour>
      <point x="145" y="363" type="curve"/>
      <point x="240" y="363"/>
      <point x="335" y="363"/>
      <point x="431" y="363" type="curve"/>
      <point x="431" y="385"/>
      <point x="431" y="363"/>
      <point x="431" y="385" type="curve"/>
      <point x="335" y="385"/>
      <point x="240" y="385"/>
      <point x="145" y="385" type="curve"/>
      <point x="145" y="363"/>
      <point x="145" y="385"/>
    </contour>
    <contour>
      <point x="132" y="699" type="curve"/>
      <point x="250" y="699"/>
      <point x="368" y="699"/>
      <point x="486" y="699" type="curve"/>
      <point x="486" y="722"/>
      <point x="486" y="699"/>
      <point x="486" y="722" type="curve"/>
      <point x="368" y="722"/>
      <point x="250" y="722"/>
      <point x="132" y="722" type="curve"/>
      <point x="132" y="699"/>
      <point x="132" y="722"/>
    </contour>
    <contour>
      <point x="152" y="0" type="curve"/>
      <point x="152" y="722" type="line"/>
      <point x="127" y="722"/>
      <point x="152" y="722"/>
      <point x="127" y="722" type="curve"/>
      <point x="127" y="481"/>
      <point x="127" y="241"/>
      <point x="127" y="0" type="curve"/>
      <point x="152" y="0"/>
      <point x="127" y="0"/>
    </contour>
    <contour>
      <point x="132" y="0" type="curve"/>
      <point x="260" y="0"/>
      <point x="387" y="0"/>
      <point x="516" y="0" type="curve"/>
      <point x="516" y="23"/>
      <point x="516" y="0"/>
      <point x="516" y="23" type="curve"/>
      <point x="387" y="23"/>
      <point x="260" y="23"/>
      <point x="132" y="23" type="curve"/>
      <point x="132" y="0"/>
      <point x="132" y="23"/>
    </contour>
    <contour>
      <point x="182" y="825" type="line"/>
      <point x="289" y="991" type="line"/>
      <point x="254" y="991" type="line"/>
      <point x="155" y="825" type="line"/>
    </contour>
    <contour>
      <point x="397" y="825" type="line"/>
      <point x="299" y="991" type="line"/>
      <point x="264" y="991" type="line"/>
      <point x="371" y="825" type="line"/>
    </contour>
  </outline>
</glyph>
<glyph name="Edieresis" format="1">
  <advance width="541"/>
  <unicode hex="00CB"/>
  <outline>
    <contour>
      <point x="145" y="363" type="curve"/>
      <point x="240" y="363"/>
      <point x="335" y="363"/>
      <point x="431" y="363" type="curve"/>
      <point x="431" y="385"/>
      <point x="431" y="363"/>
      <point x="431" y="385" type="curve"/>
      <point x="335" y="385"/>
      <point x="240" y="385"/>
      <point x="145" y="385" type="curve"/>
      <point x="145" y="363"/>
      <point x="145" y="385"/>
    </contour>
    <contour>
      <point x="132" y="699" type="curve"/>
      <point x="250" y="699"/>
      <point x="368" y="699"/>
      <point x="486" y="699" type="curve"/>
      <point x="486" y="722"/>
      <point x="486" y="699"/>
      <point x="486" y="722" type="curve"/>
      <point x="368" y="722"/>
      <point x="250" y="722"/>
      <point x="132" y="722" type="curve"/>
      <point x="132" y="699"/>
      <point x="132" y="722"/>
    </contour>
    <contour>
      <point x="153" y="0" type="curve"/>
      <point x="153" y="722" type="line"/>
      <point x="127" y="722"/>
      <point x="153" y="722"/>
      <point x="127" y="722" type="curve"/>
      <point x="127" y="481"/>
      <point x="127" y="241"/>
      <point x="127" y="0" type="curve"/>
      <point x="153" y="0"/>
      <point x="127" y="0"/>
    </contour>
    <contour>
      <point x="132" y="0" type="curve"/>
      <point x="260" y="0"/>
      <point x="388" y="0"/>
      <point x="516" y="0" type="curve"/>
      <point x="516" y="23"/>
      <point x="516" y="0"/>
      <point x="516" y="23" type="curve"/>
      <point x="388" y="23"/>
      <point x="260" y="23"/>
      <point x="132" y="23" type="curve"/>
      <point x="132" y="0"/>
      <point x="132" y="23"/>
    </contour>
    <contour>
      <point x="242" y="840" type="curve"/>
      <point x="242" y="852"/>
      <point x="235" y="858"/>
      <point x="223" y="858" type="curve"/>
      <point x="212" y="858"/>
      <point x="205" y="851"/>
      <point x="205" y="840" type="curve"/>
      <point x="236" y="840"/>
      <point x="212" y="840"/>
      <point x="242" y="840" type="curve"/>
      <point x="242" y="829"/>
      <point x="235" y="822"/>
      <point x="223" y="822" type="curve"/>
      <point x="212" y="822"/>
      <point x="205" y="829"/>
      <point x="205" y="840" type="curve"/>
      <point x="236" y="840"/>
      <point x="212" y="840"/>
    </contour>
    <contour>
      <point x="348" y="840" type="curve"/>
      <point x="348" y="852"/>
      <point x="341" y="858"/>
      <point x="329" y="858" type="curve"/>
      <point x="318" y="858"/>
      <point x="311" y="851"/>
      <point x="311" y="840" type="curve"/>
      <point x="342" y="840"/>
      <point x="317" y="840"/>
      <point x="348" y="840" type="curve"/>
      <point x="348" y="829"/>
      <point x="341" y="822"/>
      <point x="329" y="822" type="curve"/>
      <point x="318" y="822"/>
      <point x="311" y="829"/>
      <point x="311" y="840" type="curve"/>
      <point x="342" y="840"/>
      <point x="317" y="840"/>
    </contour>
  </outline>
</glyph>
<glyph name="Igrave" format="1">
  <advance width="288"/>
  <unicode hex="00CC"/>
  <outline>
    <contour>
      <point x="159" y="0" type="curve"/>
      <point x="159" y="241"/>
      <point x="159" y="481"/>
      <point x="159" y="722" type="curve"/>
      <point x="133" y="722"/>
      <point x="159" y="722"/>
      <point x="133" y="722" type="curve"/>
      <point x="133" y="481"/>
      <point x="133" y="241"/>
      <point x="133" y="0" type="curve"/>
      <point x="159" y="0"/>
      <point x="133" y="0"/>
    </contour>
    <contour>
      <point x="163" y="825" type="line"/>
      <point x="64" y="991" type="line"/>
      <point x="29" y="991" type="line"/>
      <point x="136" y="825" type="line"/>
    </contour>
  </outline>
</glyph>
<glyph name="Iacute" format="1">
  <advance width="283"/>
  <unicode hex="00CD"/>
  <outline>
    <contour>
      <point x="151" y="0" type="curve"/>
      <point x="151" y="241"/>
      <point x="151" y="481"/>
      <point x="151" y="722" type="curve"/>
      <point x="126" y="722"/>
      <point x="151" y="722"/>
      <point x="126" y="722" type="curve"/>
      <point x="126" y="481"/>
      <point x="126" y="241"/>
      <point x="126" y="0" type="curve"/>
      <point x="151" y="0"/>
      <point x="126" y="0"/>
    </contour>
    <contour>
      <point x="152" y="825" type="line"/>
      <point x="259" y="991" type="line"/>
      <point x="224" y="991" type="line"/>
      <point x="125" y="825" type="line"/>
    </contour>
  </outline>
</glyph>
<glyph name="Icircumflex" format="1">
  <advance width="271"/>
  <unicode hex="00CE"/>
  <outline>
    <contour>
      <point x="152" y="0" type="curve"/>
      <point x="152" y="241"/>
      <point x="152" y="481"/>
      <point x="152" y="722" type="curve"/>
      <point x="127" y="722"/>
      <point x="152" y="722"/>
      <point x="127" y="722" type="curve"/>
      <point x="127" y="481"/>
      <point x="127" y="241"/>
      <point x="127" y="0" type="curve"/>
      <point x="152" y="0"/>
      <point x="127" y="0"/>
    </contour>
    <contour>
      <point x="46" y="825" type="line"/>
      <point x="153" y="991" type="line"/>
      <point x="118" y="991" type="line"/>
      <point x="19" y="825" type="line"/>
    </contour>
    <contour>
      <point x="261" y="825" type="line"/>
      <point x="163" y="991" type="line"/>
      <point x="128" y="991" type="line"/>
      <point x="235" y="825" type="line"/>
    </contour>
  </outline>
</glyph>
<glyph name="Idieresis" format="1">
  <advance width="222"/>
  <unicode hex="00CF"/>
  <outline>
    <contour>
      <point x="125" y="0" type="curve"/>
      <point x="125" y="241"/>
      <point x="125" y="481"/>
      <point x="125" y="722" type="curve"/>
      <point x="99" y="722"/>
      <point x="125" y="722"/>
      <point x="99" y="722" type="curve"/>
      <point x="99" y="481"/>
      <point x="99" y="241"/>
      <point x="99" y="0" type="curve"/>
      <point x="125" y="0"/>
      <point x="99" y="0"/>
    </contour>
    <contour>
      <point x="79" y="840" type="curve"/>
      <point x="79" y="852"/>
      <point x="71" y="858"/>
      <point x="59" y="858" type="curve"/>
      <point x="48" y="858"/>
      <point x="42" y="851"/>
      <point x="42" y="840" type="curve"/>
      <point x="72" y="840"/>
      <point x="48" y="840"/>
      <point x="79" y="840" type="curve"/>
      <point x="79" y="829"/>
      <point x="71" y="822"/>
      <point x="59" y="822" type="curve"/>
      <point x="48" y="822"/>
      <point x="42" y="829"/>
      <point x="42" y="840" type="curve"/>
      <point x="72" y="840"/>
      <point x="48" y="840"/>
    </contour>
    <contour>
      <point x="184" y="840" type="curve"/>
      <point x="184" y="852"/>
      <point x="177" y="858"/>
      <point x="165" y="858" type="curve"/>
      <point x="154" y="858"/>
      <point x="147" y="851"/>
      <point x="147" y="840" type="curve"/>
      <point x="178" y="840"/>
      <point x="154" y="840"/>
      <point x="184" y="840" type="curve"/>
      <point x="184" y="829"/>
      <point x="177" y="822"/>
      <point x="165" y="822" type="curve"/>
      <point x="154" y="822"/>
      <point x="147" y="829"/>
      <point x="147" y="840" type="curve"/>
      <point x="178" y="840"/>
      <point x="154" y="840"/>
    </contour>
  </outline>
</glyph>
<glyph name="Ntilde" format="1">
  <advance width="753"/>
  <unicode hex="00D1"/>
  <outline>
    <contour>
      <point x="625" y="0" type="curve"/>
      <point x="470" y="241"/>
      <point x="314" y="481"/>
      <point x="158" y="722" type="curve"/>
      <point x="128" y="722"/>
      <point x="158" y="722"/>
      <point x="127" y="722" type="curve"/>
      <point x="283" y="481"/>
      <point x="439" y="241"/>
      <point x="595" y="0" type="curve"/>
      <point x="625" y="0"/>
      <point x="595" y="0"/>
    </contour>
    <contour>
      <point x="600" y="722" type="curve"/>
      <point x="600" y="481"/>
      <point x="600" y="241"/>
      <point x="600" y="0" type="curve"/>
      <point x="626" y="0"/>
      <point x="600" y="0"/>
      <point x="626" y="0" type="curve"/>
      <point x="626" y="241"/>
      <point x="626" y="481"/>
      <point x="626" y="722" type="curve"/>
      <point x="600" y="722"/>
      <point x="626" y="722"/>
    </contour>
    <contour>
      <point x="154" y="0" type="curve"/>
      <point x="154" y="241"/>
      <point x="154" y="481"/>
      <point x="154" y="722" type="curve"/>
      <point x="128" y="722"/>
      <point x="154" y="722"/>
      <point x="128" y="722" type="curve"/>
      <point x="128" y="481"/>
      <point x="128" y="241"/>
      <point x="128" y="0" type="curve"/>
      <point x="154" y="0"/>
      <point x="128" y="0"/>
    </contour>
    <contour>
      <point x="532" y="949" type="curve"/>
      <point x="520" y="897"/>
      <point x="510" y="846"/>
      <point x="470" y="846" type="curve"/>
      <point x="434" y="846"/>
      <point x="416" y="867"/>
      <point x="394" y="895" type="curve"/>
      <point x="369" y="926"/>
      <point x="350" y="950"/>
      <point x="310" y="950" type="curve"/>
      <point x="249" y="950"/>
      <point x="232" y="897"/>
      <point x="220" y="831" type="curve"/>
      <point x="241" y="824"/>
      <point x="220" y="831"/>
      <point x="241" y="824" type="curve"/>
      <point x="251" y="880"/>
      <point x="263" y="927"/>
      <point x="311" y="927" type="curve"/>
      <point x="343" y="927"/>
      <point x="357" y="906"/>
      <point x="376" y="880" type="curve"/>
      <point x="403" y="847"/>
      <point x="426" y="824"/>
      <point x="468" y="824" type="curve"/>
      <point x="528" y="824"/>
      <point x="539" y="881"/>
      <point x="554" y="944" type="curve"/>
      <point x="532" y="949"/>
      <point x="554" y="944"/>
    </contour>
  </outline>
</glyph>
<glyph name="Otilde" format="1">
  <advance width="674"/>
  <unicode hex="00D5"/>
  <outline>
    <contour>
      <point x="98" y="360" type="curve" name="FullCurve"/>
      <point x="98" y="551"/>
      <point x="160" y="703"/>
      <point x="335" y="703" type="curve" name="FullCurve"/>
      <point x="510" y="703"/>
      <point x="576" y="553"/>
      <point x="576" y="363" type="curve" name="FullCurve"/>
      <point x="576" y="174"/>
      <point x="513" y="19"/>
      <point x="338" y="19" type="curve" name="FullCurve"/>
      <point x="162" y="19"/>
      <point x="98" y="169"/>
      <point x="98" y="360" type="curve" name="FullCurve"/>
      <point x="72" y="360"/>
      <point x="98" y="360"/>
      <point x="72" y="360" type="curve" name="FullCurve"/>
      <point x="72" y="153"/>
      <point x="148" y="-5"/>
      <point x="337" y="-5" type="curve" name="FullCurve"/>
      <point x="527" y="-5"/>
      <point x="602" y="155"/>
      <point x="602" y="363" type="curve" name="FullCurve"/>
      <point x="602" y="569"/>
      <point x="527" y="727"/>
      <point x="337" y="727" type="curve" name="FullCurve"/>
      <point x="146" y="727"/>
      <point x="72" y="567"/>
      <point x="72" y="360" type="curve" name="FullCurve"/>
      <point x="98" y="360"/>
      <point x="72" y="360"/>
    </contour>
    <contour>
      <point x="481" y="949" type="curve"/>
      <point x="470" y="897"/>
      <point x="459" y="846"/>
      <point x="419" y="846" type="curve"/>
      <point x="384" y="846"/>
      <point x="365" y="867"/>
      <point x="344" y="895" type="curve"/>
      <point x="319" y="926"/>
      <point x="300" y="950"/>
      <point x="260" y="950" type="curve"/>
      <point x="199" y="950"/>
      <point x="181" y="897"/>
      <point x="170" y="831" type="curve"/>
      <point x="190" y="824"/>
      <point x="170" y="831"/>
      <point x="190" y="824" type="curve"/>
      <point x="201" y="880"/>
      <point x="213" y="927"/>
      <point x="260" y="927" type="curve"/>
      <point x="293" y="927"/>
      <point x="307" y="906"/>
      <point x="326" y="880" type="curve"/>
      <point x="352" y="847"/>
      <point x="375" y="824"/>
      <point x="418" y="824" type="curve"/>
      <point x="478" y="824"/>
      <point x="489" y="881"/>
      <point x="503" y="944" type="curve"/>
      <point x="481" y="949"/>
      <point x="503" y="944"/>
    </contour>
  </outline>
</glyph>
<glyph name="Odieresis" format="1">
  <advance width="674"/>
  <unicode hex="00D6"/>
  <outline>
    <contour>
      <point x="98" y="360" type="curve" name="FullCurve"/>
      <point x="98" y="551"/>
      <point x="160" y="703"/>
      <point x="335" y="703" type="curve" name="FullCurve"/>
      <point x="510" y="703"/>
      <point x="576" y="553"/>
      <point x="576" y="363" type="curve" name="FullCurve"/>
      <point x="576" y="174"/>
      <point x="513" y="19"/>
      <point x="338" y="19" type="curve" name="FullCurve"/>
      <point x="162" y="19"/>
      <point x="98" y="169"/>
      <point x="98" y="360" type="curve" name="FullCurve"/>
      <point x="72" y="360"/>
      <point x="98" y="360"/>
      <point x="72" y="360" type="curve" name="FullCurve"/>
      <point x="72" y="153"/>
      <point x="148" y="-5"/>
      <point x="337" y="-5" type="curve" name="FullCurve"/>
      <point x="527" y="-5"/>
      <point x="602" y="155"/>
      <point x="602" y="363" type="curve" name="FullCurve"/>
      <point x="602" y="569"/>
      <point x="527" y="727"/>
      <point x="337" y="727" type="curve" name="FullCurve"/>
      <point x="146" y="727"/>
      <point x="72" y="567"/>
      <point x="72" y="360" type="curve" name="FullCurve"/>
      <point x="98" y="360"/>
      <point x="72" y="360"/>
    </contour>
    <contour>
      <point x="302" y="840" type="curve"/>
      <point x="302" y="852"/>
      <point x="294" y="858"/>
      <point x="282" y="858" type="curve"/>
      <point x="271" y="858"/>
      <point x="265" y="851"/>
      <point x="265" y="840" type="curve"/>
      <point x="295" y="840"/>
      <point x="271" y="840"/>
      <point x="302" y="840" type="curve"/>
      <point x="302" y="829"/>
      <point x="294" y="822"/>
      <point x="282" y="822" type="curve"/>
      <point x="271" y="822"/>
      <point x="265" y="829"/>
      <point x="265" y="840" type="curve"/>
      <point x="295" y="840"/>
      <point x="271" y="840"/>
    </contour>
    <contour>
      <point x="407" y="840" type="curve"/>
      <point x="407" y="852"/>
      <point x="400" y="858"/>
      <point x="388" y="858" type="curve"/>
      <point x="377" y="858"/>
      <point x="370" y="851"/>
      <point x="370" y="840" type="curve"/>
      <point x="401" y="840"/>
      <point x="377" y="840"/>
      <point x="407" y="840" type="curve"/>
      <point x="407" y="829"/>
      <point x="400" y="822"/>
      <point x="388" y="822" type="curve"/>
      <point x="377" y="822"/>
      <point x="370" y="829"/>
      <point x="370" y="840" type="curve"/>
      <point x="401" y="840"/>
      <point x="377" y="840"/>
    </contour>
  </outline>
</glyph>
<glyph name="multiply" format="1">
  <advance width="513"/>
  <unicode hex="00D7"/>
  <outline>
    <contour>
      <point x="88" y="123" type="line"/>
      <point x="442" y="477" type="line"/>
      <point x="424" y="494" type="line"/>
      <point x="71" y="140" type="line"/>
    </contour>
    <contour>
      <point x="444" y="139" type="line"/>
      <point x="89" y="495" type="line"/>
      <point x="71" y="478" type="line"/>
      <point x="426" y="122" type="line"/>
    </contour>
  </outline>
</glyph>
<glyph name="Ucircumflex" format="1">
  <advance width="698"/>
  <unicode hex="00DB"/>
  <outline>
    <contour>
      <point x="117" y="721" type="curve"/>
      <point x="117" y="563"/>
      <point x="117" y="429"/>
      <point x="117" y="271" type="curve"/>
      <point x="117" y="96"/>
      <point x="183" y="-5"/>
      <point x="351" y="-5" type="curve"/>
      <point x="514" y="-5"/>
      <point x="581" y="93"/>
      <point x="581" y="263" type="curve"/>
      <point x="581" y="424"/>
      <point x="581" y="561"/>
      <point x="581" y="721" type="curve"/>
      <point x="561" y="721"/>
      <point x="577" y="721"/>
      <point x="557" y="721" type="curve"/>
      <point x="557" y="559"/>
      <point x="557" y="421"/>
      <point x="557" y="259" type="curve"/>
      <point x="557" y="109"/>
      <point x="495" y="20"/>
      <point x="353" y="20" type="curve"/>
      <point x="200" y="20"/>
      <point x="142" y="114"/>
      <point x="142" y="275" type="curve"/>
      <point x="142" y="432"/>
      <point x="142" y="565"/>
      <point x="142" y="721" type="curve"/>
      <point x="122" y="721"/>
      <point x="137" y="721"/>
    </contour>
    <contour>
      <point x="259" y="825" type="line"/>
      <point x="365" y="991" type="line"/>
      <point x="330" y="991" type="line"/>
      <point x="232" y="825" type="line"/>
    </contour>
    <contour>
      <point x="474" y="825" type="line"/>
      <point x="376" y="991" type="line"/>
      <point x="341" y="991" type="line"/>
      <point x="447" y="825" type="line"/>
    </contour>
  </outline>
</glyph>
<glyph name="Udieresis" format="1">
  <advance width="698"/>
  <unicode hex="00DC"/>
  <outline>
    <contour>
      <point x="117" y="721" type="curve"/>
      <point x="117" y="563"/>
      <point x="117" y="429"/>
      <point x="117" y="271" type="curve"/>
      <point x="117" y="96"/>
      <point x="183" y="-5"/>
      <point x="351" y="-5" type="curve"/>
      <point x="514" y="-5"/>
      <point x="581" y="93"/>
      <point x="581" y="263" type="curve"/>
      <point x="581" y="424"/>
      <point x="581" y="561"/>
      <point x="581" y="721" type="curve"/>
      <point x="561" y="721"/>
      <point x="577" y="721"/>
      <point x="557" y="721" type="curve"/>
      <point x="557" y="559"/>
      <point x="557" y="421"/>
      <point x="557" y="259" type="curve"/>
      <point x="557" y="109"/>
      <point x="495" y="20"/>
      <point x="353" y="20" type="curve"/>
      <point x="200" y="20"/>
      <point x="142" y="114"/>
      <point x="142" y="275" type="curve"/>
      <point x="142" y="432"/>
      <point x="142" y="565"/>
      <point x="142" y="721" type="curve"/>
      <point x="122" y="721"/>
      <point x="137" y="721"/>
    </contour>
    <contour>
      <point x="319" y="840" type="curve"/>
      <point x="319" y="852"/>
      <point x="312" y="858"/>
      <point x="300" y="858" type="curve"/>
      <point x="289" y="858"/>
      <point x="282" y="851"/>
      <point x="282" y="840" type="curve"/>
      <point x="313" y="840"/>
      <point x="288" y="840"/>
      <point x="319" y="840" type="curve"/>
      <point x="319" y="829"/>
      <point x="312" y="822"/>
      <point x="300" y="822" type="curve"/>
      <point x="289" y="822"/>
      <point x="282" y="829"/>
      <point x="282" y="840" type="curve"/>
      <point x="313" y="840"/>
      <point x="288" y="840"/>
    </contour>
    <contour>
      <point x="425" y="840" type="curve"/>
      <point x="425" y="852"/>
      <point x="417" y="858"/>
      <point x="406" y="858" type="curve"/>
      <point x="394" y="858"/>
      <point x="388" y="851"/>
      <point x="388" y="840" type="curve"/>
      <point x="418" y="840"/>
      <point x="394" y="840"/>
      <point x="425" y="840" type="curve"/>
      <point x="425" y="829"/>
      <point x="417" y="822"/>
      <point x="406" y="822" type="curve"/>
      <point x="394" y="822"/>
      <point x="388" y="829"/>
      <point x="388" y="840" type="curve"/>
      <point x="418" y="840"/>
      <point x="394" y="840"/>
    </contour>
  </outline>
</glyph>
<glyph name="Yacute" format="1">
  <advance width="487"/>
  <unicode hex="00DD"/>
  <outline>
    <contour>
      <point x="26" y="722" type="curve"/>
      <point x="94" y="594"/>
      <point x="163" y="465"/>
      <point x="231" y="337" type="curve"/>
      <point x="259" y="337"/>
      <point x="231" y="338"/>
      <point x="258" y="338" type="curve"/>
      <point x="190" y="466"/>
      <point x="122" y="594"/>
      <point x="55" y="722" type="curve"/>
      <point x="26" y="722"/>
      <point x="55" y="722"/>
    </contour>
    <contour>
      <point x="446" y="722" type="curve"/>
      <point x="375" y="594"/>
      <point x="303" y="466"/>
      <point x="231" y="338" type="curve"/>
      <point x="259" y="338"/>
      <point x="231" y="337"/>
      <point x="258" y="337" type="curve"/>
      <point x="331" y="465"/>
      <point x="403" y="594"/>
      <point x="475" y="722" type="curve"/>
      <point x="446" y="722"/>
      <point x="475" y="722"/>
    </contour>
    <contour>
      <point x="258" y="0" type="curve"/>
      <point x="258" y="115"/>
      <point x="258" y="231"/>
      <point x="258" y="346" type="curve"/>
      <point x="231" y="346"/>
      <point x="258" y="346"/>
      <point x="231" y="346" type="curve"/>
      <point x="231" y="231"/>
      <point x="231" y="115"/>
      <point x="231" y="0" type="curve"/>
      <point x="258" y="0"/>
      <point x="231" y="0"/>
    </contour>
    <contour>
      <point x="259" y="825" type="line"/>
      <point x="366" y="991" type="line"/>
      <point x="331" y="991" type="line"/>
      <point x="232" y="825" type="line"/>
    </contour>
  </outline>
</glyph>
<glyph name="Thorn" format="1">
  <advance width="521"/>
  <unicode hex="00DE"/>
  <outline>
    <contour>
      <point x="138" y="221" type="curve"/>
      <point x="181" y="195"/>
      <point x="224" y="176"/>
      <point x="276" y="176" type="curve"/>
      <point x="399" y="178"/>
      <point x="469" y="259"/>
      <point x="469" y="390" type="curve"/>
      <point x="469" y="525"/>
      <point x="389" y="617"/>
      <point x="256" y="617" type="curve"/>
      <point x="218" y="617"/>
      <point x="181" y="617"/>
      <point x="144" y="617" type="curve"/>
      <point x="144" y="595"/>
      <point x="144" y="617"/>
      <point x="144" y="595" type="curve"/>
      <point x="180" y="595"/>
      <point x="216" y="595"/>
      <point x="252" y="595" type="curve"/>
      <point x="374" y="595"/>
      <point x="444" y="512"/>
      <point x="444" y="389" type="curve"/>
      <point x="444" y="277"/>
      <point x="384" y="199"/>
      <point x="278" y="199" type="curve"/>
      <point x="225" y="199"/>
      <point x="191" y="216"/>
      <point x="147" y="242" type="curve"/>
      <point x="138" y="222"/>
      <point x="147" y="242"/>
    </contour>
    <contour>
      <point x="153" y="0" type="curve"/>
      <point x="153" y="241"/>
      <point x="153" y="481"/>
      <point x="153" y="722" type="curve"/>
      <point x="127" y="722"/>
      <point x="153" y="722"/>
      <point x="127" y="722" type="curve"/>
      <point x="127" y="481"/>
      <point x="127" y="241"/>
      <point x="127" y="0" type="curve"/>
      <point x="153" y="0"/>
      <point x="127" y="0"/>
    </contour>
  </outline>
</glyph>
<glyph name="germandbls" format="1">
  <advance width="519"/>
  <unicode hex="00DF"/>
  <outline>
    <contour>
      <point x="133" y="0" type="curve"/>
      <point x="133" y="207"/>
      <point x="133" y="412"/>
      <point x="133" y="619" type="curve"/>
      <point x="108" y="619"/>
      <point x="133" y="619"/>
      <point x="108" y="619" type="curve"/>
      <point x="108" y="412"/>
      <point x="108" y="207"/>
      <point x="108" y="0" type="curve"/>
      <point x="133" y="0"/>
      <point x="108" y="0"/>
    </contour>
    <contour>
      <point x="133" y="619" type="curve"/>
      <point x="133" y="714"/>
      <point x="179" y="782"/>
      <point x="268" y="782" type="curve"/>
      <point x="359" y="782"/>
      <point x="415" y="722"/>
      <point x="415" y="627" type="curve"/>
      <point x="415" y="532"/>
      <point x="351" y="471"/>
      <point x="256" y="471" type="curve"/>
      <point x="256" y="453"/>
      <point x="256" y="471"/>
      <point x="256" y="453" type="curve"/>
      <point x="367" y="453"/>
      <point x="439" y="517"/>
      <point x="439" y="628" type="curve"/>
      <point x="439" y="737"/>
      <point x="377" y="805"/>
      <point x="270" y="805" type="curve"/>
      <point x="164" y="805"/>
      <point x="108" y="729"/>
      <point x="108" y="619" type="curve"/>
      <point x="133" y="619"/>
      <point x="108" y="619"/>
    </contour>
    <contour>
      <point x="341" y="87" type="curve"/>
      <point x="425" y="111"/>
      <point x="467" y="173"/>
      <point x="467" y="273" type="curve"/>
      <point x="467" y="396"/>
      <point x="391" y="471"/>
      <point x="256" y="471" type="curve"/>
      <point x="256" y="453"/>
      <point x="256" y="471"/>
      <point x="256" y="453" type="curve"/>
      <point x="360" y="453"/>
      <point x="444" y="387"/>
      <point x="444" y="272" type="curve"/>
      <point x="444" y="187"/>
      <point x="402" y="132"/>
      <point x="333" y="109" type="curve"/>
      <point x="341" y="87"/>
      <point x="333" y="109"/>
    </contour>
  </outline>
</glyph>
<glyph name="ae" format="1">
  <advance width="793"/>
  <unicode hex="00E6"/>
  <outline>
    <contour>
      <point x="391" y="281" type="curve"/>
      <point x="391" y="410"/>
      <point x="391" y="261"/>
      <point x="391" y="390" type="curve"/>
      <point x="391" y="492"/>
      <point x="342" y="538"/>
      <point x="245" y="538" type="curve"/>
      <point x="168" y="538"/>
      <point x="115" y="503"/>
      <point x="76" y="464" type="curve"/>
      <point x="88" y="444"/>
      <point x="78" y="464"/>
      <point x="91" y="445" type="curve"/>
      <point x="124" y="480"/>
      <point x="170" y="515"/>
      <point x="241" y="515" type="curve"/>
      <point x="327" y="515"/>
      <point x="367" y="475"/>
      <point x="367" y="383" type="curve"/>
      <point x="367" y="255"/>
      <point x="367" y="408"/>
      <point x="367" y="281" type="curve"/>
      <point x="392" y="281"/>
      <point x="366" y="281"/>
    </contour>
    <contour>
      <point x="382" y="295" type="curve"/>
      <point x="310" y="295"/>
      <point x="273" y="297"/>
      <point x="203" y="286" type="curve"/>
      <point x="116" y="271"/>
      <point x="61" y="234"/>
      <point x="61" y="143" type="curve"/>
      <point x="61" y="52"/>
      <point x="101" y="-5"/>
      <point x="192" y="-5" type="curve"/>
      <point x="296" y="-5"/>
      <point x="350" y="60"/>
      <point x="402" y="146" type="curve"/>
      <point x="389" y="158"/>
      <point x="396" y="147"/>
      <point x="384" y="160" type="curve"/>
      <point x="335" y="81"/>
      <point x="285" y="18"/>
      <point x="197" y="18" type="curve"/>
      <point x="120" y="18"/>
      <point x="86" y="66"/>
      <point x="86" y="145" type="curve"/>
      <point x="86" y="218"/>
      <point x="134" y="253"/>
      <point x="205" y="265" type="curve"/>
      <point x="276" y="275"/>
      <point x="312" y="272"/>
      <point x="382" y="272" type="curve"/>
      <point x="381" y="292"/>
      <point x="383" y="275"/>
    </contour>
    <contour>
      <point x="380" y="272" type="curve"/>
      <point x="493" y="272"/>
      <point x="608" y="272"/>
      <point x="721" y="272" type="curve"/>
      <point x="725" y="272"/>
      <point x="721" y="272"/>
      <point x="725" y="272" type="curve"/>
      <point x="725" y="276"/>
      <point x="725" y="272"/>
      <point x="725" y="276" type="curve"/>
      <point x="725" y="285"/>
      <point x="725" y="294"/>
      <point x="725" y="303" type="curve"/>
      <point x="725" y="442"/>
      <point x="677" y="538"/>
      <point x="551" y="538" type="curve"/>
      <point x="415" y="538"/>
      <point x="366" y="432"/>
      <point x="366" y="281" type="curve"/>
      <point x="366" y="114"/>
      <point x="420" y="-5"/>
      <point x="569" y="-5" type="curve"/>
      <point x="636" y="-5"/>
      <point x="679" y="23"/>
      <point x="725" y="75" type="curve"/>
      <point x="707" y="90"/>
      <point x="725" y="75"/>
      <point x="707" y="90" type="curve"/>
      <point x="667" y="46"/>
      <point x="626" y="18"/>
      <point x="569" y="18" type="curve"/>
      <point x="439" y="18"/>
      <point x="392" y="129"/>
      <point x="392" y="281" type="curve"/>
      <point x="392" y="416"/>
      <point x="432" y="515"/>
      <point x="549" y="515" type="curve"/>
      <point x="660" y="515"/>
      <point x="701" y="428"/>
      <point x="701" y="305" type="curve"/>
      <point x="701" y="295"/>
      <point x="701" y="286"/>
      <point x="701" y="276" type="curve"/>
      <point x="705" y="279"/>
      <point x="709" y="282"/>
      <point x="711" y="285" type="curve"/>
      <point x="715" y="289"/>
      <point x="718" y="291"/>
      <point x="721" y="295" type="curve"/>
      <point x="608" y="295"/>
      <point x="493" y="295"/>
      <point x="380" y="295" type="curve"/>
      <point x="380" y="272"/>
      <point x="380" y="295"/>
    </contour>
  </outline>
</glyph>
<glyph name="ccedilla" format="1">
  <advance width="471"/>
  <unicode hex="00E7"/>
  <outline>
    <contour>
      <point x="417" y="473" type="curve"/>
      <point x="379" y="508"/>
      <point x="329" y="538"/>
      <point x="275" y="538" type="curve"/>
      <point x="126" y="538"/>
      <point x="67" y="430"/>
      <point x="67" y="267" type="curve"/>
      <point x="67" y="104"/>
      <point x="124" y="-5"/>
      <point x="273" y="-5" type="curve"/>
      <point x="335" y="-5"/>
      <point x="390" y="32"/>
      <point x="427" y="86" type="curve"/>
      <point x="408" y="99"/>
      <point x="427" y="86"/>
      <point x="408" y="99" type="curve"/>
      <point x="378" y="58"/>
      <point x="329" y="18"/>
      <point x="274" y="18" type="curve"/>
      <point x="142" y="18"/>
      <point x="92" y="120"/>
      <point x="92" y="267" type="curve"/>
      <point x="92" y="414"/>
      <point x="145" y="515"/>
      <point x="273" y="515" type="curve"/>
      <point x="322" y="515"/>
      <point x="367" y="488"/>
      <point x="402" y="457" type="curve"/>
      <point x="417" y="473"/>
      <point x="402" y="457"/>
    </contour>
    <contour>
      <point x="257" y="11" type="curve"/>
      <point x="244" y="-16"/>
      <point x="231" y="-43"/>
      <point x="218" y="-69" type="curve"/>
      <point x="236" y="-88"/>
      <point x="218" y="-69"/>
      <point x="236" y="-88" type="curve"/>
      <point x="249" y="-60"/>
      <point x="263" y="-31"/>
      <point x="276" y="-4" type="curve"/>
      <point x="257" y="11"/>
      <point x="276" y="-4"/>
    </contour>
    <contour>
      <point x="236" y="-88" type="curve"/>
      <point x="248" y="-79"/>
      <point x="258" y="-75"/>
      <point x="274" y="-75" type="curve"/>
      <point x="305" y="-75"/>
      <point x="318" y="-99"/>
      <point x="318" y="-132" type="curve"/>
      <point x="318" y="-167"/>
      <point x="297" y="-186"/>
      <point x="263" y="-186" type="curve"/>
      <point x="239" y="-186"/>
      <point x="222" y="-183"/>
      <point x="203" y="-169" type="curve"/>
      <point x="193" y="-187"/>
      <point x="203" y="-169"/>
      <point x="193" y="-187" type="curve"/>
      <point x="215" y="-202"/>
      <point x="234" y="-209"/>
      <point x="262" y="-209" type="curve"/>
      <point x="312" y="-209"/>
      <point x="343" y="-180"/>
      <point x="343" y="-132" type="curve"/>
      <point x="343" y="-85"/>
      <point x="320" y="-53"/>
      <point x="276" y="-53" type="curve"/>
      <point x="254" y="-53"/>
      <point x="238" y="-59"/>
      <point x="219" y="-70" type="curve"/>
      <point x="236" y="-88"/>
      <point x="219" y="-70"/>
    </contour>
  </outline>
</glyph>
<glyph name="icircumflex" format="1">
  <advance width="272"/>
  <unicode hex="00EE"/>
  <outline>
    <contour>
      <point x="147" y="0" type="curve"/>
      <point x="147" y="178"/>
      <point x="147" y="355"/>
      <point x="147" y="533" type="curve"/>
      <point x="120" y="533"/>
      <point x="147" y="533"/>
      <point x="120" y="533" type="curve"/>
      <point x="120" y="355"/>
      <point x="120" y="178"/>
      <point x="120" y="0" type="curve"/>
      <point x="147" y="0"/>
      <point x="120" y="0"/>
    </contour>
    <contour>
      <point x="37" y="670" type="line"/>
      <point x="143" y="836" type="line"/>
      <point x="108" y="836" type="line"/>
      <point x="10" y="670" type="line"/>
    </contour>
    <contour>
      <point x="252" y="670" type="line"/>
      <point x="154" y="836" type="line"/>
      <point x="119" y="836" type="line"/>
      <point x="225" y="670" type="line"/>
    </contour>
  </outline>
</glyph>
